<svg width="20" height="20" viewBox="0 0 20 20" fill="none" xmlns="http://www.w3.org/2000/svg">
<path d="M3 20C2.86739 20 2.74021 19.9473 2.64645 19.8536C2.55268 19.7598 2.5 19.6326 2.5 19.5V16H1.5C1.10218 16 0.720644 15.842 0.43934 15.5607C0.158035 15.2794 0 14.8978 0 14.5V1.5C0 1.10218 0.158035 0.720644 0.43934 0.43934C0.720644 0.158035 1.10218 0 1.5 0H18.5C18.8978 0 19.2794 0.158035 19.5607 0.43934C19.842 0.720644 20 1.10218 20 1.5V14.5C20 14.8978 19.842 15.2794 19.5607 15.5607C19.2794 15.842 18.8978 16 18.5 16H9.369L3.269 19.9205C3.18876 19.9721 3.09542 19.9997 3 20ZM1.5 1C1.36739 1 1.24021 1.05268 1.14645 1.14645C1.05268 1.24021 1 1.36739 1 1.5V14.5C1 14.6326 1.05268 14.7598 1.14645 14.8536C1.24021 14.9473 1.36739 15 1.5 15H3C3.13261 15 3.25979 15.0527 3.35355 15.1464C3.44732 15.2402 3.5 15.3674 3.5 15.5V18.584L8.95 15.0795C9.03046 15.0275 9.12422 14.9999 9.22 15H18.5C18.6326 15 18.7598 14.9473 18.8536 14.8536C18.9473 14.7598 19 14.6326 19 14.5V1.5C19 1.36739 18.9473 1.24021 18.8536 1.14645C18.7598 1.05268 18.6326 1 18.5 1H1.5Z" fill="#5A5555"/>
</svg>
