<svg width="17" height="17" viewBox="0 0 17 17" fill="none" xmlns="http://www.w3.org/2000/svg">
<path d="M7.48199 5.3291C7.48199 5.1066 7.54797 4.88909 7.67159 4.70409C7.79521 4.51908 7.97091 4.37489 8.17648 4.28974C8.38204 4.20459 8.60824 4.18231 8.82647 4.22572C9.0447 4.26913 9.24516 4.37627 9.40249 4.53361C9.55982 4.69094 9.66697 4.8914 9.71038 5.10962C9.75379 5.32785 9.73151 5.55405 9.64636 5.75962C9.56121 5.96519 9.41702 6.14089 9.23201 6.2645C9.04701 6.38812 8.8295 6.4541 8.60699 6.4541C8.30863 6.4541 8.02248 6.33558 7.8115 6.1246C7.60052 5.91362 7.48199 5.62747 7.48199 5.3291ZM4.10699 5.3291C4.10699 4.13563 4.5811 2.99103 5.42501 2.14712C6.26893 1.30321 7.41352 0.829102 8.60699 0.829102C9.80047 0.829102 10.9451 1.30321 11.789 2.14712C12.6329 2.99103 13.107 4.13563 13.107 5.3291C13.107 9.54434 9.0584 11.9061 8.88824 12.0053C8.80324 12.0539 8.70702 12.0794 8.6091 12.0794C8.51119 12.0794 8.41497 12.0539 8.32996 12.0053C8.15559 11.9061 4.10699 9.54785 4.10699 5.3291ZM5.23199 5.3291C5.23199 8.29629 7.75199 10.2657 8.60699 10.8486C9.46129 10.2664 11.982 8.29629 11.982 5.3291C11.982 4.434 11.6264 3.57555 10.9935 2.94262C10.3605 2.30968 9.5021 1.9541 8.60699 1.9541C7.71189 1.9541 6.85344 2.30968 6.22051 2.94262C5.58757 3.57555 5.23199 4.434 5.23199 5.3291ZM13.8643 10.0843C13.7258 10.0386 13.575 10.0484 13.4437 10.1117C13.3123 10.175 13.2107 10.2868 13.1601 10.4236C13.1096 10.5603 13.1142 10.7114 13.1729 10.8449C13.2316 10.9783 13.3398 11.0838 13.4747 11.139C14.6356 11.5686 15.357 12.1438 15.357 12.6416C15.357 13.581 12.7892 14.8916 8.60699 14.8916C4.42481 14.8916 1.85699 13.581 1.85699 12.6416C1.85699 12.1438 2.5784 11.5686 3.73926 11.1397C3.8742 11.0845 3.98242 10.979 4.0411 10.8456C4.09979 10.7121 4.10436 10.561 4.05384 10.4243C4.00333 10.2875 3.90168 10.1757 3.77032 10.1124C3.63897 10.0491 3.48817 10.0393 3.34973 10.085C1.66153 10.7073 0.731995 11.6157 0.731995 12.6416C0.731995 14.8339 4.78973 16.0166 8.60699 16.0166C12.4243 16.0166 16.482 14.8339 16.482 12.6416C16.482 11.6157 15.5525 10.7073 13.8643 10.0843Z" fill="#898384"/>
</svg>
