<svg width="441" height="301" viewBox="0 0 441 301" fill="none" xmlns="http://www.w3.org/2000/svg">
<path d="M336.195 301L66.7689 104.084L212.584 107.28L336.195 301Z" fill="#EF4369"/>
<path d="M336.195 301L47.7507 143.51L66.8598 104.084L336.195 301Z" fill="#EF4369"/>
<path d="M212.576 107.539L400.645 135.51L336.07 301L212.576 107.539Z" fill="#EF4369"/>
<path d="M28.7324 182.931L47.9274 143.237L336.195 301L28.7324 182.931Z" fill="#EF4369"/>
<path d="M143.165 251.004L28.7324 183.541L336.195 301L143.165 251.004Z" fill="#EF4369"/>
<path d="M0.204956 215.489L28.4374 183.541L142.842 251.483L0.204956 215.489Z" fill="#EF4369"/>
<path d="M336.194 301L440.795 214.909L400.795 135.176L336.194 301Z" fill="#EF4369"/>
<path opacity="0.6" d="M419.246 181.89C419.246 181.88 419.242 181.872 419.239 181.863C419.236 181.848 419.231 181.834 419.219 181.821C419.215 181.818 419.219 181.815 419.214 181.812C419.208 181.807 419.197 181.805 419.191 181.801C419.18 181.794 419.174 181.784 419.161 181.779L366.408 160.77C366.428 160.705 366.438 160.637 366.438 160.568C366.438 160.018 365.756 159.572 364.913 159.572C364.729 159.572 364.555 159.596 364.391 159.636L322.888 119.41C323.083 119.26 323.205 119.069 323.205 118.857C323.205 118.384 322.617 118 321.893 118C321.169 118 320.581 118.384 320.581 118.857C320.581 118.954 320.611 119.046 320.657 119.133L244.014 142.598C243.644 142.255 243.036 142.03 242.346 142.03C241.218 142.03 240.303 142.627 240.303 143.364C240.303 143.476 240.331 143.582 240.37 143.686L185.999 159.785C185.768 159.415 185.214 159.155 184.564 159.155C183.709 159.155 183.014 159.607 183.014 160.167C183.014 160.308 183.057 160.441 183.136 160.562L162.377 165.767C162.077 165.351 161.433 165.061 160.681 165.061C159.72 165.061 158.937 165.533 158.826 166.14L60.6773 165.385H60.6757C60.6757 165.385 60.6633 165.389 60.6556 165.39C60.6432 165.39 60.6308 165.39 60.6169 165.39C60.6169 165.39 60.6138 165.392 60.6107 165.393C60.5983 165.396 60.5891 165.402 60.5798 165.406C60.5705 165.41 60.5628 165.412 60.5535 165.417C60.5442 165.423 60.5365 165.43 60.5303 165.436C60.5272 165.439 60.5225 165.439 60.5194 165.442C60.5163 165.446 60.5194 165.451 60.5148 165.455C60.5086 165.463 60.4993 165.469 60.4962 165.478L45.0041 212.567C44.9902 212.609 45.0119 212.653 45.0614 212.681C45.0954 212.701 45.1388 212.712 45.1836 212.712C45.2022 212.712 45.2223 212.709 45.2409 212.705L113.457 197.896C113.775 198.559 114.712 199.043 115.831 199.043C116.17 199.043 116.492 198.997 116.786 198.919L134.153 226.317C133.336 226.643 132.784 227.226 132.784 227.897C132.784 228.923 134.057 229.755 135.628 229.755C136.579 229.755 137.417 229.446 137.933 228.977L203.758 252.066C203.532 252.345 203.391 252.658 203.391 252.997C203.391 254.103 204.763 255 206.458 255C208.152 255 209.525 254.104 209.525 252.997C209.525 252.713 209.432 252.444 209.268 252.199L245.776 241.688C246.222 242.323 247.198 242.766 248.337 242.766C249.895 242.766 251.159 241.941 251.159 240.923C251.159 240.219 250.547 239.613 249.657 239.303L270.532 213.685C270.84 213.78 271.18 213.836 271.544 213.836C272.047 213.836 272.513 213.733 272.898 213.559L284.367 223.657C283.992 223.859 283.748 224.161 283.748 224.502C283.748 225.111 284.503 225.603 285.433 225.603C286.363 225.603 287.118 225.11 287.118 224.502C287.118 224.477 287.109 224.454 287.107 224.43L326.034 222.736C326.207 223.533 327.246 224.148 328.514 224.148C329.904 224.148 331.03 223.412 331.03 222.504C331.03 221.98 330.647 221.518 330.06 221.217L347.702 199.879C347.907 199.93 348.129 199.961 348.362 199.961C349.232 199.961 349.956 199.565 350.145 199.035L375.71 202.624C375.678 202.723 375.661 202.824 375.661 202.928C375.661 203.731 376.657 204.383 377.887 204.383C379.117 204.383 380.114 203.732 380.114 202.928C380.114 202.785 380.072 202.651 380.015 202.52L399.236 198.794C399.272 198.787 399.301 198.773 399.324 198.754C399.324 198.753 399.327 198.754 399.329 198.752L420 182.161C420 182.161 419.214 181.942 419.217 181.939C419.231 181.924 419.245 181.909 419.246 181.892C419.246 181.89 419.245 181.889 419.246 181.887V181.889V181.89ZM399.149 198.516L392.609 195.298L382.672 190.41C382.689 190.364 382.715 190.318 382.715 190.269C382.715 190.219 382.689 190.172 382.67 190.124L418.547 182.124L418.917 183.209L399.149 198.516ZM346.529 198.768C346.529 198.812 346.541 198.855 346.549 198.898L273.74 211.671C273.497 211.299 273.04 211.001 272.471 210.844L321.793 119.708C321.827 119.71 321.859 119.715 321.893 119.715C321.988 119.715 322.081 119.708 322.17 119.695L347.941 197.606C347.132 197.73 346.529 198.202 346.529 198.768ZM206.606 251.005L206.455 242.515L206.133 224.515C206.815 224.438 207.337 224.053 207.337 223.585C207.337 223.579 207.334 223.574 207.334 223.568L269.259 212.704C269.339 212.889 269.468 213.06 269.639 213.21L208.432 251.478C207.934 251.201 207.304 251.027 206.606 251.005ZM185.157 161.102L195.442 174.761C195.201 174.841 194.997 174.962 194.854 175.111L186.135 172.784C186.189 172.692 186.222 172.593 186.222 172.488C186.222 172.059 185.726 171.71 185.09 171.659L184.942 161.144C185.015 161.132 185.087 161.119 185.157 161.101V161.102ZM195.238 176.406L181.655 189.049C181.363 188.953 181.036 188.894 180.685 188.894C180.568 188.894 180.455 188.905 180.342 188.916L177.021 180.84C178.117 180.73 178.957 180.118 178.957 179.372C178.957 179.177 178.896 178.992 178.791 178.822L194.757 176.022C194.864 176.176 195.029 176.308 195.236 176.407L195.238 176.406ZM169.451 184.506C169.636 184.303 169.748 184.069 169.748 183.816C169.748 183.491 169.567 183.197 169.275 182.964L173.759 180.582L174.688 180.089C175.073 180.542 175.802 180.854 176.651 180.86L179.989 188.974C179.684 189.042 179.409 189.148 179.181 189.29L171.547 185.536L169.451 184.505V184.506ZM178.624 178.603C178.426 178.39 178.151 178.214 177.821 178.089L184.323 173.219C184.507 173.285 184.714 173.327 184.939 173.327C185.355 173.327 185.722 173.195 185.955 172.994L194.704 175.33C194.659 175.423 194.627 175.521 194.627 175.624C194.627 175.681 194.638 175.737 194.653 175.791L178.624 178.603ZM161.803 167.267L174.985 178.38C174.623 178.643 174.395 178.988 174.395 179.371C174.395 179.545 174.449 179.709 174.533 179.863L169.02 182.791C168.656 182.587 168.189 182.459 167.67 182.459C167.533 182.459 167.398 182.469 167.268 182.485L161.478 167.395C161.594 167.36 161.702 167.316 161.803 167.267ZM150.824 187.054C150.829 187.018 150.841 186.984 150.841 186.948C150.841 186.891 150.827 186.838 150.817 186.783L165.677 184.177C165.92 184.75 166.717 185.173 167.672 185.173C168.3 185.173 168.857 184.987 169.238 184.699L178.943 189.471C178.814 189.584 178.714 189.711 178.64 189.847L162.587 188.234L150.824 187.053V187.054ZM182.842 190.469C182.85 190.418 182.865 190.369 182.865 190.316C182.865 189.845 182.511 189.431 181.971 189.172L183.258 187.973L195.558 176.524C195.73 176.57 195.919 176.596 196.115 176.596C196.247 176.596 196.372 176.581 196.493 176.561L203.335 193.201C202.591 193.319 201.988 193.665 201.709 194.122L190.009 191.856L182.841 190.468H182.842V190.469ZM321.363 119.641C321.384 119.647 321.407 119.652 321.431 119.657L282.075 192.38L272.121 210.773C271.936 210.743 271.745 210.723 271.546 210.723C270.312 210.723 269.31 211.336 269.184 212.12L214.049 213.546C214.027 213.197 213.788 212.887 213.415 212.669L271.759 162.39L321.364 119.641H321.363ZM203.889 196.223C204.121 196.223 204.34 196.195 204.551 196.153L211.272 212.493C210.789 212.658 210.428 212.949 210.298 213.304L157.218 204.036C157.251 203.906 157.28 203.774 157.28 203.637C157.28 203.446 157.24 203.262 157.176 203.084L201.718 195.271C202.07 195.83 202.908 196.223 203.891 196.223H203.889ZM157.138 204.271L210.247 213.543C210.247 213.56 210.24 213.577 210.24 213.595C210.24 214.055 210.626 214.452 211.194 214.668L206.342 222.69C206.198 222.659 206.048 222.638 205.888 222.638C205.382 222.638 204.938 222.808 204.678 223.065L156.943 204.645C157.025 204.525 157.085 204.399 157.138 204.271ZM207.276 223.329C207.18 223.105 206.965 222.915 206.674 222.79L211.527 214.767C211.722 214.812 211.929 214.84 212.147 214.84C213.101 214.84 213.884 214.382 214.026 213.785L269.17 212.359C269.174 212.396 269.181 212.433 269.187 212.469L211.838 222.529L207.276 223.329ZM320.394 120.081L249.299 181.347L213.118 212.527C212.833 212.415 212.503 212.348 212.147 212.348C211.96 212.348 211.784 212.371 211.614 212.403L204.897 196.07C205.687 195.823 206.24 195.299 206.24 194.689C206.24 194.364 206.083 194.063 205.819 193.816L274.493 149.619L320.392 120.081H320.394ZM180.687 191.739C181.682 191.739 182.513 191.3 182.773 190.705L200.143 194.07L201.601 194.352C201.564 194.461 201.539 194.573 201.539 194.689C201.539 194.811 201.567 194.929 201.607 195.043L157.065 202.856C156.96 202.651 156.827 202.454 156.646 202.276L178.958 191.175C179.356 191.516 179.978 191.739 180.685 191.739H180.687ZM205.584 193.63C205.157 193.338 204.556 193.154 203.889 193.154C203.826 193.154 203.765 193.163 203.702 193.166L196.836 176.47C197.293 176.304 197.605 175.989 197.605 175.623C197.605 175.485 197.561 175.355 197.482 175.237L320.437 119.716L205.584 193.63ZM183.67 172.39C183.664 172.422 183.655 172.454 183.655 172.488C183.655 172.717 183.797 172.925 184.026 173.077L177.479 177.98C177.228 177.919 176.961 177.881 176.678 177.881C176.136 177.881 175.644 178.01 175.254 178.216L162.075 167.105C162.199 167.015 162.303 166.915 162.382 166.804L166.009 167.756L183.67 172.39ZM160.355 167.493C160.461 167.505 160.57 167.514 160.683 167.514C160.839 167.514 160.987 167.498 161.131 167.475L161.538 168.535L166.918 182.553C166.143 182.75 165.594 183.239 165.594 183.815C165.594 183.857 165.608 183.898 165.612 183.939L150.727 186.551C150.558 186.258 150.212 186.023 149.769 185.906L158.232 171.188L160.356 167.492H160.355V167.493ZM147.423 186.743C147.405 186.809 147.391 186.878 147.391 186.948C147.391 187.074 147.429 187.193 147.488 187.307L117.891 196.492C117.44 196.063 116.685 195.781 115.828 195.781C115.241 195.781 114.708 195.918 114.282 196.139L61.5407 165.844L147.423 186.743ZM118.177 196.87C118.146 196.812 118.11 196.757 118.07 196.702L147.643 187.526C147.945 187.853 148.489 188.076 149.116 188.076C149.885 188.076 150.53 187.744 150.752 187.289L178.545 190.082C178.528 190.149 178.516 190.218 178.513 190.289L171.833 191.017L118.175 196.871H118.177V196.87ZM156.023 205.461C156.319 205.286 156.568 205.082 156.768 204.855L161.829 206.807L204.522 223.282C204.473 223.377 204.44 223.478 204.44 223.584C204.44 224.079 205.025 224.481 205.768 224.522L205.984 236.594L206.243 251.009C205.777 251.03 205.342 251.119 204.957 251.262L158.273 207.567L156.023 205.461ZM349.95 198.181C349.756 197.958 349.464 197.78 349.103 197.674L364.504 161.524C364.634 161.548 364.769 161.565 364.911 161.565C365.064 161.565 365.208 161.546 365.348 161.518L370.262 170.138L381.417 189.701C381.073 189.793 380.83 190.011 380.83 190.269C380.83 190.283 380.841 190.295 380.843 190.309L359.136 195.839L349.948 198.181H349.95ZM160 167.429L149.413 185.841C149.316 185.83 149.218 185.822 149.116 185.822C148.4 185.822 147.787 186.107 147.525 186.512L61.7248 165.633L158.816 166.38C158.872 166.86 159.343 167.261 160 167.429ZM118.313 197.514C118.316 197.479 118.328 197.447 118.328 197.412C118.328 197.305 118.31 197.201 118.28 197.1L131.823 195.623L178.541 190.526C178.578 190.685 178.653 190.834 178.763 190.971L175.218 192.735L156.417 202.088C155.725 201.533 154.683 201.171 153.501 201.171C151.869 201.171 150.492 201.852 149.966 202.799L125.62 198.734L118.313 197.514ZM418.637 181.851L417.534 182.097L382.514 189.906C382.344 189.758 382.088 189.657 381.784 189.655L365.685 161.423C365.943 161.323 366.151 161.178 366.281 161L418.635 181.85H418.637V181.851ZM364.164 161.433L348.755 197.6C348.628 197.581 348.497 197.57 348.361 197.57C348.342 197.57 348.324 197.573 348.305 197.574L334.487 155.8L322.515 119.608C322.548 119.596 322.583 119.587 322.614 119.573L364.06 159.743C363.655 159.922 363.387 160.225 363.387 160.569C363.387 160.941 363.703 161.262 364.164 161.433ZM320.163 119.549L197.605 174.891L241.241 144.484C241.559 144.619 241.939 144.699 242.346 144.699C243.474 144.699 244.388 144.101 244.388 143.365C244.388 143.165 244.315 142.977 244.195 142.807L320.162 119.549H320.163ZM240.489 143.914C240.6 144.074 240.758 144.217 240.953 144.336L197.096 174.896C196.833 174.745 196.494 174.65 196.117 174.65C196.004 174.65 195.894 174.661 195.789 174.676L185.476 160.982C185.861 160.798 186.115 160.503 186.115 160.166C186.115 160.116 186.102 160.068 186.092 160.02L240.489 143.914ZM183.326 160.772C183.61 161.018 184.055 161.18 184.564 161.18H184.577L184.725 171.665C184.29 171.713 183.93 171.901 183.761 172.157L162.502 166.578C162.538 166.484 162.561 166.388 162.561 166.288C162.561 166.187 162.536 166.087 162.501 165.992L183.328 160.772H183.326ZM45.4297 212.414L60.7887 165.73L114.01 196.301C113.592 196.593 113.332 196.982 113.332 197.413C113.332 197.499 113.351 197.581 113.371 197.664L45.4297 212.414ZM117.111 198.807C117.694 198.578 118.126 198.203 118.273 197.754L139.786 201.347L149.859 203.03C149.783 203.226 149.729 203.427 149.729 203.638C149.729 204.608 150.595 205.44 151.843 205.842L136.541 226.148C136.253 226.084 135.95 226.042 135.629 226.042C135.218 226.042 134.831 226.101 134.478 226.203L117.112 198.807H117.111ZM138.122 228.773C138.339 228.512 138.472 228.216 138.472 227.898C138.472 227.167 137.819 226.541 136.88 226.238L151.327 207.066L152.178 205.937C152.591 206.039 153.036 206.102 153.504 206.102C154.345 206.102 155.114 205.916 155.742 205.613L204.646 251.389C204.374 251.52 204.134 251.676 203.94 251.858L138.124 228.772L138.122 228.773ZM249.324 239.204C249.016 239.128 248.685 239.082 248.337 239.082C246.779 239.082 245.515 239.907 245.515 240.925C245.515 241.114 245.57 241.293 245.652 241.465L209.093 251.989C208.98 251.864 208.852 251.748 208.701 251.642L269.878 213.393C269.981 213.458 270.091 213.52 270.212 213.573L249.326 239.204H249.324ZM285.433 223.405C285.158 223.405 284.902 223.452 284.673 223.528L273.18 213.41C273.483 213.222 273.704 212.982 273.825 212.713L326.07 222.133C326.026 222.252 326 222.374 325.998 222.501L287.042 224.196C286.837 223.74 286.197 223.405 285.433 223.405ZM329.755 221.087C329.389 220.949 328.968 220.865 328.514 220.865C327.453 220.865 326.549 221.296 326.179 221.904L273.899 212.477C273.912 212.412 273.93 212.348 273.93 212.281C273.93 212.149 273.898 212.022 273.85 211.9L346.625 199.134C346.756 199.401 347.021 199.627 347.375 199.775L329.755 221.087ZM350.19 198.8C350.19 198.789 350.194 198.779 350.194 198.768C350.194 198.639 350.156 198.517 350.097 198.4L380.94 190.541C381.052 190.686 381.245 190.794 381.483 190.845L378.116 201.491C378.039 201.486 377.965 201.475 377.886 201.475C376.943 201.475 376.143 201.858 375.817 202.398L350.19 198.8ZM379.885 202.299C379.608 201.927 379.099 201.646 378.478 201.534L381.85 190.873C382.124 190.858 382.356 190.768 382.514 190.631L390.227 194.425L398.784 198.635L379.885 202.298V202.299Z" fill="white" fill-opacity="0.24"/>
</svg>
