<svg id="Group_1704" data-name="Group 1704" xmlns="http://www3.org/2000/svg" xmlns:xlink="http://www3.org/1999/xlink" width="22.542" height="27.584" viewBox="0 0 22.542 27.584">
  <defs>
    <clipPath id="clip-path">
      <rect id="Rectangle_131" data-name="Rectangle 131" width="22.542" height="27.584" fill="none"/>
    </clipPath>
  </defs>
  <g id="Group_1704-2" data-name="Group 1704" clip-path="url(#clip-path)">
    <path id="Path_10066" data-name="Path 10066" d="M1.163,113.37c-2.332,4.047-.85,10.188,1.729,13.911,1.287,1.862,2.591,3.533,4.375,3.533l.1,0a5.4,5.4,0,0,0,2.031-.541,5.562,5.562,0,0,1,2.406-.57,5.231,5.231,0,0,1,2.289.551,4.848,4.848,0,0,0,2.194.526c2.01-.037,3.245-1.84,4.334-3.431a15.205,15.205,0,0,0,1.9-3.89l.008-.025a.226.226,0,0,0-.12-.277l-.016-.007A5.763,5.763,0,0,1,18.9,117.87a5.932,5.932,0,0,1,2.8-4.96l.022-.014a.225.225,0,0,0,.064-.317,6.523,6.523,0,0,0-5.132-2.786,4.463,4.463,0,0,0-.447-.022,8.943,8.943,0,0,0-3.221.8,5.172,5.172,0,0,1-1.543.461,5.048,5.048,0,0,1-1.6-.466,7.735,7.735,0,0,0-2.813-.715H6.968a6.9,6.9,0,0,0-5.8,3.514" transform="translate(0 -103.23)" fill="#fff"/>
    <path id="Path_10067" data-name="Path 10067" d="M189.854,0A6.3,6.3,0,0,0,185.7,2.133,5.9,5.9,0,0,0,184.2,6.508a.227.227,0,0,0,.207.2c.1.007.194.011.292.011A5.328,5.328,0,0,0,188.626,4.7,6.22,6.22,0,0,0,190.088.2a.227.227,0,0,0-.234-.2" transform="translate(-173.193 0)" fill="#fff"/>
  </g>
</svg>
