<svg width="22" height="24" viewBox="0 0 22 24" fill="none" xmlns="http://www.w3.org/2000/svg">
<path d="M8.16293 11.7266H5.13672C5.04349 11.7266 4.95405 11.7636 4.88814 11.8296L2.5077 14.21C2.50179 14.2159 2.49509 14.2227 2.47859 14.2158C2.46209 14.209 2.46209 14.1995 2.46209 14.1912V12.0782C2.46209 11.884 2.30468 11.7266 2.11052 11.7266H1.73223C1.30032 11.7266 0.948986 11.3752 0.948986 10.9434V1.48638C0.948986 1.05452 1.30037 0.703136 1.73223 0.703136H11.1891C11.621 0.703136 11.9724 1.05452 11.9724 1.48638V7.91708C11.9724 8.11124 12.1298 8.26865 12.3239 8.26865C12.5181 8.26865 12.6755 8.11124 12.6755 7.91708V1.48638C12.6756 0.666807 12.0088 0 11.1892 0H1.73223C0.912657 0 0.24585 0.666807 0.24585 1.48638V10.9433C0.24585 11.7629 0.912657 12.4297 1.73223 12.4297H1.75895V14.1911C1.75895 14.4874 1.93577 14.752 2.20947 14.8654C2.30032 14.9031 2.39534 14.9213 2.48951 14.9213C2.67903 14.9213 2.86489 14.8471 3.00486 14.7072L5.28232 12.4298H8.16293C8.35709 12.4298 8.51449 12.2723 8.51449 12.0782C8.51449 11.884 8.35713 11.7266 8.16293 11.7266Z" fill="#5A5555"/>
<path d="M20.2677 9.0791H10.8108C9.99122 9.0791 9.32446 9.74591 9.32446 10.5655V20.0224C9.32446 20.842 9.99127 21.5088 10.8108 21.5088H16.7177L18.9951 23.7862C19.1351 23.9262 19.3209 24.0004 19.5105 24.0004C19.6046 24.0004 19.6997 23.982 19.7905 23.9444C20.0642 23.8311 20.241 23.5664 20.241 23.2701V21.5087H20.2677C21.0874 21.5087 21.7541 20.8419 21.7541 20.0223V10.5655C21.7542 9.74586 21.0874 9.0791 20.2677 9.0791ZM21.051 20.0224C21.051 20.4543 20.6997 20.8056 20.2678 20.8056H19.8895C19.6953 20.8056 19.5379 20.963 19.5379 21.1572V23.2702C19.5379 23.2786 19.5379 23.288 19.5214 23.2948C19.505 23.3017 19.4982 23.295 19.4923 23.289L17.1119 20.9086C17.046 20.8426 16.9565 20.8056 16.8633 20.8056H10.8108C10.3789 20.8056 10.0276 20.4542 10.0276 20.0223V10.5655C10.0276 10.1336 10.379 9.78224 10.8108 9.78224H20.2677C20.6997 9.78224 21.051 10.1336 21.051 10.5655V20.0224H21.051Z" fill="#5A5555"/>
<path d="M6.92467 2.96523C6.92345 2.962 6.92219 2.95876 6.92088 2.95558C6.84381 2.76835 6.66334 2.64746 6.46093 2.64746C6.46079 2.64746 6.4606 2.64746 6.46041 2.64746C6.25782 2.64765 6.07735 2.76896 6.00061 2.95651C5.99953 2.95914 5.9985 2.96181 5.99747 2.96448L3.58281 9.30461C3.51371 9.48607 3.60475 9.68918 3.7862 9.75828C3.82736 9.77398 3.86969 9.78138 3.91127 9.78138C4.05292 9.78138 4.18647 9.69513 4.23986 9.55484L4.75503 8.20224H8.14954L8.37407 8.79728C8.44265 8.97892 8.64539 9.07065 8.82712 9.00208C9.00877 8.93354 9.1005 8.73067 9.03192 8.54902L6.92467 2.96523ZM5.02283 7.49915L6.46009 3.72556L7.88417 7.49915H5.02283Z" fill="#5A5555"/>
<path d="M17.2143 18.0899C16.841 18.3817 16.3927 18.5359 15.9176 18.5359C14.7557 18.5359 13.8104 17.5906 13.8104 16.4286C13.8104 15.2667 14.7557 14.3214 15.9176 14.3214H16.8633C17.0575 14.3214 17.2149 14.164 17.2149 13.9698C17.2149 13.7757 17.0575 13.6183 16.8633 13.6183C16.8633 13.6183 15.7447 13.6183 15.7285 13.6183C15.2966 13.6183 14.9452 13.2669 14.9452 12.835C14.9452 12.4031 15.2966 12.0518 15.7285 12.0518C15.951 12.0518 16.1638 12.147 16.3124 12.3129C16.4419 12.4576 16.6642 12.4699 16.8088 12.3403C16.9535 12.2108 16.9658 11.9886 16.8363 11.8439C16.5545 11.5292 16.1507 11.3486 15.7285 11.3486C14.9089 11.3486 14.2421 12.0154 14.2421 12.835C14.2421 13.2522 14.4151 13.6295 14.6928 13.8997C13.7552 14.3557 13.1073 15.3179 13.1073 16.4286C13.1073 17.9783 14.368 19.239 15.9177 19.239C16.5512 19.239 17.1493 19.0332 17.6474 18.6439C17.8003 18.5243 17.8274 18.3033 17.7078 18.1503C17.5882 17.9974 17.3673 17.9703 17.2143 18.0899Z" fill="#5A5555"/>
</svg>
