<svg width="24" height="24" viewBox="0 0 24 24" fill="none" xmlns="http://www.w3.org/2000/svg">
<g clip-path="url(#clip0_3267_2633)">
<path d="M18.2971 23.3259H2.66299C2.47549 23.3259 2.32336 23.1738 2.32336 22.9863V21.8927C2.32336 21.0622 2.99907 20.3865 3.83 20.3865H17.1301C17.961 20.3865 18.6367 21.0622 18.6367 21.8927V22.9863C18.6367 23.1738 18.4846 23.3259 18.2971 23.3259ZM3.00261 22.6466H17.9575V21.8927C17.9575 21.4367 17.5865 21.0657 17.1301 21.0657H3.83C3.37363 21.0657 3.00261 21.4367 3.00261 21.8927V22.6466Z" fill="#726C6C"/>
<path d="M16.267 21.0658H4.69326C4.50576 21.0658 4.35364 20.9136 4.35364 20.7261V18.3943C4.35364 17.9048 4.75208 17.5063 5.24161 17.5063H15.7186C16.2081 17.5063 16.6066 17.9048 16.6066 18.3943V20.7261C16.6066 20.9136 16.4545 21.0658 16.267 21.0658ZM5.03288 20.3865H15.9273V18.3943C15.9273 18.2793 15.8336 18.1856 15.7186 18.1856H5.24161C5.12663 18.1856 5.03288 18.2793 5.03288 18.3943V20.3865Z" fill="#726C6C"/>
<path d="M9.8866 13.8731C9.83264 13.8731 9.77869 13.8603 9.72961 13.8346L3.48727 10.5861C3.3922 10.5366 3.32586 10.4446 3.30906 10.3385C3.0853 8.93177 3.35372 7.40391 4.06525 6.03613C4.77811 4.66614 5.87657 3.56989 7.15812 2.94902C7.25496 2.90214 7.36817 2.90391 7.46325 2.95344L13.7003 6.19887C13.7954 6.2484 13.8617 6.33994 13.8785 6.44607C14.1049 7.85276 13.8374 9.3815 13.1245 10.7502C12.413 12.1179 11.3158 13.2151 10.0352 13.8386C9.98831 13.8616 9.93745 13.8731 9.8866 13.8731ZM3.95558 10.0643L9.88881 13.1518C10.9749 12.5801 11.9058 11.6218 12.5222 10.4371C13.1395 9.25149 13.3894 7.93811 13.232 6.72113L7.30361 3.63622C6.21708 4.20535 5.28533 5.16275 4.66755 6.34966C4.05154 7.53481 3.80081 8.84686 3.95558 10.0643Z" fill="#726C6C"/>
<path d="M9.51783 16.1132C9.41656 16.1132 9.31618 16.0889 9.22376 16.0406L1.97007 12.2659C1.81972 12.1876 1.70828 12.0549 1.65698 11.8927C1.60569 11.7308 1.62072 11.5583 1.69944 11.4075L2.43661 9.99112C2.51488 9.84077 2.64755 9.72933 2.80984 9.67803C2.97169 9.62718 3.14372 9.64133 3.29495 9.72048L10.5495 13.4952C10.8604 13.6575 10.9816 14.0427 10.8206 14.3536C10.8206 14.354 10.8202 14.354 10.8202 14.3545L10.0834 15.77C10.0047 15.9213 9.87161 16.0327 9.70931 16.0835C9.64652 16.1034 9.58195 16.1132 9.51783 16.1132ZM2.32164 11.683L9.50059 15.4189L10.1984 14.0781L3.01945 10.3427L2.32164 11.683Z" fill="#726C6C"/>
<path d="M14.1873 7.13717C14.0873 7.13717 13.9865 7.11329 13.8923 7.06332L6.64126 3.29297C6.4887 3.21205 6.37814 3.07938 6.32685 2.91797C6.27466 2.75391 6.29014 2.58012 6.37063 2.42888L7.10736 1.01379C7.18828 0.861223 7.32139 0.751111 7.4828 0.701583C7.64465 0.652939 7.81623 0.668859 7.96659 0.7489L14.6383 4.21588C14.8046 4.30211 14.8696 4.5073 14.7829 4.67358C14.6971 4.83985 14.4924 4.90574 14.3252 4.81818L7.68799 1.36977L6.99061 2.70881L14.1722 6.44377L14.4884 5.83661C14.5751 5.67077 14.7785 5.60577 14.9465 5.69244C15.1128 5.77912 15.1774 5.98386 15.0907 6.15058L14.7559 6.79356C14.6396 7.01246 14.4163 7.13717 14.1873 7.13717Z" fill="#726C6C"/>
<path d="M15.1791 13.3875C15.1252 13.3875 15.0712 13.3747 15.0221 13.349L12.0942 11.8251C12.0066 11.7796 11.943 11.6978 11.9204 11.6014C11.8979 11.505 11.9186 11.4037 11.977 11.3237C12.1751 11.0521 12.3595 10.7536 12.5249 10.4361C12.6881 10.1222 12.8261 9.80155 12.9349 9.48315C12.9671 9.3894 13.0383 9.31422 13.1299 9.27752C13.2219 9.24081 13.3253 9.24568 13.4129 9.29167L16.3408 10.8151C16.4208 10.8567 16.481 10.9283 16.508 11.0141C16.5354 11.0999 16.527 11.1932 16.4854 11.2732L15.4803 13.2048C15.4387 13.2844 15.367 13.3446 15.2813 13.3716C15.2481 13.3822 15.2136 13.3875 15.1791 13.3875ZM12.7487 11.4002L15.0345 12.5897L15.7261 11.2609L13.4403 10.0713C13.3483 10.299 13.2435 10.5263 13.1272 10.7497C13.0096 10.9756 12.8831 11.1932 12.7487 11.4002Z" fill="#726C6C"/>
<path d="M21.0022 17.2303C20.8903 17.2303 20.7771 17.2042 20.6714 17.1493L15.0084 14.202C14.8381 14.1135 14.7121 13.9636 14.6542 13.7801C14.5962 13.5961 14.6135 13.4007 14.7024 13.23L16.0613 10.6187C16.2439 10.2667 16.6795 10.1296 17.0329 10.3118L22.6954 13.2587C22.8661 13.3476 22.9922 13.4975 23.0501 13.681C23.108 13.8646 23.0908 14.06 23.0019 14.2307L21.643 16.8424C21.5147 17.0888 21.2627 17.2303 21.0022 17.2303ZM16.7007 10.9101C16.6857 10.9101 16.6711 10.9181 16.664 10.9322L15.3047 13.544C15.3051 13.544 15.3219 13.5997 15.3224 13.5997L20.9849 16.5466C21.0035 16.5559 21.0296 16.5488 21.0407 16.5285L22.3996 13.9172C22.4102 13.8968 22.4023 13.8721 22.3819 13.861L16.7193 10.9145C16.7136 10.9114 16.7069 10.9101 16.7007 10.9101Z" fill="#726C6C"/>
<path d="M17.3875 7.93807C15.5916 7.93807 14.131 6.47742 14.131 4.68202C14.131 2.88618 15.5916 1.42554 17.3875 1.42554C19.1833 1.42554 20.644 2.88618 20.644 4.68202C20.644 6.47742 19.1833 7.93807 17.3875 7.93807ZM17.3875 2.10478C15.9662 2.10478 14.8102 3.26074 14.8102 4.68202C14.8102 6.10287 15.9662 7.25882 17.3875 7.25882C18.8088 7.25882 19.9647 6.10287 19.9647 4.68202C19.9647 3.26074 18.8088 2.10478 17.3875 2.10478Z" fill="#726C6C"/>
<path d="M17.0267 5.56632C16.9334 5.56632 16.841 5.52829 16.7738 5.45355L16.2051 4.81986C16.0799 4.68012 16.0914 4.46564 16.2312 4.34005C16.3705 4.21535 16.5849 4.22596 16.711 4.36614L17.0594 4.75485L18.0986 3.87749C18.2419 3.75677 18.4564 3.7749 18.5771 3.91818C18.6979 4.06146 18.6802 4.27549 18.5364 4.39666L17.2456 5.48628C17.1819 5.53979 17.1041 5.56632 17.0267 5.56632Z" fill="#726C6C"/>
<path d="M19.7047 23.3257H1.25588C1.06838 23.3257 0.91626 23.1736 0.91626 22.9861C0.91626 22.7986 1.06838 22.6465 1.25588 22.6465H19.7047C19.8922 22.6465 20.0444 22.7986 20.0444 22.9861C20.0444 23.1736 19.8922 23.3257 19.7047 23.3257Z" fill="#726C6C"/>
</g>
<defs>
<clipPath id="clip0_3267_2633">
<rect width="24" height="24" fill="white"/>
</clipPath>
</defs>
</svg>
