<svg width="24" height="19" viewBox="0 0 24 19" fill="none" xmlns="http://www.w3.org/2000/svg">
<path d="M2.25 7.56224H4.6875V13.9372H3C2.85082 13.9372 2.70774 13.9965 2.60225 14.102C2.49676 14.2075 2.4375 14.3506 2.4375 14.4997C2.4375 14.6489 2.49676 14.792 2.60225 14.8975C2.70774 15.003 2.85082 15.0622 3 15.0622H21C21.1492 15.0622 21.2923 15.003 21.3977 14.8975C21.5032 14.792 21.5625 14.6489 21.5625 14.4997C21.5625 14.3506 21.5032 14.2075 21.3977 14.102C21.2923 13.9965 21.1492 13.9372 21 13.9372H19.3125V7.56224H21.75C21.8724 7.56215 21.9915 7.52211 22.0891 7.4482C22.1867 7.37429 22.2576 7.27055 22.2909 7.15273C22.3242 7.0349 22.3181 6.90943 22.2736 6.79536C22.2291 6.68129 22.1487 6.58485 22.0444 6.52068L12.2944 0.520678C12.2058 0.466291 12.1039 0.4375 12 0.4375C11.8961 0.4375 11.7942 0.466291 11.7056 0.520678L1.95563 6.52068C1.85135 6.58485 1.77085 6.68129 1.72637 6.79536C1.68188 6.90943 1.67583 7.0349 1.70913 7.15273C1.74243 7.27055 1.81326 7.37429 1.91088 7.4482C2.00849 7.52211 2.12756 7.56215 2.25 7.56224ZM5.8125 7.56224H9.1875V13.9372H5.8125V7.56224ZM13.6875 7.56224V13.9372H10.3125V7.56224H13.6875ZM18.1875 13.9372H14.8125V7.56224H18.1875V13.9372ZM12 1.65599L19.7625 6.43724H4.2375L12 1.65599ZM23.0625 17.4997C23.0625 17.6489 23.0032 17.792 22.8977 17.8975C22.7923 18.003 22.6492 18.0622 22.5 18.0622H1.5C1.35082 18.0622 1.20774 18.003 1.10225 17.8975C0.996763 17.792 0.9375 17.6489 0.9375 17.4997C0.9375 17.3506 0.996763 17.2075 1.10225 17.102C1.20774 16.9965 1.35082 16.9372 1.5 16.9372H22.5C22.6492 16.9372 22.7923 16.9965 22.8977 17.102C23.0032 17.2075 23.0625 17.3506 23.0625 17.4997Z" fill="#898384"/>
</svg>
