<svg width="375" height="217" viewBox="0 0 375 217" fill="none" xmlns="http://www.w3.org/2000/svg">
<g clip-path="url(#clip0_5285_2157)">
<path d="M318.461 153.172L63.2749 -108.213L201.383 -103.971L318.461 153.172Z" fill="#F13F67"/>
<path d="M318.461 153.172L45.1699 -55.8788L63.2752 -108.213L318.461 153.172Z" fill="#F13F67"/>
<path d="M201.383 -103.971L379.681 -66.7934L318.461 153.172L201.383 -103.971Z" fill="#F13F67"/>
<path d="M26.9722 -3.28045L45.17 -55.8784L318.461 153.173L26.9722 -3.28045Z" fill="#F13F67"/>
<path d="M135.46 86.5787L26.9722 -3.28076L318.461 153.172L135.46 86.5787Z" fill="#F13F67"/>
<path d="M0.199707 38.9732L26.9721 -3.28076L135.46 86.5787L0.199707 38.9732Z" fill="#F13F67"/>
<path d="M0.600719 5.08801L-19.7407 -13.022L26.9721 -3.28056L0.600719 5.08801Z" fill="#F13F67"/>
<path d="M0.199707 38.9732L0.600659 5.08781L26.9721 -3.28076L0.199707 38.9732Z" fill="#F13F67"/>
<path d="M318.461 153.172L417.588 38.9732L379.681 -66.7935L318.461 153.172Z" fill="#F13F67"/>
<path d="M0.600449 5.08801L-19.741 -13.022L-55.165 22.4797L0.600449 5.08801Z" fill="#F13F67"/>
<path d="M0.199493 38.9733L-55.165 22.4795L0.600449 5.08789L0.199493 38.9733Z" fill="#F13F67"/>
<g opacity="0.1">
<path d="M242.004 -95.4985L354.044 25.3131L358.373 9.76122L265.25 -90.6538L242.004 -95.4985Z" fill="white"/>
<path d="M274.442 -88.7383L360.085 3.61143L368.741 -27.4884L320.928 -79.0448L274.442 -88.7383Z" fill="white"/>
</g>
<g opacity="0.1">
<path d="M-237.549 -66.2742C-237.549 -65.5998 -237.374 -64.9653 -237.102 -64.3627L-255.115 -52.9931C-256.302 -53.7872 -257.834 -54.2861 -259.525 -54.2861C-259.978 -54.2861 -260.415 -54.2462 -260.836 -54.1823L-273.102 -92.1702L-274.449 -92.5174L-261.983 -53.9149C-264.512 -53.1487 -266.311 -51.2491 -266.311 -49.0143C-266.311 -48.8507 -266.27 -48.6911 -266.249 -48.5314L-305.333 -40.3823L-305.082 -39.4725L-266.039 -47.6136C-265.242 -45.3867 -262.641 -43.7425 -259.52 -43.7425C-257.469 -43.7425 -255.649 -44.4649 -254.405 -45.5823L-222.693 -27.0453C-223.114 -26.6023 -223.443 -26.1154 -223.68 -25.5847L-276.13 -31.8461L-303.889 -35.1624L-303.622 -34.1887L-223.988 -24.6788C-224.045 -24.4154 -224.086 -24.148 -224.091 -23.8766L-245.918 -21.0472L-298.111 -14.2789L-297.859 -13.369L-223.999 -22.9468C-223.88 -22.3282 -223.628 -21.7536 -223.269 -21.2188L-234.85 -14.3707L-289.233 17.7867L-288.955 18.7884L-222.631 -20.4326C-221.331 -19.1117 -219.3 -18.2417 -216.992 -18.2417C-213.738 -18.2417 -211.029 -19.9458 -210.175 -22.2564L-153.418 -9.1907L-148.652 -8.09325C-148.776 -7.67023 -148.853 -7.23524 -148.853 -6.7803C-148.853 -6.32535 -148.765 -5.85045 -148.627 -5.40749L-287.639 23.5693L-287.388 24.4792L-148.277 -4.52553C-147.131 -2.35455 -144.391 -0.826126 -141.183 -0.826126C-140.427 -0.826126 -139.713 -0.937866 -139.019 -1.09749L-130.624 23.1662L-129.39 23.1542L-137.893 -1.42473C-135.307 -2.38251 -133.508 -4.4138 -133.508 -6.78828C-133.508 -8.04936 -134.022 -9.21864 -134.881 -10.1804L89.523 -181.826L108.415 -196.277L107.238 -196.68L-135.641 -10.8947C-137.04 -12.0281 -138.998 -12.7425 -141.178 -12.7425C-141.389 -12.7425 -141.584 -12.7066 -141.79 -12.6946L-159.206 -63.0298L-159.324 -62.8103L-160.476 -63.1056L-142.987 -12.5589C-145.419 -12.1 -147.393 -10.7591 -148.303 -8.9832L-186.529 -17.7828L-209.954 -23.1743C-209.929 -23.3698 -209.877 -23.5654 -209.877 -23.7649C-209.877 -25.5927 -211.034 -27.2049 -212.797 -28.2106L-208.592 -32.8638L-177.327 -67.4555L-178.514 -67.7628L-213.83 -28.6935C-214.787 -29.0646 -215.856 -29.2961 -216.997 -29.2961C-217.383 -29.2961 -217.748 -29.2522 -218.118 -29.2083L-228.97 -60.5795C-225.392 -61.0065 -222.641 -63.381 -222.641 -66.2782C-222.641 -67.0365 -222.842 -67.7508 -223.181 -68.4133L-199.863 -73.274L-201.925 -73.8048L-223.736 -69.2553C-224.384 -70.0814 -225.284 -70.7638 -226.358 -71.2547L-218.647 -78.1188L-219.881 -78.438L-227.479 -71.6777C-228.296 -71.9172 -229.17 -72.0648 -230.095 -72.0648C-231.864 -72.0648 -233.473 -71.566 -234.748 -70.7638L-250.216 -86.2679L-252.257 -86.7946L-235.621 -70.1253C-236.804 -69.0997 -237.544 -67.7628 -237.544 -66.2782H-237.549V-66.2742ZM-230.178 -60.4957L-219.274 -28.9808C-220.272 -28.7174 -221.171 -28.3064 -221.911 -27.7516L-246.859 -42.3338L-253.706 -46.3365C-253.105 -47.1227 -252.735 -48.0326 -252.735 -49.0183C-252.735 -50.2794 -253.331 -51.4207 -254.282 -52.3306L-239.631 -61.5811L-236.598 -63.4967C-235.339 -61.7328 -232.959 -60.5276 -230.183 -60.5036V-60.4957H-230.178Z" fill="#F13F67"/>
<path d="M468.829 14.7218L433.888 22.7711C432.984 21.3264 431.323 20.237 429.293 19.802L440.309 -21.602C441.203 -21.6618 441.964 -22.013 442.478 -22.5398L467.678 -7.80598L489.484 4.94444L490.584 4.42564L475.466 -4.41385L442.998 -23.3978C443.054 -23.5814 443.142 -23.753 443.142 -23.9485C443.142 -24.1441 443.054 -24.3237 442.998 -24.5112L519.177 -44.7044L518.4 -45.4826L442.483 -25.3612C441.928 -25.9359 441.09 -26.327 440.098 -26.335L417.649 -73.1304L416.467 -72.9349L438.906 -26.1594C437.785 -25.8042 436.988 -24.9542 436.988 -23.9525C436.988 -23.8966 437.024 -23.8488 437.029 -23.7929L366.104 -2.31471L336.078 6.77618C335.445 5.91418 334.489 5.21581 333.312 4.81274L366.017 -86.4356L365.194 -87.6168L332.171 4.51743C331.754 4.4456 331.328 4.4017 330.881 4.4017C330.819 4.4017 330.757 4.41367 330.695 4.41766L292.012 -134.58L290.768 -134.644L329.503 4.53738C326.861 5.02026 324.887 6.85201 324.887 9.0549C324.887 9.2305 324.928 9.39412 324.953 9.56174L87.0504 59.1626C86.2588 57.718 84.768 56.5607 82.902 55.9541L173.937 -143.994L173.176 -145.107L114.285 -15.7595L81.7607 55.6787C81.1542 55.563 80.5322 55.4792 79.8793 55.4792C75.849 55.4792 72.5745 57.8617 72.1632 60.9066L63.3008 61.178L65.7323 62.032L72.1221 61.8364C72.1324 61.9801 72.1529 62.1198 72.1786 62.2635L68.5391 63.0217L70.256 63.6243L72.41 63.1733C72.6104 63.7241 72.9292 64.2229 73.3044 64.6978L81.2158 67.4834C82.3468 67.3277 83.3903 66.9925 84.3002 66.5056L87.2715 69.6144L89.518 70.4046L85.2255 65.915C86.2177 65.1847 86.9425 64.2548 87.3332 63.2053L258.043 99.7924C257.904 100.255 257.812 100.73 257.812 101.225L185.936 104.94L188.177 105.755L257.93 102.147C258.495 105.244 261.888 107.63 266.032 107.63C270.571 107.63 274.251 104.773 274.251 101.249C274.251 99.2097 272.997 97.4179 271.085 96.2486L328.727 13.3769C329.4 13.5804 330.12 13.7001 330.886 13.7001C333.728 13.7001 336.093 12.1597 336.71 10.1005L420.245 24.0401C420.142 24.4193 420.081 24.8143 420.081 25.2174C420.081 28.3382 423.34 30.8683 427.36 30.8683C431.38 30.8683 434.639 28.3382 434.639 25.2174C434.639 24.6627 434.505 24.1399 434.315 23.6371L464.84 16.6054L468.829 14.7178V14.7218ZM270.088 95.7378C268.885 95.207 267.517 94.8758 266.032 94.8758C262.562 94.8758 259.611 96.5479 258.403 98.9104L87.5799 62.2994C87.6211 62.0479 87.6776 61.7965 87.6776 61.5371C87.6776 61.0223 87.5697 60.5315 87.4154 60.0566L325.205 10.4756C325.637 11.5092 326.501 12.3912 327.657 12.9658L270.088 95.7378ZM427.36 19.5745C424.281 19.5745 421.664 21.063 420.6 23.1582L336.859 9.1826C336.859 9.1387 336.875 9.0988 336.875 9.0589C336.875 8.55606 336.746 8.08514 336.556 7.6302L437.338 -22.891C437.703 -22.3283 438.33 -21.9093 439.111 -21.7137L428.11 19.6304C427.858 19.6104 427.617 19.5705 427.36 19.5705V19.5745Z" fill="#F13F67"/>
<path d="M134.422 -187.378L133.296 -187.765L7.19627 -58.6043L-72.1133 22.6312L-70.5968 22.6192L80.5787 -132.23L134.422 -187.378Z" fill="#F13F67"/>
</g>
<mask id="mask0_5285_2157" style="mask-type:luminance" maskUnits="userSpaceOnUse" x="-316" y="-100" width="825" height="305">
<path d="M-316 -8.47427L-190.548 26.3561L-145.624 -43.3046L18.5262 -99.8491L114.625 -72.6099L168.566 -7.53033L200.566 -35.2217L300.644 -30.9409L346.076 23.0787L413.917 13.7151L463.057 23.0787L508.931 60.5527L382.251 110.78L285.129 204.198L12.5476 123.111L-86.8464 96.5845L-316 98.3338V-8.47427Z" fill="white"/>
</mask>
<g mask="url(#mask0_5285_2157)">
<path opacity="0.6" d="M535.046 37.6341C535.046 37.6044 535.031 37.578 535.021 37.5483C535.01 37.4988 534.995 37.4526 534.954 37.4097C534.943 37.3997 534.953 37.3899 534.938 37.38C534.918 37.3634 534.882 37.3568 534.861 37.3436C534.825 37.3205 534.805 37.2908 534.763 37.2743L359.504 -31.3401C359.571 -31.5514 359.607 -31.7725 359.607 -31.9969C359.607 -33.7957 357.34 -35.2513 354.538 -35.2513C353.927 -35.2513 353.351 -35.172 352.806 -35.0433L214.924 -166.414C215.572 -166.902 215.978 -167.526 215.978 -168.219C215.978 -169.764 214.024 -171.018 211.619 -171.018C209.213 -171.018 207.259 -169.764 207.259 -168.219C207.259 -167.902 207.357 -167.602 207.511 -167.318L-47.1143 -90.6868C-48.3428 -91.8056 -50.3632 -92.5416 -52.6559 -92.5416C-56.4034 -92.5416 -59.4415 -90.591 -59.4415 -88.185C-59.4415 -87.8186 -59.3489 -87.4721 -59.2205 -87.1321L-239.852 -34.5549C-240.618 -35.7628 -242.458 -36.6144 -244.617 -36.6144C-247.46 -36.6144 -249.768 -35.1357 -249.768 -33.3073C-249.768 -32.8485 -249.624 -32.4128 -249.362 -32.0168L-318.329 -15.0191C-319.326 -16.3789 -321.464 -17.3261 -323.963 -17.3261C-327.155 -17.3261 -329.756 -15.7848 -330.126 -13.8012L-656.196 -16.2667H-656.201C-656.201 -16.2667 -656.242 -16.2535 -656.268 -16.2502C-656.309 -16.2502 -656.35 -16.2502 -656.397 -16.2502C-656.397 -16.2502 -656.407 -16.2436 -656.417 -16.2403C-656.458 -16.2304 -656.489 -16.2106 -656.52 -16.1974C-656.551 -16.1842 -656.577 -16.1776 -656.607 -16.1611C-656.638 -16.1413 -656.664 -16.1215 -656.684 -16.1017C-656.695 -16.0918 -656.71 -16.0918 -656.72 -16.0818C-656.731 -16.0686 -656.72 -16.0521 -656.736 -16.0389C-656.756 -16.0125 -656.787 -15.9927 -656.798 -15.963L-708.266 137.821C-708.312 137.96 -708.24 138.102 -708.075 138.194C-707.962 138.26 -707.818 138.293 -707.669 138.293C-707.608 138.293 -707.541 138.287 -707.479 138.273L-480.849 89.9077C-479.796 92.0728 -476.68 93.6538 -472.964 93.6538C-471.838 93.6538 -470.769 93.5053 -469.792 93.2478L-412.094 182.725C-414.808 183.791 -416.643 185.695 -416.643 187.887C-416.643 191.237 -412.412 193.953 -407.195 193.953C-404.033 193.953 -401.252 192.947 -399.535 191.415L-180.853 266.819C-181.603 267.73 -182.071 268.753 -182.071 269.859C-182.071 273.469 -177.511 276.4 -171.882 276.4C-166.253 276.4 -161.694 273.473 -161.694 269.859C-161.694 268.931 -162.002 268.053 -162.547 267.251L-41.2591 232.926C-39.7786 234.998 -36.5349 236.447 -32.7514 236.447C-27.5748 236.447 -23.3749 233.751 -23.3749 230.427C-23.3749 228.127 -25.4105 226.15 -28.3664 225.137L40.9858 141.472C42.0088 141.782 43.1396 141.967 44.3477 141.967C46.0184 141.967 47.5657 141.63 48.8458 141.062L86.9481 174.038C85.704 174.698 84.8918 175.685 84.8918 176.8C84.8918 178.787 87.4005 180.395 90.49 180.395C93.5795 180.395 96.0881 178.784 96.0881 176.8C96.0881 176.718 96.0573 176.642 96.0522 176.563L225.375 171.031C225.951 173.635 229.4 175.642 233.615 175.642C238.232 175.642 241.974 173.239 241.974 170.275C241.974 168.562 240.699 167.054 238.751 166.07L297.359 96.3833C298.043 96.5517 298.778 96.654 299.554 96.654C302.443 96.654 304.849 95.3601 305.476 93.6273L390.41 105.351C390.302 105.671 390.245 106.001 390.245 106.341C390.245 108.965 393.556 111.094 397.642 111.094C401.729 111.094 405.04 108.968 405.04 106.341C405.04 105.876 404.901 105.437 404.711 105.011L468.568 92.8418C468.686 92.8187 468.784 92.7726 468.861 92.7098C468.861 92.7065 468.871 92.7098 468.876 92.7032L537.55 38.5219C537.55 38.5219 534.938 37.8057 534.948 37.7958C534.995 37.7463 535.041 37.6968 535.046 37.6407C535.046 37.6341 535.041 37.6308 535.046 37.6242V37.6308V37.6341ZM468.28 91.9342L446.55 81.4254L413.537 65.4608C413.594 65.3089 413.681 65.1604 413.681 64.9987C413.681 64.8369 413.594 64.6818 413.532 64.5267L532.723 38.3998L533.951 41.9446L468.28 91.9342ZM293.462 92.756C293.462 92.9012 293.504 93.0399 293.529 93.1818L51.6423 134.894C50.8352 133.679 49.3187 132.706 47.4269 132.194L211.284 -165.44C211.397 -165.434 211.505 -165.417 211.619 -165.417C211.932 -165.417 212.241 -165.44 212.539 -165.483L298.156 88.9604C295.467 89.3664 293.462 90.9077 293.462 92.756ZM-171.389 263.353L-171.893 235.626L-172.962 176.84C-170.695 176.589 -168.963 175.332 -168.963 173.804C-168.963 173.784 -168.973 173.767 -168.973 173.747L36.7551 138.27C37.0224 138.874 37.449 139.432 38.0197 139.92L-165.323 264.898C-166.978 263.994 -169.07 263.426 -171.389 263.353ZM-242.648 -30.2543L-208.479 14.3522C-209.28 14.6163 -209.959 15.009 -210.432 15.4975L-239.399 7.89641C-239.219 7.59605 -239.111 7.27263 -239.111 6.92938C-239.111 5.52995 -240.757 4.38797 -242.869 4.22295L-243.363 -30.1156C-243.121 -30.1553 -242.88 -30.1982 -242.648 -30.2576V-30.2543ZM-209.157 19.7255L-254.281 61.015C-255.253 60.7014 -256.338 60.51 -257.505 60.51C-257.895 60.51 -258.271 60.5463 -258.646 60.5826L-269.678 34.2049C-266.038 33.8484 -263.247 31.8483 -263.247 29.4125C-263.247 28.7755 -263.447 28.1715 -263.797 27.617L-210.756 18.4713C-210.401 18.9763 -209.851 19.4053 -209.162 19.7288L-209.157 19.7255ZM-294.826 46.1791C-294.214 45.5157 -293.839 44.7533 -293.839 43.9249C-293.839 42.8654 -294.44 41.905 -295.412 41.1425L-280.514 33.3632L-277.43 31.7526C-276.15 33.2345 -273.728 34.2511 -270.906 34.2709L-259.818 60.7707C-260.831 60.9919 -261.746 61.3384 -262.501 61.8038L-287.865 49.5424L-294.826 46.1758V46.1791ZM-264.352 26.9008C-265.01 26.2044 -265.925 25.6301 -267.02 25.2208L-245.419 9.31894C-244.807 9.53348 -244.118 9.66881 -243.373 9.66881C-241.99 9.66881 -240.772 9.23975 -239.996 8.58293L-210.931 16.2104C-211.08 16.5141 -211.188 16.8342 -211.188 17.1709C-211.188 17.359 -211.152 17.5405 -211.1 17.7187L-264.352 26.9008ZM-320.236 -10.1211L-276.443 26.1714C-277.646 27.0328 -278.401 28.1583 -278.401 29.4092C-278.401 29.9769 -278.221 30.5116 -277.944 31.0166L-296.26 40.5781C-297.468 39.9114 -299.02 39.4923 -300.742 39.4923C-301.2 39.4923 -301.647 39.5253 -302.079 39.5781L-321.315 -9.70193C-320.93 -9.81746 -320.57 -9.95938 -320.236 -10.1211ZM-356.708 54.4997C-356.693 54.3842 -356.652 54.272 -356.652 54.1532C-356.652 53.9683 -356.698 53.7934 -356.734 53.6152L-307.364 45.1032C-306.557 46.9745 -303.909 48.3575 -300.737 48.3575C-298.65 48.3575 -296.8 47.7502 -295.535 46.8095L-263.293 62.3946C-263.72 62.7642 -264.054 63.1768 -264.301 63.6224L-317.629 58.3547L-356.708 54.4964V54.4997ZM-250.339 65.6522C-250.313 65.4872 -250.262 65.3254 -250.262 65.1538C-250.262 63.6158 -251.439 62.2625 -253.233 61.4176L-248.956 57.5032L-208.093 20.1116C-207.522 20.2601 -206.895 20.346 -206.242 20.346C-205.805 20.346 -205.389 20.2965 -204.988 20.2305L-182.256 74.5768C-184.729 74.9596 -186.734 76.0917 -187.659 77.5835L-226.527 70.1838L-250.344 65.6489H-250.339V65.6522ZM209.855 -165.658C209.927 -165.638 210.004 -165.622 210.081 -165.605L79.3348 71.8935L46.2652 131.963C45.6483 131.864 45.016 131.798 44.3528 131.798C40.2558 131.798 36.9246 133.801 36.5082 136.363L-146.662 141.02C-146.734 139.878 -147.531 138.868 -148.77 138.155L45.0623 -26.0494L209.86 -165.658H209.855ZM-180.416 84.4453C-179.645 84.4453 -178.92 84.3529 -178.216 84.2176L-155.89 137.58C-157.494 138.118 -158.692 139.069 -159.123 140.227L-335.467 109.962C-335.359 109.536 -335.262 109.104 -335.262 108.658C-335.262 108.034 -335.395 107.433 -335.606 106.853L-187.628 81.3362C-186.461 83.1614 -183.675 84.4453 -180.411 84.4453H-180.416ZM-335.735 110.727L-159.293 141.01C-159.293 141.066 -159.319 141.119 -159.319 141.178C-159.319 142.68 -158.034 143.977 -156.147 144.683L-172.268 170.883C-172.746 170.78 -173.245 170.711 -173.774 170.711C-175.455 170.711 -176.93 171.265 -177.794 172.107L-336.382 111.949C-336.11 111.559 -335.909 111.147 -335.735 110.727ZM-169.163 172.969C-169.482 172.236 -170.196 171.615 -171.163 171.209L-155.042 145.007C-154.394 145.152 -153.705 145.244 -152.98 145.244C-149.814 145.244 -147.213 143.749 -146.74 141.798L36.462 137.141C36.4723 137.264 36.498 137.382 36.5186 137.501L-154.008 170.355L-169.163 172.969ZM206.637 -164.222L-29.5539 35.8617L-149.757 137.689C-150.703 137.326 -151.798 137.105 -152.98 137.105C-153.602 137.105 -154.188 137.181 -154.754 137.287L-177.069 83.9436C-174.442 83.1383 -172.607 81.4286 -172.607 79.4351C-172.607 78.3724 -173.126 77.3921 -174.005 76.5835L54.1458 -67.7548L206.632 -164.222H206.637ZM-257.5 69.8009C-254.194 69.8009 -251.434 68.3685 -250.57 66.4245L-192.861 77.4119L-188.019 78.3328C-188.142 78.6892 -188.224 79.0556 -188.224 79.4351C-188.224 79.8345 -188.132 80.2174 -187.998 80.5903L-335.976 106.107C-336.326 105.437 -336.768 104.793 -337.369 104.212L-263.242 67.9592C-261.92 69.0715 -259.854 69.8009 -257.505 69.8009H-257.5ZM-174.787 75.9762C-176.206 75.0224 -178.2 74.4217 -180.416 74.4217C-180.627 74.4217 -180.827 74.4514 -181.038 74.4613L-203.847 19.9334C-202.33 19.3921 -201.292 18.3624 -201.292 17.1676C-201.292 16.7187 -201.441 16.2929 -201.703 15.9068L206.781 -165.414L-174.787 75.9762ZM-247.588 6.60921C-247.609 6.71483 -247.64 6.82047 -247.64 6.92938C-247.64 7.67859 -247.167 8.35849 -246.406 8.85356L-268.156 24.8677C-268.989 24.6664 -269.878 24.5442 -270.819 24.5442C-272.618 24.5442 -274.253 24.9634 -275.548 25.6367L-319.331 -10.6492C-318.92 -10.9429 -318.575 -11.2697 -318.313 -11.6328L-306.263 -8.52367L-247.588 6.60921ZM-325.047 -9.38179C-324.693 -9.34218 -324.333 -9.31248 -323.958 -9.31248C-323.438 -9.31248 -322.945 -9.3653 -322.467 -9.44121L-321.115 -5.97896L-303.241 39.7992C-305.816 40.4428 -307.641 42.0403 -307.641 43.9216C-307.641 44.0602 -307.595 44.1922 -307.579 44.3275L-357.032 52.8561C-357.593 51.9022 -358.744 51.1332 -360.214 50.7504L-332.1 2.68491L-325.042 -9.3851H-325.047V-9.38179ZM-368.008 53.4832C-368.069 53.701 -368.115 53.9254 -368.115 54.1532C-368.115 54.5657 -367.987 54.9552 -367.792 55.3282L-466.122 85.3233C-467.617 83.9206 -470.126 82.9997 -472.974 82.9997C-474.922 82.9997 -476.696 83.4486 -478.109 84.1714L-653.328 -14.7682L-368.008 53.4832ZM-465.17 86.5577C-465.273 86.3695 -465.392 86.188 -465.525 86.0098L-367.278 56.0411C-366.275 57.1104 -364.466 57.8366 -362.384 57.8366C-359.829 57.8366 -357.685 56.754 -356.95 55.2688L-264.614 64.3881C-264.671 64.6092 -264.712 64.8337 -264.722 65.0647L-286.914 67.4444L-465.176 86.561H-465.17V86.5577ZM-339.436 114.615C-338.454 114.044 -337.626 113.378 -336.963 112.635L-320.148 119.012L-178.313 172.813C-178.478 173.124 -178.586 173.454 -178.586 173.8C-178.586 175.418 -176.643 176.731 -174.175 176.863L-173.455 216.288L-172.597 263.366C-174.144 263.436 -175.589 263.726 -176.869 264.192L-331.961 121.494L-339.436 114.615ZM304.828 90.8384C304.186 90.1123 303.214 89.5281 302.016 89.1849L353.181 -28.8747C353.613 -28.7988 354.06 -28.7426 354.533 -28.7426C355.042 -28.7426 355.52 -28.8053 355.983 -28.8945L372.309 -0.744324L409.368 63.1438C408.227 63.4441 407.42 64.157 407.42 64.9987C407.42 65.0449 407.456 65.0845 407.461 65.1307L335.348 83.1911L304.823 90.8384H304.828ZM-326.225 -9.59303L-361.397 50.5391C-361.721 50.5028 -362.044 50.4764 -362.384 50.4764C-364.764 50.4764 -366.799 51.4072 -367.668 52.7307L-652.716 -15.458L-330.157 -13.019C-329.972 -11.4512 -328.409 -10.1409 -326.225 -9.59303ZM-464.718 88.6601C-464.708 88.5479 -464.667 88.4423 -464.667 88.3268C-464.667 87.9769 -464.728 87.6402 -464.826 87.3102L-419.835 82.4848L-264.63 65.8403C-264.506 66.3585 -264.254 66.8437 -263.889 67.2926L-275.666 73.0519L-338.13 103.598C-340.428 101.786 -343.888 100.605 -347.815 100.605C-353.239 100.605 -357.814 102.829 -359.561 105.922L-440.444 92.6438L-464.718 88.6601ZM533.021 37.5087L529.355 38.3107L413.013 63.8138C412.447 63.3319 411.599 63.0019 410.586 62.9953L357.103 -29.2047C357.962 -29.5315 358.651 -30.0067 359.083 -30.5876L533.016 37.5054H533.021V37.5087ZM352.05 -29.175L300.86 88.9406C300.438 88.8812 300.001 88.8449 299.549 88.8449C299.487 88.8449 299.426 88.8548 299.364 88.8581L253.458 -47.5688L213.685 -165.767C213.793 -165.807 213.911 -165.836 214.014 -165.882L351.706 -34.6935C350.359 -34.1093 349.47 -33.1191 349.47 -31.9936C349.47 -30.7791 350.518 -29.7328 352.05 -29.175ZM205.871 -165.958L-201.292 14.778L-56.3263 -84.5247C-55.2673 -84.0857 -54.0079 -83.825 -52.6559 -83.825C-48.9083 -83.825 -45.8702 -85.7756 -45.8702 -88.1817C-45.8702 -88.8352 -46.1119 -89.4491 -46.5128 -90.0036L205.866 -165.958H205.871ZM-58.8246 -86.3862C-58.4545 -85.8647 -57.9302 -85.3993 -57.2824 -85.0099L-202.983 14.7945C-203.857 14.3027 -204.983 13.9925 -206.237 13.9925C-206.612 13.9925 -206.977 14.0255 -207.327 14.075L-241.589 -30.647C-240.309 -31.2477 -239.466 -32.2115 -239.466 -33.3106C-239.466 -33.4756 -239.507 -33.6307 -239.543 -33.7891L-58.8246 -86.3862ZM-248.73 -31.3335C-247.789 -30.5282 -246.308 -30.0001 -244.617 -30.0001H-244.576L-244.082 4.24275C-245.527 4.39787 -246.725 5.01176 -247.285 5.8501L-317.912 -12.3721C-317.794 -12.679 -317.717 -12.9926 -317.717 -13.3193C-317.717 -13.6461 -317.799 -13.9728 -317.917 -14.2831L-248.724 -31.3335H-248.73ZM-706.852 137.323L-655.826 -15.1412L-479.014 84.6995C-480.402 85.6533 -481.266 86.924 -481.266 88.33C-481.266 88.6106 -481.204 88.8812 -481.137 89.1519L-706.852 137.323ZM-468.712 92.8847C-466.774 92.1355 -465.34 90.9111 -464.852 89.4456L-393.382 101.179L-359.916 106.674C-360.168 107.315 -360.348 107.971 -360.348 108.661C-360.348 111.83 -357.469 114.546 -353.326 115.86L-404.162 182.174C-405.118 181.966 -406.125 181.827 -407.189 181.827C-408.557 181.827 -409.842 182.022 -411.014 182.355L-468.707 92.8847H-468.712ZM-398.908 190.748C-398.188 189.894 -397.746 188.93 -397.746 187.89C-397.746 185.504 -399.915 183.458 -403.036 182.467L-355.038 119.857L-352.21 116.17C-350.838 116.503 -349.362 116.708 -347.805 116.708C-345.014 116.708 -342.459 116.101 -340.372 115.11L-177.902 264.607C-178.807 265.036 -179.604 265.545 -180.246 266.139L-398.903 190.745L-398.908 190.748ZM-29.4717 224.813C-30.4946 224.566 -31.5947 224.414 -32.7514 224.414C-37.928 224.414 -42.1279 227.11 -42.1279 230.434C-42.1279 231.051 -41.9428 231.635 -41.6703 232.196L-163.128 266.568C-163.503 266.159 -163.93 265.779 -164.429 265.433L38.8113 140.518C39.1557 140.732 39.5207 140.934 39.9216 141.105L-29.4665 224.813H-29.4717ZM90.49 173.216C89.575 173.216 88.7268 173.371 87.9659 173.619L49.7814 140.574C50.7889 139.96 51.524 139.178 51.925 138.297L225.493 169.061C225.349 169.45 225.262 169.85 225.257 170.265L95.8362 175.8C95.1525 174.312 93.0294 173.216 90.49 173.216ZM237.738 165.645C236.52 165.196 235.121 164.922 233.615 164.922C230.089 164.922 227.087 166.328 225.858 168.315L52.1718 137.528C52.2129 137.316 52.2746 137.105 52.2746 136.887C52.2746 136.455 52.1666 136.042 52.0073 135.643L293.781 93.9508C294.218 94.8222 295.097 95.5615 296.274 96.0434L237.738 165.645ZM305.625 92.8617C305.625 92.8253 305.641 92.7923 305.641 92.756C305.641 92.3336 305.512 91.9375 305.317 91.5547L407.785 65.8898C408.155 66.3618 408.797 66.715 409.589 66.88L398.403 101.648C398.146 101.631 397.899 101.598 397.637 101.598C394.507 101.598 391.849 102.849 390.764 104.611L305.625 92.8617ZM404.279 104.288C403.359 103.073 401.667 102.156 399.606 101.79L410.807 66.9724C411.717 66.9229 412.488 66.6291 413.013 66.1836L438.639 78.5737L467.067 92.3204L404.279 104.285V104.288Z" fill="white"/>
</g>
</g>
<defs>
<clipPath id="clip0_5285_2157">
<rect width="987" height="431" fill="white" transform="translate(-282 -214)"/>
</clipPath>
</defs>
</svg>
