<svg width="32" height="32" viewBox="0 0 32 32" fill="none" xmlns="http://www.w3.org/2000/svg">
<g clip-path="url(#clip0_3882_66327)">
<path d="M20.6875 28.612H22.862C24.3005 28.612 25.4976 27.5593 25.7237 26.1838" stroke="#FAFAFA" stroke-miterlimit="10" stroke-linecap="round" stroke-linejoin="round"/>
<path d="M27.1538 26.8774C26.6405 28.7659 24.9109 30.1587 22.862 30.1587H20.6875" stroke="#FAFAFA" stroke-miterlimit="10" stroke-linecap="round" stroke-linejoin="round"/>
<path d="M5.54339 11.1589C5.26057 12.127 5.10889 13.1505 5.10889 14.2087V15.5621" stroke="#FAFAFA" stroke-miterlimit="10" stroke-linecap="round" stroke-linejoin="round"/>
<path d="M26.8914 15.562V14.2086C26.8914 13.1513 26.7399 12.1286 26.4575 11.1611" stroke="#FAFAFA" stroke-miterlimit="10" stroke-linecap="round" stroke-linejoin="round"/>
<path d="M28.2798 10.5056C28.6342 11.6785 28.8247 12.9218 28.8247 14.2087V15.5621" stroke="#FAFAFA" stroke-miterlimit="10" stroke-linecap="round" stroke-linejoin="round"/>
<path d="M3.17554 15.562V14.2087C3.17554 12.925 3.3651 11.6847 3.71779 10.5144" stroke="#FAFAFA" stroke-miterlimit="10" stroke-linecap="round" stroke-linejoin="round"/>
<path d="M12.116 4.72262C9.65479 5.72812 7.63254 7.67493 6.5551 10.2274C6.29542 10.8426 5.69835 11.2124 5.0701 11.2124C4.86117 11.2124 4.64885 11.1716 4.44423 11.0852C3.62448 10.7391 3.24042 9.79406 3.58648 8.97431C5.69804 3.972 10.5707 0.739746 16.0001 0.739746C21.4252 0.739746 26.2965 3.96856 28.41 8.9655C28.7565 9.785 28.3732 10.7303 27.5537 11.0769C26.734 11.4236 25.7888 11.0402 25.4422 10.2207C23.8342 6.41868 20.1279 3.962 16.0001 3.962C15.3874 3.962 14.784 4.01612 14.1955 4.12068" stroke="#FAFAFA" stroke-miterlimit="10" stroke-linecap="round" stroke-linejoin="round"/>
<path d="M26.8911 19.1117V15.5619C26.8911 15.028 27.3239 14.5952 27.8578 14.5952C28.3917 14.5952 28.8245 15.028 28.8245 15.5619V26.1953C28.8245 26.7292 28.3917 27.162 27.8578 27.162C27.3239 27.162 26.8911 26.7292 26.8911 26.1953V21.2992" stroke="#FAFAFA" stroke-miterlimit="10" stroke-linecap="round" stroke-linejoin="round"/>
<path d="M28.8245 15.8843C30.3193 15.8843 31.5312 17.0961 31.5312 18.591V23.1666C31.5312 24.6615 30.3193 25.8733 28.8245 25.8733" stroke="#FAFAFA" stroke-miterlimit="10" stroke-linecap="round" stroke-linejoin="round"/>
<path d="M3.17554 17.6562V15.5619C3.17554 15.028 3.60835 14.5952 4.14222 14.5952C4.6761 14.5952 5.10891 15.028 5.10891 15.5619V26.1953C5.10891 26.7292 4.6761 27.162 4.14222 27.162C3.60835 27.162 3.17554 26.7292 3.17554 26.1953V19.8437" stroke="#FAFAFA" stroke-miterlimit="10" stroke-linecap="round" stroke-linejoin="round"/>
<path d="M3.17544 25.873C1.68056 25.873 0.46875 24.6612 0.46875 23.1663V18.5907C0.46875 17.0958 1.68056 15.884 3.17544 15.884" stroke="#FAFAFA" stroke-miterlimit="10" stroke-linecap="round" stroke-linejoin="round"/>
<path d="M5.10889 26.1953H5.91114C7.24764 26.1953 8.33114 25.1118 8.33114 23.7753C8.33114 23.5213 8.29114 23.2688 8.21264 23.0273C8.01364 22.4149 7.91226 21.775 7.91226 21.1311V20.626C7.91226 19.982 8.01364 19.3421 8.21264 18.7298C8.29114 18.4882 8.33114 18.2358 8.33114 17.9818C8.33114 16.6453 7.2477 15.5618 5.91114 15.5618H5.10889" stroke="#FAFAFA" stroke-miterlimit="10" stroke-linecap="round" stroke-linejoin="round"/>
<path d="M26.8912 15.562H26.0889C24.7524 15.562 23.6689 16.6454 23.6689 17.982C23.6689 18.236 23.7089 18.4884 23.7874 18.73C23.9864 19.3424 24.0878 19.9823 24.0878 20.6262V21.1313C24.0878 21.7753 23.9864 22.4151 23.7874 23.0275C23.7089 23.2691 23.6689 23.5215 23.6689 23.7755C23.6689 25.112 24.7524 26.1955 26.0889 26.1955H26.8912" stroke="#FAFAFA" stroke-miterlimit="10" stroke-linecap="round" stroke-linejoin="round"/>
<path d="M17.0478 27.5105H18.9583C19.9938 27.5105 20.8333 28.3499 20.8333 29.3855C20.8333 30.4211 19.9938 31.2605 18.9583 31.2605H13.0415C12.0059 31.2605 11.1665 30.4211 11.1665 29.3855C11.1665 28.3499 12.0059 27.5105 13.0415 27.5105H14.8603" stroke="#FAFAFA" stroke-miterlimit="10" stroke-linecap="round" stroke-linejoin="round"/>
<path d="M16.0001 16.2665C17.5625 16.2665 18.829 15 18.829 13.4376C18.829 11.8752 17.5625 10.6086 16.0001 10.6086C14.4377 10.6086 13.1711 11.8752 13.1711 13.4376C13.1711 15 14.4377 16.2665 16.0001 16.2665Z" stroke="#FAFAFA" stroke-miterlimit="10" stroke-linecap="round" stroke-linejoin="round"/>
<path d="M21.159 14.6752L22.7188 14.3216V12.5535L21.159 12.1999H21.1576C21.0262 11.6502 20.8102 11.1337 20.5225 10.6654L20.523 10.6649L21.3761 9.31175L20.1258 8.0615L18.7727 8.91456L18.7722 8.91506C18.3039 8.62738 17.7873 8.41138 17.2377 8.27994V8.27875L16.8841 6.71875H15.116L14.7624 8.27875V8.27994C14.2128 8.41138 13.6962 8.62738 13.2279 8.91506L13.2273 8.9145L11.8743 8.06156L10.624 9.31181L11.4769 10.6648L11.4776 10.6654C11.1899 11.1337 10.9739 11.6503 10.8424 12.1999H10.8411L9.28125 12.5536V14.3216L10.8411 14.6752H10.8424C10.9738 15.2249 11.1898 15.7414 11.4775 16.2097L11.4768 16.2104L10.6239 17.5634L11.8742 18.8136L13.2271 17.9607L13.2278 17.9601C13.6961 18.2478 14.2127 18.4638 14.7623 18.5952V18.5967L15.1159 20.1564H16.884L17.2376 18.5967V18.5952C17.7873 18.4638 18.3038 18.2478 18.7721 17.9601L18.7728 17.9607L20.1257 18.8137L21.376 17.5634L20.5231 16.2104L20.5225 16.2098C20.8102 15.7415 21.0262 15.2249 21.1576 14.6753H21.159V14.6752Z" stroke="#FAFAFA" stroke-miterlimit="10" stroke-linecap="round" stroke-linejoin="round"/>
</g>
<defs>
<clipPath id="clip0_3882_66327">
<rect width="32" height="32" fill="white"/>
</clipPath>
</defs>
</svg>
