<svg width="16" height="16" viewBox="0 0 16 16" fill="none" xmlns="http://www.w3.org/2000/svg">
<path d="M1.33325 7.99984C1.33325 5.48584 1.33325 4.2285 2.11459 3.44784C2.89592 2.66717 4.15259 2.6665 6.66658 2.6665H9.33325C11.8473 2.6665 13.1046 2.6665 13.8853 3.44784C14.6659 4.22917 14.6666 5.48584 14.6666 7.99984V9.33317C14.6666 11.8472 14.6666 13.1045 13.8853 13.8852C13.1039 14.6658 11.8473 14.6665 9.33325 14.6665H6.66658C4.15259 14.6665 2.89525 14.6665 2.11459 13.8852C1.33392 13.1038 1.33325 11.8472 1.33325 9.33317V7.99984Z" stroke="#898384"/>
<path d="M4.6665 2.6665V1.6665M11.3332 2.6665V1.6665" stroke="#898384" stroke-linecap="round"/>
<path d="M6 9.6665L7 8.6665V11.3332" stroke="#898384" stroke-linecap="round" stroke-linejoin="round"/>
<path d="M1.6665 6H14.3332M8.6665 10.6667V9.33333C8.6665 9.15652 8.73674 8.98695 8.86177 8.86193C8.98679 8.7369 9.15636 8.66667 9.33317 8.66667C9.50998 8.66667 9.67955 8.7369 9.80458 8.86193C9.9296 8.98695 9.99984 9.15652 9.99984 9.33333V10.6667C9.99984 10.8435 9.9296 11.013 9.80458 11.1381C9.67955 11.2631 9.50998 11.3333 9.33317 11.3333C9.15636 11.3333 8.98679 11.2631 8.86177 11.1381C8.73674 11.013 8.6665 10.8435 8.6665 10.6667Z" stroke="#898384" stroke-linecap="round"/>
</svg>
