<svg width="12" height="12" viewBox="0 0 12 12" fill="none" xmlns="http://www.w3.org/2000/svg">
<path d="M6.00001 7.16683L1.91668 11.2502C1.7639 11.4029 1.56945 11.4793 1.33334 11.4793C1.09723 11.4793 0.902788 11.4029 0.75001 11.2502C0.597232 11.0974 0.520844 10.9029 0.520844 10.6668C0.520844 10.4307 0.597232 10.2363 0.75001 10.0835L4.83334 6.00016L0.75001 1.91683C0.597232 1.76405 0.520844 1.56961 0.520844 1.3335C0.520844 1.09738 0.597232 0.90294 0.75001 0.750162C0.902788 0.597385 1.09723 0.520996 1.33334 0.520996C1.56945 0.520996 1.7639 0.597385 1.91668 0.750162L6.00001 4.8335L10.0833 0.750162C10.2361 0.597385 10.4306 0.520996 10.6667 0.520996C10.9028 0.520996 11.0972 0.597385 11.25 0.750162C11.4028 0.90294 11.4792 1.09738 11.4792 1.3335C11.4792 1.56961 11.4028 1.76405 11.25 1.91683L7.16668 6.00016L11.25 10.0835C11.4028 10.2363 11.4792 10.4307 11.4792 10.6668C11.4792 10.9029 11.4028 11.0974 11.25 11.2502C11.0972 11.4029 10.9028 11.4793 10.6667 11.4793C10.4306 11.4793 10.2361 11.4029 10.0833 11.2502L6.00001 7.16683Z" fill="#FA0000"/>
</svg>
