<svg width="22" height="24" viewBox="0 0 22 24" fill="none" xmlns="http://www.w3.org/2000/svg">
<path d="M12.7716 4.23535H9.08203C8.88783 4.23535 8.73047 4.39271 8.73047 4.58691C8.73047 4.78112 8.88783 4.93848 9.08203 4.93848H12.7716C12.9658 4.93848 13.1231 4.78112 13.1231 4.58691C13.1231 4.39271 12.9658 4.23535 12.7716 4.23535Z" fill="#5A5555"/>
<path d="M4.95339 8.3137C5.02136 8.37806 5.10826 8.40998 5.19503 8.40998C5.28822 8.40998 5.38126 8.37314 5.45036 8.30011C5.58386 8.15911 5.57776 7.93659 5.43676 7.80309L4.63904 7.0478L5.43676 6.2925C5.57776 6.159 5.58386 5.93648 5.45036 5.79548C5.31676 5.65439 5.09429 5.6483 4.95334 5.78189L4.12769 6.56362L3.30203 5.78189C3.16103 5.64839 2.93851 5.65444 2.80501 5.79548C2.67151 5.93648 2.67761 6.159 2.81861 6.2925L3.61633 7.0478L2.81861 7.80309C2.67761 7.93659 2.67151 8.15911 2.80501 8.30011C2.8742 8.37314 2.96715 8.40998 3.06034 8.40998C3.14711 8.40998 3.23401 8.37806 3.30198 8.3137L4.12764 7.53197L4.95339 8.3137Z" fill="#5A5555"/>
<path d="M17.8888 17.4964C17.2093 17.4815 16.629 17.975 16.5352 18.6439C16.5263 18.7034 16.522 18.7651 16.522 18.8325C16.522 19.0267 16.6793 19.184 16.8735 19.184C17.0677 19.184 17.2251 19.0267 17.2251 18.8325C17.2251 18.8003 17.227 18.7717 17.2307 18.7472C17.231 18.7457 17.2312 18.7441 17.2314 18.7425C17.2746 18.4305 17.5434 18.1992 17.8607 18.1992C17.8654 18.1992 17.87 18.1992 17.8747 18.1994C18.2052 18.2055 18.4778 18.4684 18.4954 18.7969C18.5043 18.973 18.4426 19.1401 18.3215 19.2675C18.2001 19.3952 18.0365 19.4655 17.8607 19.4655C17.6665 19.4655 17.5092 19.6229 17.5092 19.8171V20.4174C17.5092 20.6116 17.6665 20.769 17.8607 20.769C18.0549 20.769 18.2123 20.6116 18.2123 20.4174V20.1212C18.4463 20.0572 18.6618 19.9302 18.8311 19.752C19.0862 19.4836 19.2164 19.1318 19.1975 18.7604C19.1602 18.0646 18.5849 17.5094 17.8888 17.4964Z" fill="#5A5555"/>
<path d="M17.8608 21.3535C17.6666 21.3535 17.5093 21.5109 17.5093 21.7051V21.7611C17.5093 21.9553 17.6666 22.1127 17.8608 22.1127C18.055 22.1127 18.2124 21.9553 18.2124 21.7611V21.7051C18.2124 21.5109 18.055 21.3535 17.8608 21.3535Z" fill="#5A5555"/>
<path d="M21.7565 19.4123C21.5439 17.754 20.3115 16.4702 18.769 16.1066V2.57381C18.769 1.15458 17.6119 0 16.1895 0H5.66527C4.2429 0 3.08579 1.15458 3.08579 2.57377V3.23367C2.27199 3.45577 1.55513 3.9322 1.02985 4.6102C0.390194 5.43577 0.111007 6.46031 0.24371 7.49494C0.449585 9.10153 1.61162 10.3572 3.08583 10.7652V21.4262C3.08583 21.5198 3.09118 21.6123 3.10102 21.7034C3.10177 21.7121 3.10294 21.7206 3.1043 21.7291C3.25505 23.006 4.34569 24 5.66527 24H16.1895C16.5636 24 16.9223 23.921 17.2582 23.7662C17.4589 23.7983 17.6636 23.8158 17.8715 23.8158C18.036 23.8158 18.2024 23.805 18.3702 23.7839C20.511 23.5092 22.0302 21.5484 21.7565 19.4123ZM13.9572 0.703125L13.7416 1.47281H8.11215L7.89718 0.703125H13.9572ZM0.941116 7.40555C0.832366 6.55748 1.06126 5.71767 1.58565 5.04084C2.11037 4.36359 2.86801 3.9308 3.71898 3.82233C5.47613 3.59864 7.08859 4.84111 7.31415 6.59203C7.39955 7.2652 7.27491 7.93261 6.95368 8.52361C6.90798 8.59308 6.88805 8.67731 6.89879 8.76131L7.11094 10.4153L5.33298 10.0277C5.30827 10.0224 5.28319 10.0197 5.25807 10.0197C5.22099 10.0197 5.18391 10.0255 5.14838 10.0372C4.94494 10.104 4.73855 10.1511 4.53488 10.177C4.39712 10.1946 4.26043 10.2032 4.12501 10.2031C2.53374 10.2031 1.14802 9.02053 0.941116 7.40555ZM5.66527 23.2969C4.84079 23.2969 4.1393 22.7638 3.88815 22.0253H10.0375C10.2317 22.0253 10.3891 21.8679 10.3891 21.6737C10.3891 21.4795 10.2317 21.3222 10.0375 21.3222H3.78891V10.8912C4.06191 10.9148 4.34129 10.9106 4.6239 10.8745C4.84046 10.8469 5.0589 10.8 5.27457 10.7347L5.63316 10.8129V11.278C5.63316 12.1082 6.30994 12.7837 7.14193 12.7837H10.1157C10.3099 12.7837 10.4673 12.6263 10.4673 12.4321C10.4673 12.2379 10.3099 12.0806 10.1157 12.0806H7.14193C6.69769 12.0806 6.33629 11.7205 6.33629 11.278V10.9661L7.44816 11.2085C7.47301 11.2139 7.49809 11.2165 7.52307 11.2165C7.61012 11.2165 7.6951 11.1842 7.76059 11.1241C7.84487 11.0469 7.8863 10.9336 7.87177 10.8202L7.67401 9.27877H14.8993C15.3428 9.27877 15.7035 9.63881 15.7035 10.0814V11.2779C15.7035 11.7205 15.3428 12.0805 14.8993 12.0805H11.7911C11.5969 12.0805 11.4395 12.2379 11.4395 12.4321C11.4395 12.6263 11.5969 12.7837 11.7911 12.7837H14.8993C15.7304 12.7837 16.4066 12.1082 16.4066 11.2779V10.0814C16.4066 9.25111 15.7304 8.57564 14.8993 8.57564H7.71048C7.94874 8.03859 8.06082 7.45913 8.04066 6.8692H14.1603C14.3545 6.8692 14.5119 6.71184 14.5119 6.51764C14.5119 6.32344 14.3545 6.16608 14.1603 6.16608H7.95235C7.53605 4.26197 5.7533 2.93794 3.78891 3.1087V2.57377C3.78891 1.54228 4.63065 0.703125 5.66527 0.703125H7.1671L7.50666 1.91897C7.54909 2.07089 7.68751 2.17594 7.84529 2.17594H14.0082C14.1658 2.17594 14.3041 2.07103 14.3467 1.9192L14.6874 0.703125H16.1895C17.2241 0.703125 18.0659 1.54228 18.0659 2.57377V16.008C17.8392 15.997 17.6088 16.0043 17.376 16.0341C17.1543 16.0627 16.9359 16.1095 16.7249 16.1737L16.4066 16.1044V15.3122C16.4066 14.497 15.7429 13.8337 14.9268 13.8337H11.5513C10.7343 13.8337 10.0701 14.497 10.0701 15.3122V16.4798C10.0701 17.295 10.7343 17.9583 11.5513 17.9583H14.3685L14.3896 18.1233C14.0263 18.8264 13.888 19.612 13.9883 20.4047C14.0298 20.7259 14.1101 21.0328 14.2228 21.322H11.7116C11.5174 21.322 11.36 21.4794 11.36 21.6736C11.36 21.8678 11.5174 22.0252 11.7116 22.0252H14.5835C14.9255 22.5519 15.3892 22.9873 15.9297 23.2969H5.66527ZM14.1285 16.0884L14.278 17.2552H11.5513C11.1219 17.2552 10.7732 16.9073 10.7732 16.4798V15.3122C10.7732 14.8847 11.1219 14.5369 11.5513 14.5369H14.9268C15.3552 14.5369 15.7035 14.8847 15.7035 15.3122V15.9511L14.5518 15.7003C14.4407 15.6759 14.324 15.7073 14.2396 15.7847C14.1552 15.8616 14.114 15.975 14.1285 16.0884ZM18.2812 23.0864C16.5248 23.31 14.9118 22.0669 14.6859 20.3152C14.6005 19.643 14.7252 18.9759 15.0468 18.3848C15.0923 18.3155 15.1119 18.2311 15.1012 18.1472L14.8893 16.4934L16.6673 16.8811C16.7291 16.8942 16.7934 16.8909 16.8533 16.8708C17.0498 16.8052 17.2555 16.7583 17.4651 16.7316C19.2215 16.5075 20.8344 17.7502 21.059 19.5019C21.0768 19.6392 21.0852 19.7752 21.0852 19.9102C21.0852 21.4964 19.8998 22.8792 18.2812 23.0864Z" fill="#5A5555"/>
</svg>
