<svg width="26" height="25" viewBox="0 0 26 25" fill="none" xmlns="http://www.w3.org/2000/svg">
<path d="M22.381 14.0715L22.681 12.1132C22.6998 12.0142 22.6984 11.9124 22.677 11.8139C22.6555 11.7154 22.6144 11.6222 22.5562 11.5399C22.4979 11.4577 22.4236 11.388 22.3378 11.3351C22.252 11.2821 22.1564 11.2471 22.0567 11.2319C21.957 11.2168 21.8553 11.2219 21.7577 11.247C21.66 11.2721 21.5684 11.3165 21.4884 11.3778C21.4083 11.4391 21.3414 11.5159 21.2917 11.6036C21.242 11.6913 21.2105 11.7881 21.199 11.8883L20.899 13.845C20.8141 14.3741 20.5443 14.856 20.1375 15.2048C19.7307 15.5536 19.2134 15.7468 18.6775 15.75H11.8225C11.2865 15.7466 10.769 15.5531 10.3622 15.204C9.95542 14.8549 9.68569 14.3728 9.601 13.8435L8.6245 7.5H14.5C14.6989 7.5 14.8897 7.42098 15.0303 7.28033C15.171 7.13968 15.25 6.94891 15.25 6.75C15.25 6.55109 15.171 6.36032 15.0303 6.21967C14.8897 6.07902 14.6989 6 14.5 6H8.33575L8.01175 4.70325C7.88983 4.21657 7.60875 3.7846 7.21317 3.47599C6.81759 3.16739 6.33022 2.99985 5.8285 3H3.25C3.05109 3 2.86032 3.07902 2.71967 3.21967C2.57902 3.36032 2.5 3.55109 2.5 3.75C2.5 3.94891 2.57902 4.13968 2.71967 4.28033C2.86032 4.42098 3.05109 4.5 3.25 4.5H5.8285C5.99583 4.49984 6.1584 4.55563 6.29036 4.65851C6.42232 4.76139 6.51609 4.90544 6.55675 5.06775L7.01425 6.9L8.119 14.0737C8.20032 14.6135 8.39917 15.1289 8.70152 15.5834C9.00386 16.0379 9.40233 16.4204 9.86875 16.704C9.56401 17.0651 9.36239 17.5018 9.28516 17.9679C9.20793 18.4341 9.25796 18.9124 9.42996 19.3525C9.60196 19.7926 9.88956 20.1781 10.2624 20.4684C10.6353 20.7586 11.0796 20.9428 11.5484 21.0016C12.0172 21.0604 12.4932 20.9915 12.9262 20.8022C13.3591 20.613 13.733 20.3104 14.0083 19.9264C14.2836 19.5424 14.4501 19.0911 14.4903 18.6204C14.5305 18.1496 14.4429 17.6766 14.2367 17.2515H16.2618C16.0914 17.6017 16.002 17.9856 16 18.375C15.9967 18.7981 16.0958 19.2158 16.2888 19.5924C16.4818 19.969 16.7629 20.2933 17.1083 20.5378C17.4537 20.7822 17.8531 20.9396 18.2724 20.9964C18.6917 21.0533 19.1185 21.0079 19.5165 20.8641C19.9145 20.7204 20.2719 20.4826 20.5581 20.171C20.8444 19.8593 21.0511 19.4831 21.1605 19.0744C21.27 18.6656 21.2791 18.2365 21.1869 17.8235C21.0947 17.4105 20.9041 17.0259 20.6312 16.7025C21.0979 16.4189 21.4965 16.0363 21.7988 15.5817C22.1012 15.127 22.2999 14.6115 22.381 14.0715ZM13 18.375C13 18.5975 12.934 18.815 12.8104 19C12.6868 19.185 12.5111 19.3292 12.3055 19.4144C12.1 19.4995 11.8738 19.5218 11.6555 19.4784C11.4373 19.435 11.2368 19.3278 11.0795 19.1705C10.9222 19.0132 10.815 18.8127 10.7716 18.5945C10.7282 18.3762 10.7505 18.15 10.8356 17.9445C10.9208 17.7389 11.065 17.5632 11.25 17.4396C11.435 17.316 11.6525 17.25 11.875 17.25C12.1734 17.25 12.4595 17.3685 12.6705 17.5795C12.8815 17.7905 13 18.0766 13 18.375ZM18.625 19.5C18.4025 19.5 18.185 19.434 18 19.3104C17.815 19.1868 17.6708 19.0111 17.5856 18.8055C17.5005 18.6 17.4782 18.3738 17.5216 18.1555C17.565 17.9373 17.6722 17.7368 17.8295 17.5795C17.9868 17.4222 18.1873 17.315 18.4055 17.2716C18.6238 17.2282 18.85 17.2505 19.0555 17.3356C19.2611 17.4208 19.4368 17.565 19.5604 17.75C19.684 17.935 19.75 18.1525 19.75 18.375C19.75 18.6734 19.6315 18.9595 19.4205 19.1705C19.2095 19.3815 18.9234 19.5 18.625 19.5Z" fill="#726C6C"/>
<path d="M22.75 6H21.25V4.5C21.25 4.30109 21.171 4.11032 21.0303 3.96967C20.8897 3.82902 20.6989 3.75 20.5 3.75C20.3011 3.75 20.1103 3.82902 19.9697 3.96967C19.829 4.11032 19.75 4.30109 19.75 4.5V6H18.25C18.0511 6 17.8603 6.07902 17.7197 6.21967C17.579 6.36032 17.5 6.55109 17.5 6.75C17.5 6.94891 17.579 7.13968 17.7197 7.28033C17.8603 7.42098 18.0511 7.5 18.25 7.5H19.75V9C19.75 9.19891 19.829 9.38968 19.9697 9.53033C20.1103 9.67098 20.3011 9.75 20.5 9.75C20.6989 9.75 20.8897 9.67098 21.0303 9.53033C21.171 9.38968 21.25 9.19891 21.25 9V7.5H22.75C22.9489 7.5 23.1397 7.42098 23.2803 7.28033C23.421 7.13968 23.5 6.94891 23.5 6.75C23.5 6.55109 23.421 6.36032 23.2803 6.21967C23.1397 6.07902 22.9489 6 22.75 6Z" fill="#BA27B7"/>
</svg>
