<svg width="17" height="17" viewBox="0 0 17 17" fill="none" xmlns="http://www.w3.org/2000/svg">
<path d="M5.99143 16.7037H2.34143C1.38518 16.7037 0.607056 15.9256 0.607056 14.9693V11.3193C0.607056 10.3631 1.38518 9.58809 2.34143 9.58496H5.99143C6.94768 9.58496 7.72268 10.3631 7.72581 11.3193V14.9693C7.72268 15.9256 6.94768 16.7037 5.99143 16.7037ZM2.34143 10.0131C1.61956 10.0131 1.03518 10.5975 1.03518 11.3225V14.9725C1.03518 15.6943 1.61956 16.2787 2.34143 16.2818H5.99143C6.71331 16.2818 7.29768 15.6975 7.29768 14.9725V11.3193C7.29768 10.5975 6.71331 10.0131 5.98831 10.01H2.34143V10.0131Z" fill="#898384"/>
<path d="M14.8727 7.82285H11.2227C10.2664 7.82285 9.49141 7.04473 9.48828 6.08848V2.43848C9.48828 1.48223 10.2664 0.707227 11.2227 0.704102H14.8727C15.8289 0.704102 16.607 1.48223 16.607 2.43848V6.08848C16.607 7.04473 15.8289 7.81973 14.8727 7.82285ZM11.2227 1.1291C10.5008 1.1291 9.91641 1.71348 9.91328 2.43535V6.08535C9.91328 6.80723 10.4977 7.3916 11.2227 7.3916H14.8727C15.5945 7.3916 16.1789 6.80723 16.182 6.08223V2.43848C16.182 1.7166 15.5977 1.13223 14.8727 1.13223L11.2227 1.1291Z" fill="#898384"/>
<path d="M5.99143 7.82285H2.34143C1.38518 7.81973 0.607056 7.04473 0.607056 6.08848V2.43848C0.607056 1.48223 1.38518 0.704102 2.34143 0.704102H5.99143C6.94768 0.704102 7.72268 1.48223 7.72581 2.43848V6.08848C7.72268 7.04473 6.94768 7.81973 5.99143 7.82285ZM2.34143 1.1291C1.61956 1.1291 1.03518 1.71348 1.03518 2.43535V6.08535C1.03518 6.80723 1.61956 7.3916 2.34143 7.3916H5.99143C6.71331 7.3916 7.29768 6.80723 7.29768 6.08223V2.43848C7.29768 1.7166 6.71331 1.13223 5.98831 1.13223L2.34143 1.1291Z" fill="#898384"/>
<path d="M15.2383 12.6574H10.857C10.1008 12.6574 9.48828 12.0449 9.48828 11.2887C9.48828 10.5324 10.1008 9.91992 10.857 9.91992H15.2383C15.9945 9.91992 16.607 10.5324 16.607 11.2887C16.607 12.0449 15.9945 12.6574 15.2383 12.6574ZM10.857 10.348C10.3352 10.3574 9.92266 10.7887 9.93203 11.3074C9.94141 11.8137 10.3508 12.223 10.857 12.2324H15.2383C15.7602 12.223 16.1727 11.7918 16.1633 11.273C16.1539 10.7668 15.7445 10.3574 15.2383 10.348H10.857Z" fill="#898384"/>
<path d="M15.2383 16.3693H10.857C10.1008 16.3693 9.48828 15.7568 9.48828 15.0006C9.48828 14.2443 10.1008 13.6318 10.857 13.6318H15.2383C15.9945 13.6318 16.607 14.2443 16.607 15.0006C16.607 15.7568 15.9945 16.3693 15.2383 16.3693ZM10.857 14.0568C10.3352 14.0662 9.92266 14.4975 9.93203 15.0162C9.94141 15.5225 10.3508 15.9318 10.857 15.9412H15.2383C15.7602 15.9318 16.1727 15.5006 16.1633 14.9818C16.1539 14.4756 15.7445 14.0662 15.2383 14.0568H10.857Z" fill="#898384"/>
</svg>
