<svg width="16" height="16" viewBox="0 0 16 16" fill="none" xmlns="http://www.w3.org/2000/svg">
<path fill-rule="evenodd" clip-rule="evenodd" d="M8.39992 7.66834L10.9939 10.2623L10.4286 10.8283L7.59992 7.99967V3.99967H8.39992V7.66834ZM7.99992 14.6663C4.31792 14.6663 1.33325 11.6817 1.33325 7.99967C1.33325 4.31767 4.31792 1.33301 7.99992 1.33301C11.6819 1.33301 14.6666 4.31767 14.6666 7.99967C14.6666 11.6817 11.6819 14.6663 7.99992 14.6663ZM7.99992 13.8663C9.55585 13.8663 11.0481 13.2482 12.1483 12.148C13.2485 11.0478 13.8666 9.55561 13.8666 7.99967C13.8666 6.44374 13.2485 4.95153 12.1483 3.85131C11.0481 2.7511 9.55585 2.13301 7.99992 2.13301C6.44398 2.13301 4.95177 2.7511 3.85156 3.85131C2.75135 4.95153 2.13325 6.44374 2.13325 7.99967C2.13325 9.55561 2.75135 11.0478 3.85156 12.148C4.95177 13.2482 6.44398 13.8663 7.99992 13.8663Z" fill="#433E3F"/>
</svg>
