<svg width="16" height="16" viewBox="0 0 16 16" fill="none" xmlns="http://www.w3.org/2000/svg">
<path fill-rule="evenodd" clip-rule="evenodd" d="M1.05737 1.05744C1.30741 0.80748 1.64649 0.66706 2.00004 0.66706C2.35359 0.66706 2.69267 0.80748 2.94271 1.05744L8.00004 6.11478L13.0574 1.05744C13.1804 0.930095 13.3275 0.828518 13.4902 0.75864C13.6528 0.688761 13.8278 0.651979 14.0048 0.650441C14.1819 0.648903 14.3574 0.682638 14.5213 0.749679C14.6852 0.81672 14.834 0.915724 14.9592 1.04091C15.0844 1.1661 15.1834 1.31497 15.2505 1.47884C15.3175 1.6427 15.3512 1.81827 15.3497 1.99531C15.3482 2.17235 15.3114 2.34731 15.2415 2.50998C15.1716 2.67265 15.0701 2.81978 14.9427 2.94277L9.88537 8.00011L14.9427 13.0574C15.1856 13.3089 15.32 13.6457 15.3169 13.9953C15.3139 14.3449 15.1737 14.6793 14.9265 14.9265C14.6793 15.1737 14.3448 15.314 13.9952 15.317C13.6456 15.32 13.3088 15.1857 13.0574 14.9428L8.00004 9.88544L2.94271 14.9428C2.69124 15.1857 2.35443 15.32 2.00484 15.317C1.65524 15.314 1.32083 15.1737 1.07362 14.9265C0.826405 14.6793 0.68618 14.3449 0.683142 13.9953C0.680104 13.6457 0.814497 13.3089 1.05737 13.0574L6.11471 8.00011L1.05737 2.94277C0.807413 2.69274 0.666992 2.35366 0.666992 2.00011C0.666992 1.64656 0.807413 1.30748 1.05737 1.05744Z" fill="#726C6C"/>
</svg>
