<svg width="34" height="34" viewBox="0 0 34 34" fill="none" xmlns="http://www.w3.org/2000/svg">
<path d="M17 33.9925H2.00005C1.67047 33.9925 1.3483 33.8947 1.07429 33.7115C0.800269 33.5284 0.586704 33.2681 0.460587 32.9636C0.33447 32.6591 0.301465 32.3241 0.365744 32.0008C0.430024 31.6776 0.588701 31.3806 0.821717 31.1475L4.09505 27.8742C1.69997 24.9443 0.37329 21.2865 0.333211 17.5024C0.293131 13.7183 1.54203 10.0332 3.87452 7.05321C6.20701 4.0732 9.48421 1.9757 13.1671 1.10566C16.8501 0.235614 20.7194 0.644836 24.1389 2.26602C27.5584 3.88721 30.3243 6.62382 31.9818 10.0258C33.6394 13.4278 34.0898 17.2926 33.2591 20.9846C32.4283 24.6766 30.3659 27.9759 27.4109 30.3401C24.4559 32.7042 20.7844 33.9923 17 33.9925Z" fill="white"/>
</svg>
