<svg width="17" height="16" viewBox="0 0 17 16" fill="none" xmlns="http://www.w3.org/2000/svg">
<g clip-path="url(#clip0_1046_953)">
<path d="M15.9139 8.37166C15.8336 8.33341 15.7442 8.31319 15.6554 8.31319H7.07251L6.80892 7.3295C6.86926 7.23159 6.90086 7.12181 6.90492 7.01481C6.91658 6.708 6.70358 6.36481 6.28358 6.33291L4.01855 6.18506L3.6753 5.98691C3.67358 5.45591 3.38814 4.99053 2.96295 4.73462C3.36145 4.47125 3.62695 4.006 3.62695 3.47669C3.62695 2.65716 2.99095 1.99041 2.2092 1.99041C1.42745 1.99041 0.79142 2.65709 0.79142 3.47662C0.79142 4.00594 1.05692 4.47119 1.45542 4.73456C1.02892 4.99125 0.74292 5.45862 0.74292 5.99169V9.95025C0.74292 10.2405 0.790857 10.4902 0.898295 10.7599L1.49751 12.2638L1.83664 15.3461C1.86983 15.6476 2.12358 15.875 2.42692 15.875H4.16089C4.43855 15.875 4.66083 15.6856 4.71405 15.4036C4.76864 15.1143 4.62551 14.8413 4.36595 14.7397L3.7947 14.5162C3.72005 14.4869 3.67548 14.4217 3.67548 14.3415V7.62897C3.7598 7.64759 3.84692 7.65722 3.9393 7.65722H5.65195L6.99942 12.686C6.55523 12.9443 6.27717 13.4186 6.27717 13.9413C6.27717 14.7424 6.92892 15.3942 7.73005 15.3942H7.8932C8.08573 15.6837 8.41483 15.875 8.78786 15.875C9.16089 15.875 9.48998 15.6837 9.68251 15.3942H11.712C11.9045 15.6837 12.2336 15.875 12.6067 15.875C13.1988 15.875 13.6805 15.3933 13.6805 14.8012C13.6805 14.2091 13.1988 13.7274 12.6067 13.7274C12.241 13.7274 11.9175 13.9113 11.7236 14.1913H9.67098C9.47698 13.9113 9.15358 13.7274 8.78789 13.7274C8.4222 13.7274 8.09876 13.9113 7.9048 14.1913H7.73008C7.60389 14.1913 7.48008 14.0675 7.48008 13.9413C7.48008 13.8058 7.59458 13.6913 7.73008 13.6913H13.6645C13.9005 13.6913 14.1152 13.5527 14.2125 13.3379L16.1983 9.17344C16.2674 9.02866 16.2758 8.86541 16.222 8.71372C16.1682 8.56206 16.0588 8.44062 15.914 8.37169L15.9139 8.37166ZM12.6066 14.1649C12.9575 14.1649 13.243 14.4503 13.243 14.8012C13.243 15.152 12.9575 15.4375 12.6066 15.4375C12.2558 15.4375 11.9703 15.152 11.9703 14.8012C11.9703 14.4503 12.2558 14.1649 12.6066 14.1649ZM11.5469 14.6288C11.5378 14.685 11.5328 14.7425 11.5328 14.8012C11.5328 14.854 11.5368 14.9059 11.5442 14.9567H9.85023C9.85764 14.9059 9.86164 14.854 9.86164 14.8012C9.86164 14.7425 9.85673 14.685 9.84761 14.6288H11.5469ZM8.78783 14.1649C9.1387 14.1649 9.42414 14.4503 9.42414 14.8012C9.42414 15.152 9.1387 15.4375 8.78783 15.4375C8.43695 15.4375 8.15151 15.152 8.15151 14.8012C8.15151 14.4503 8.43695 14.1649 8.78783 14.1649ZM1.22892 3.47662C1.22892 2.89831 1.66867 2.42784 2.2092 2.42784C2.74973 2.42784 3.18945 2.89831 3.18945 3.47662C3.18945 4.05494 2.7497 4.52544 2.2092 4.52544C1.6687 4.52544 1.22892 4.05494 1.22892 3.47662ZM1.18042 5.99166C1.18042 5.42441 1.64192 4.96291 2.20917 4.96291C2.67939 4.96291 3.07667 5.28016 3.19889 5.71178L2.65186 5.39597C2.48164 5.29766 2.2828 5.27172 2.09205 5.32281C1.90126 5.37394 1.74204 5.49584 1.6438 5.66603L1.83323 5.77544L1.6438 5.66606C1.44036 6.01841 1.56151 6.47066 1.91392 6.67419L3.23792 7.43856V8.85637H1.18045V5.99162L1.18042 5.99166ZM4.20645 15.1471C4.28786 15.179 4.29358 15.2723 4.28411 15.3225C4.27601 15.3654 4.2492 15.4375 4.16086 15.4375H2.42689C2.3457 15.4375 2.28036 15.3789 2.27148 15.2983L1.92911 12.1865C1.92695 12.1669 1.92217 12.1477 1.91489 12.1295L1.3047 10.598C1.21758 10.3793 1.18039 10.1856 1.18039 9.95022V9.29391H3.23792V14.3414C3.23792 14.6006 3.39386 14.8291 3.6352 14.9235L4.20645 15.1471ZM3.55576 7.11691L2.1327 6.29534C1.9892 6.21247 1.93986 6.02831 2.0227 5.88481C2.06255 5.81581 2.12739 5.76631 2.20529 5.74544C2.2832 5.72447 2.36411 5.73494 2.43314 5.77484L3.84398 6.58937C3.87308 6.60616 3.90561 6.61603 3.93911 6.61822L6.25273 6.76922C6.40595 6.78087 6.47158 6.89606 6.4677 6.99812C6.46245 7.13684 6.34317 7.21966 6.14867 7.21966H3.93923C3.79717 7.21966 3.67889 7.18794 3.55576 7.11687V7.11691ZM15.8033 8.98506L13.8165 13.1517C13.8157 13.1533 13.8149 13.155 13.8142 13.1566C13.7878 13.2156 13.729 13.2537 13.6644 13.2537H7.72998C7.35089 13.2537 7.04248 13.5621 7.04248 13.9412C7.04248 14.3068 7.36261 14.6276 7.72801 14.6287C7.71889 14.6849 7.71398 14.7424 7.71398 14.8011C7.71398 14.8539 7.71798 14.9057 7.72536 14.9565C7.16758 14.954 6.71458 14.4996 6.71458 13.9412C6.71458 13.5306 6.96051 13.1625 7.34111 13.0035C7.44217 12.9613 7.49645 12.8509 7.46808 12.7451L6.10476 7.65712H6.14867C6.25495 7.65712 6.34945 7.64209 6.4327 7.61572L6.69336 8.58847C6.71898 8.68412 6.80564 8.75059 6.90464 8.75059H15.6554C15.6799 8.75059 15.7036 8.75597 15.7259 8.76659C15.7651 8.78528 15.7949 8.81841 15.8096 8.85984C15.8243 8.90131 15.8221 8.94575 15.8034 8.985L15.8033 8.98506ZM15.0491 9.0785H7.10976C7.04176 9.0785 6.97761 9.11016 6.93623 9.16406C6.89483 9.21803 6.88089 9.28819 6.89848 9.35384L7.81217 12.7637C7.8378 12.8593 7.92445 12.9258 8.02345 12.9258H13.423C13.5074 12.9258 13.5842 12.8773 13.6205 12.8012L15.2465 9.39137C15.2788 9.32359 15.2741 9.244 15.2341 9.1805C15.194 9.117 15.1242 9.07847 15.0491 9.07847V9.0785ZM9.9562 10.7834H9.05811L8.83758 9.516H9.85145L9.9562 10.7834ZM9.13423 11.2209H9.99236L10.0971 12.4884H9.35476L9.13423 11.2209ZM10.2904 9.516H11.4506L11.3458 10.7834H10.3952L10.2905 9.516H10.2904ZM10.4313 11.2209H11.3096L11.2049 12.4884H10.5361L10.4313 11.2209ZM11.7486 11.2209H12.6344L12.2981 12.4884H11.6439L11.7486 11.2209ZM11.7848 10.7834L11.8895 9.516H13.0868L12.7505 10.7834H11.7848ZM8.39348 9.516L8.61405 10.7834H7.73445L7.39486 9.516H8.39351H8.39348ZM7.85167 11.2209H8.69017L8.9107 12.4884H8.19126L7.85167 11.2209ZM13.285 12.4884H12.7507L13.0871 11.2209H13.8894L13.285 12.4884ZM14.098 10.7834H13.2032L13.5395 9.516H14.7025L14.098 10.7834ZM13.6786 6.02984C13.6786 5.90903 13.7765 5.81109 13.8973 5.81109H14.0053C14.1261 5.81109 14.2241 5.90903 14.2241 6.02984C14.2241 6.15066 14.1261 6.24859 14.0053 6.24859H13.8973C13.7765 6.24859 13.6786 6.15066 13.6786 6.02984ZM7.54958 8.09025H11.7203C11.8835 8.09025 12.0326 8.02266 12.14 7.89997C12.2476 7.77728 12.295 7.62063 12.2737 7.45884L12.2207 7.05834H15.6982C15.8613 7.05834 16.0104 6.99078 16.118 6.86806C16.2255 6.74534 16.273 6.58872 16.2515 6.42694L15.7219 2.42237C15.6854 2.14587 15.4475 1.93738 15.1685 1.93738H14.9094V1.42159C14.9094 0.706656 14.3278 0.125 13.6128 0.125C12.8978 0.125 12.3162 0.706656 12.3162 1.42159V1.93738H12.0571C11.7782 1.93738 11.5403 2.14587 11.5037 2.42237L11.4245 3.02141C11.353 2.98812 11.2737 2.96928 11.1906 2.96928H10.9315V2.45353C10.9315 1.73859 10.3499 1.15694 9.63489 1.15694C8.91992 1.15694 8.3383 1.73859 8.3383 2.45353V2.96928H8.07917C7.80026 2.96928 7.56239 3.17781 7.5258 3.45431L6.99617 7.45887C6.97476 7.62066 7.0222 7.77728 7.12973 7.89997C7.23726 8.02269 7.38636 8.09028 7.54951 8.09028L7.54958 8.09025ZM12.7537 1.42156C12.7537 0.947844 13.1391 0.562469 13.6128 0.562469C14.0865 0.562469 14.472 0.947844 14.472 1.42156V1.93734H12.7538L12.7537 1.42156ZM12.0571 2.37484H12.3162V2.76228C12.3162 2.88309 12.4142 2.98103 12.535 2.98103C12.6558 2.98103 12.7537 2.88309 12.7537 2.76228V2.37484H14.4719V2.76228C14.4719 2.88309 14.5699 2.98103 14.6907 2.98103C14.8115 2.98103 14.9094 2.88309 14.9094 2.76228V2.37484H15.1685C15.2298 2.37484 15.2801 2.41894 15.2882 2.47969L15.8178 6.48425C15.8229 6.52228 15.8142 6.55078 15.789 6.57962C15.7636 6.6085 15.7365 6.62078 15.6982 6.62078H12.1628L12.1136 6.24856H13.2214C13.3422 6.24856 13.4401 6.15062 13.4401 6.02981C13.4401 5.909 13.3422 5.81106 13.2214 5.81106H12.0557L11.7763 3.69813L11.9374 2.47969C11.9455 2.41894 11.9958 2.37484 12.0571 2.37484ZM8.77586 2.4535C8.77586 1.97978 9.16123 1.59441 9.63495 1.59441C10.1087 1.59441 10.4941 1.97978 10.4941 2.4535V2.96925H8.77589V2.4535H8.77586ZM7.95958 3.51163C7.96761 3.45084 8.01792 3.40675 8.07923 3.40675H8.33836V3.79422C8.33836 3.91503 8.4363 4.01297 8.55711 4.01297C8.67792 4.01297 8.77586 3.91503 8.77586 3.79422V3.40675H10.494V3.79422C10.494 3.91503 10.592 4.01297 10.7128 4.01297C10.8336 4.01297 10.9315 3.91503 10.9315 3.79422V3.40675H11.1907C11.252 3.40675 11.3023 3.45088 11.3103 3.51163L11.84 7.51619C11.845 7.55422 11.8363 7.58275 11.811 7.61166C11.7858 7.64047 11.7586 7.65275 11.7203 7.65275H7.54958C7.51123 7.65275 7.48411 7.64044 7.4588 7.61159C7.43351 7.58275 7.42489 7.55425 7.42992 7.51622L7.46108 7.28053H9.24345C9.36426 7.28053 9.4622 7.18259 9.4622 7.06178C9.4622 6.94097 9.36426 6.84303 9.24345 6.84303H7.51892L7.95951 3.51166L7.95958 3.51163ZM9.7007 7.06175C9.7007 6.94094 9.79864 6.843 9.91945 6.843H10.0275C10.1483 6.843 10.2462 6.94094 10.2462 7.06175C10.2462 7.18256 10.1483 7.2805 10.0275 7.2805H9.91945C9.79864 7.2805 9.7007 7.18256 9.7007 7.06175Z" fill="#898384"/>
</g>
<defs>
<clipPath id="clip0_1046_953">
<rect width="16" height="16" fill="white" transform="translate(0.5)"/>
</clipPath>
</defs>
</svg>
