<svg width="20" height="20" viewBox="0 0 20 20" fill="none" xmlns="http://www.w3.org/2000/svg">
<path d="M18.3334 6.80168V6.86251C18.3334 7.57918 18.3334 7.93835 18.1609 8.23168C17.9884 8.52501 17.6742 8.69918 17.0475 9.04835L16.3867 9.41501C16.8417 7.87501 16.9942 6.22001 17.05 4.80501L17.0584 4.62085L17.06 4.57751C17.6025 4.76585 17.9075 4.90668 18.0975 5.17001C18.3334 5.49751 18.3334 5.93251 18.3334 6.80168ZM1.66669 6.80168V6.86251C1.66669 7.57918 1.66669 7.93835 1.83919 8.23168C2.01169 8.52501 2.32585 8.69918 2.95252 9.04835L3.61419 9.41501C3.15835 7.87501 3.00585 6.22001 2.95002 4.80501L2.94169 4.62085L2.94085 4.57751C2.39752 4.76585 2.09252 4.90668 1.90252 5.17001C1.66669 5.49751 1.66669 5.93335 1.66669 6.80168Z" fill="#BA27B7"/>
<path fill-rule="evenodd" clip-rule="evenodd" d="M10 1.66669C11.4867 1.66669 12.7109 1.79753 13.6475 1.95586C14.5967 2.11586 15.0709 2.19586 15.4675 2.68419C15.8642 3.17253 15.8425 3.70003 15.8009 4.75503C15.6575 8.37919 14.8759 12.905 10.625 13.305V16.25H11.8167C12.0093 16.2501 12.1959 16.317 12.3447 16.4391C12.4936 16.5612 12.5956 16.7312 12.6334 16.92L12.7917 17.7084H15C15.1658 17.7084 15.3247 17.7742 15.442 17.8914C15.5592 18.0086 15.625 18.1676 15.625 18.3334C15.625 18.4991 15.5592 18.6581 15.442 18.7753C15.3247 18.8925 15.1658 18.9584 15 18.9584H5.00002C4.83426 18.9584 4.67529 18.8925 4.55808 18.7753C4.44087 18.6581 4.37502 18.4991 4.37502 18.3334C4.37502 18.1676 4.44087 18.0086 4.55808 17.8914C4.67529 17.7742 4.83426 17.7084 5.00002 17.7084H7.20835L7.36668 16.92C7.40443 16.7312 7.50641 16.5612 7.6553 16.4391C7.80418 16.317 7.99077 16.2501 8.18335 16.25H9.37502V13.305C5.12502 12.905 4.34335 8.37836 4.20002 4.75503C4.15752 3.70003 4.13668 3.17169 4.53335 2.68419C4.92918 2.19586 5.40335 2.11586 6.35252 1.95586C7.55821 1.75836 8.77826 1.66163 10 1.66669ZM10.7934 5.16586L10.7117 5.01919C10.395 4.45003 10.2367 4.16669 10 4.16669C9.76335 4.16669 9.60502 4.45003 9.28835 5.01919L9.20668 5.16586C9.11668 5.32753 9.07168 5.40753 9.00168 5.46086C8.93085 5.51419 8.84335 5.53419 8.66835 5.57336L8.51002 5.61003C7.89502 5.74919 7.58752 5.81836 7.51418 6.05336C7.44085 6.28836 7.65085 6.53419 8.07002 7.02419L8.17835 7.15086C8.29752 7.29003 8.35752 7.35919 8.38418 7.44586C8.41085 7.53253 8.40168 7.62503 8.38418 7.81086L8.36752 7.98003C8.30418 8.63419 8.27252 8.96169 8.46335 9.10669C8.65502 9.25169 8.94335 9.11919 9.51918 8.85419L9.66752 8.78586C9.83168 8.71086 9.91335 8.67336 10 8.67336C10.0867 8.67336 10.1684 8.71086 10.3325 8.78586L10.4809 8.85419C11.0567 9.12003 11.345 9.25169 11.5367 9.10669C11.7284 8.96169 11.6959 8.63419 11.6325 7.98003L11.6159 7.81086C11.5984 7.62503 11.5892 7.53253 11.6159 7.44586C11.6425 7.35919 11.7025 7.29003 11.8217 7.15086L11.93 7.02419C12.3492 6.53419 12.5592 6.28919 12.4859 6.05336C12.4125 5.81836 12.105 5.74919 11.49 5.61003L11.3317 5.57336C11.1567 5.53419 11.0692 5.51503 10.9984 5.46086C10.9284 5.40753 10.8834 5.32753 10.7934 5.16586Z" fill="#BA27B7"/>
</svg>
