<svg width="20" height="21" viewBox="0 0 20 21" fill="none" xmlns="http://www.w3.org/2000/svg">
<path d="M4.55833 5.51255V15.9409C4.55822 16.2387 4.61679 16.5336 4.73071 16.8087C4.84462 17.0839 5.01164 17.3339 5.22222 17.5445C5.4328 17.7551 5.68281 17.9221 5.95796 18.036C6.23312 18.1499 6.52803 18.2085 6.82583 18.2084H13.1742C13.7753 18.2084 14.3519 17.9696 14.7769 17.5445C15.202 17.1194 15.4408 16.5429 15.4408 15.9417V5.51172M2.745 5.51255H17.255" stroke="white" stroke-width="1.5" stroke-linecap="round" stroke-linejoin="round"/>
<path d="M7.27916 5.51234V4.15151C7.27894 3.97278 7.314 3.79576 7.38232 3.6306C7.45064 3.46545 7.55088 3.3154 7.6773 3.18906C7.80372 3.06271 7.95383 2.96256 8.11903 2.89434C8.28423 2.82612 8.46126 2.79118 8.63999 2.79151H11.36C11.5387 2.79118 11.7158 2.82612 11.881 2.89434C12.0462 2.96256 12.1963 3.06271 12.3227 3.18906C12.4491 3.3154 12.5494 3.46545 12.6177 3.6306C12.686 3.79576 12.721 3.97278 12.7208 4.15151V5.51234M8.18666 14.6598V10.1273M11.8142 14.6598V10.1273" stroke="white" stroke-width="1.5" stroke-linecap="round" stroke-linejoin="round"/>
</svg>
