<svg width="32" height="32" viewBox="0 0 32 32" fill="none" xmlns="http://www.w3.org/2000/svg">
<path d="M28.6599 5.25H21.6599V4.09C21.6587 3.34064 21.3618 2.62204 20.8338 2.09029C20.3058 1.55854 19.5893 1.25658 18.8399 1.25H13.1599C12.4071 1.25132 11.6855 1.55096 11.1532 2.08328C10.6209 2.61559 10.3213 3.33719 10.3199 4.09V5.25H3.31995C3.12103 5.25 2.93027 5.32902 2.78962 5.46967C2.64896 5.61032 2.56995 5.80109 2.56995 6C2.56995 6.19891 2.64896 6.38968 2.78962 6.53033C2.93027 6.67098 3.12103 6.75 3.31995 6.75H5.24995V27.285C5.25127 28.2036 5.61676 29.0841 6.26628 29.7337C6.91581 30.3832 7.79638 30.7487 8.71495 30.75H23.2849C24.2035 30.7487 25.0841 30.3832 25.7336 29.7337C26.3831 29.0841 26.7486 28.2036 26.7499 27.285V6.75H28.6599C28.8589 6.75 29.0496 6.67098 29.1903 6.53033C29.3309 6.38968 29.4099 6.19891 29.4099 6C29.4099 5.80109 29.3309 5.61032 29.1903 5.46967C29.0496 5.32902 28.8589 5.25 28.6599 5.25ZM11.8199 4.09C11.8199 3.73461 11.9611 3.39378 12.2124 3.14248C12.4637 2.89118 12.8046 2.75 13.1599 2.75H18.8399C19.1953 2.75 19.5362 2.89118 19.7875 3.14248C20.0388 3.39378 20.1799 3.73461 20.1799 4.09V5.25H11.8199V4.09ZM25.2499 27.285C25.2499 27.8062 25.0429 28.306 24.6744 28.6745C24.3059 29.043 23.8061 29.25 23.2849 29.25H8.71495C8.1938 29.25 7.69399 29.043 7.32548 28.6745C6.95697 28.306 6.74995 27.8062 6.74995 27.285V6.75H25.2499V27.285ZM11.8199 12.07V22.93C11.8199 23.1289 11.7409 23.3197 11.6003 23.4603C11.4596 23.601 11.2689 23.68 11.0699 23.68C10.871 23.68 10.6803 23.601 10.5396 23.4603C10.399 23.3197 10.3199 23.1289 10.3199 22.93V12.07C10.3199 11.8711 10.399 11.6803 10.5396 11.5397C10.6803 11.399 10.871 11.32 11.0699 11.32C11.2689 11.32 11.4596 11.399 11.6003 11.5397C11.7409 11.6803 11.8199 11.8711 11.8199 12.07ZM16.7499 12.07V22.93C16.7499 23.1289 16.6709 23.3197 16.5303 23.4603C16.3896 23.601 16.1989 23.68 15.9999 23.68C15.801 23.68 15.6103 23.601 15.4696 23.4603C15.329 23.3197 15.2499 23.1289 15.2499 22.93V12.07C15.2499 11.8711 15.329 11.6803 15.4696 11.5397C15.6103 11.399 15.801 11.32 15.9999 11.32C16.1989 11.32 16.3896 11.399 16.5303 11.5397C16.6709 11.6803 16.7499 11.8711 16.7499 12.07ZM20.9299 11.32C21.1289 11.32 21.3196 11.399 21.4603 11.5397C21.6009 11.6803 21.6799 11.8711 21.6799 12.07V22.93C21.6799 23.1289 21.6009 23.3197 21.4603 23.4603C21.3196 23.601 21.1289 23.68 20.9299 23.68C20.731 23.68 20.5403 23.601 20.3996 23.4603C20.259 23.3197 20.1799 23.1289 20.1799 22.93V12.07C20.1799 11.8711 20.259 11.6803 20.3996 11.5397C20.5403 11.399 20.731 11.32 20.9299 11.32Z" fill="url(#paint0_linear_311_1057)"/>
<defs>
<linearGradient id="paint0_linear_311_1057" x1="2.58995" y1="16" x2="29.4099" y2="16" gradientUnits="userSpaceOnUse">
<stop stop-color="#F1673C"/>
<stop offset="0.59" stop-color="#E53D2E"/>
<stop offset="1" stop-color="#DE2526"/>
</linearGradient>
</defs>
</svg>
