<svg width="25" height="24" viewBox="0 0 25 24" fill="none" xmlns="http://www.w3.org/2000/svg">
<path d="M12.5 15.577L8.961 12.039L9.669 11.319L12 13.65V5H13V13.65L15.33 11.32L16.039 12.039L12.5 15.577ZM7.116 19C6.65533 19 6.271 18.846 5.963 18.538C5.655 18.23 5.50067 17.8453 5.5 17.384V14.961H6.5V17.384C6.5 17.538 6.564 17.6793 6.692 17.808C6.82 17.9367 6.961 18.0007 7.115 18H17.885C18.0383 18 18.1793 17.936 18.308 17.808C18.4367 17.68 18.5007 17.5387 18.5 17.384V14.961H19.5V17.384C19.5 17.8447 19.346 18.229 19.038 18.537C18.73 18.845 18.3453 18.9993 17.884 19H7.116Z" fill="#2B2829"/>
</svg>
