<svg width="24" height="24" viewBox="0 0 24 24" fill="none" xmlns="http://www.w3.org/2000/svg">
<g clip-path="url(#clip0_656_1724)">
<path d="M23.5 12C23.5 9.20898 22.4877 6.51746 20.6495 4.42114C20.4674 4.21338 20.1514 4.19263 19.944 4.37476C19.7363 4.55688 19.7156 4.8728 19.8976 5.08032C21.5758 6.99426 22.5 9.45166 22.5 12C22.5 13.0403 22.3422 14.043 22.0569 14.9914C21.1497 14.0718 19.8908 13.5 18.5 13.5C17.716 13.5 16.9765 13.6864 16.3154 14.0094C15.7561 13.8558 15.1754 13.7281 14.5726 13.6357C16.1685 12.734 17.25 11.0242 17.25 9.06413C17.25 6.16924 14.8949 3.81413 12 3.81413C9.1051 3.81413 6.75 6.16924 6.75 9.06413C6.75 11.0243 7.8316 12.7341 9.42752 13.6357C6.57869 14.0728 4.16579 15.222 2.66197 16.7918C1.92114 15.354 1.5 13.7257 1.5 12C1.5 6.21033 6.21033 1.5 12 1.5C14.4271 1.5 16.7942 2.34741 18.665 3.88611C18.8784 4.06165 19.1936 4.03088 19.3688 3.81763C19.5442 3.60437 19.5135 3.28931 19.3003 3.11389C17.251 1.42822 14.6583 0.5 12 0.5C5.65894 0.5 0.5 5.65894 0.5 12C0.5 18.3411 5.65894 23.5 12 23.5C13.3884 23.5 14.7167 23.2467 15.9485 22.7922C16.6966 23.2386 17.5673 23.5 18.5 23.5C21.2571 23.5 23.5 21.257 23.5 18.5C23.5 17.5682 23.2391 16.6982 22.7934 15.9505C23.2476 14.7178 23.5 13.3885 23.5 12ZM7.75 9.06413C7.75 6.72063 9.65649 4.81413 12 4.81413C14.3435 4.81413 16.25 6.72063 16.25 9.06413C16.25 11.4076 14.3435 13.3141 12 13.3141C9.65649 13.3141 7.75 11.4076 7.75 9.06413ZM12 22.5C8.29413 22.5 5.03296 20.5684 3.16373 17.6609C4.84029 15.7113 8.16682 14.4391 12 14.4391C13.12 14.4391 14.1936 14.5517 15.1983 14.7551C14.1596 15.672 13.5 17.0089 13.5 18.5C13.5 19.8911 14.0721 21.1503 14.9922 22.0575C14.0436 22.3426 13.0406 22.5 12 22.5ZM18.5 22.5C16.2944 22.5 14.5 20.7056 14.5 18.5C14.5 16.2944 16.2944 14.5 18.5 14.5C20.7056 14.5 22.5 16.2944 22.5 18.5C22.5 20.7056 20.7056 22.5 18.5 22.5ZM18.1475 16.3524C18.0525 16.26 18 16.1324 18 16C18 15.8674 18.0525 15.74 18.1475 15.6475C18.3325 15.46 18.6675 15.46 18.855 15.6475C18.9475 15.74 19 15.87 19 16C19 16.13 18.9475 16.26 18.855 16.3524C18.76 16.4475 18.6326 16.5 18.5 16.5C18.3674 16.5 18.24 16.4475 18.1475 16.3524ZM20.25 20.75C20.25 21.0261 20.0261 21.25 19.75 21.25H17.75C17.4739 21.25 17.25 21.0261 17.25 20.75C17.25 20.4739 17.4739 20.25 17.75 20.25H18.25V17.9437L18.1582 17.9744C17.895 18.0619 17.6128 17.9199 17.5256 17.6581C17.4382 17.3961 17.5798 17.113 17.8418 17.0256L18.5918 16.7756C18.7441 16.7249 18.9116 16.7501 19.0422 16.8444C19.1729 16.9384 19.25 17.0892 19.25 17.25V20.25H19.75C20.0261 20.25 20.25 20.4739 20.25 20.75Z" fill="#5A5555"/>
</g>
<defs>
<clipPath id="clip0_656_1724">
<rect width="24" height="24" fill="white"/>
</clipPath>
</defs>
</svg>
