<svg width="18" height="18" viewBox="0 0 18 18" fill="none" xmlns="http://www.w3.org/2000/svg">
<path d="M14.9083 11.0342V14.7342C14.9081 15.2577 14.7001 15.7597 14.3299 16.1299C13.9597 16.5001 13.4577 16.7081 12.9342 16.7084H3.26668C3.00648 16.7082 2.74886 16.6567 2.50863 16.5567C2.2684 16.4568 2.05029 16.3103 1.86684 16.1258C1.68339 15.9412 1.53822 15.7223 1.43965 15.4815C1.34109 15.2406 1.29109 14.9827 1.29252 14.7225V5.06586C1.29097 4.80606 1.34099 4.54854 1.4397 4.30823C1.5384 4.06791 1.68382 3.84957 1.86753 3.66587C2.05123 3.48216 2.26957 3.33674 2.50989 3.23804C2.7502 3.13933 3.00772 3.08931 3.26752 3.09086H6.96668" stroke="#898384" stroke-linecap="round" stroke-linejoin="round"/>
<path d="M14.9083 6.49576L11.5041 3.09076M4.6958 12.1691V10.3649C4.69747 10.0674 4.8158 9.7816 5.02497 9.57076L12.9683 1.62743C13.0737 1.52085 13.1992 1.43624 13.3375 1.3785C13.4758 1.32075 13.6242 1.29102 13.7741 1.29102C13.924 1.29102 14.0724 1.32075 14.2108 1.3785C14.3491 1.43624 14.4746 1.52085 14.58 1.62743L16.3725 3.41993C16.479 3.52533 16.5637 3.65082 16.6214 3.78915C16.6792 3.92747 16.7089 4.07587 16.7089 4.22576C16.7089 4.37566 16.6792 4.52406 16.6214 4.66238C16.5637 4.80071 16.479 4.9262 16.3725 5.0316L8.42914 12.9749C8.21792 13.1847 7.93265 13.3029 7.63497 13.3041H5.8308C5.68169 13.3043 5.534 13.2751 5.3962 13.2181C5.25839 13.1612 5.13318 13.0776 5.02775 12.9722C4.92231 12.8667 4.83871 12.7415 4.78175 12.6037C4.72479 12.4659 4.69558 12.3182 4.6958 12.1691Z" stroke="#898384" stroke-linecap="round" stroke-linejoin="round"/>
</svg>
