<svg width="24" height="24" viewBox="0 0 24 24" fill="none" xmlns="http://www.w3.org/2000/svg">
<g clip-path="url(#clip0_816_821)">
<mask id="mask0_816_821" style="mask-type:luminance" maskUnits="userSpaceOnUse" x="0" y="0" width="24" height="24">
<path d="M0 1.90735e-06H24V24H0V1.90735e-06Z" fill="white"/>
</mask>
<g mask="url(#mask0_816_821)">
<path d="M15.8828 8.5C15.6887 8.5 15.5312 8.34259 15.5312 8.14844C15.5312 7.95423 15.6887 7.79688 15.8828 7.79688C16.077 7.79688 16.2344 7.95423 16.2344 8.14844C16.2344 8.34259 16.077 8.5 15.8828 8.5Z" fill="#726C6C"/>
<path d="M17.2891 8.5C17.0949 8.5 16.9375 8.34259 16.9375 8.14844C16.9375 7.95423 17.0949 7.79688 17.2891 7.79688C17.4833 7.79688 17.6406 7.95423 17.6406 8.14844C17.6406 8.34259 17.4833 8.5 17.2891 8.5Z" fill="#726C6C"/>
<path d="M14.4766 8.5C14.2824 8.5 14.125 8.34259 14.125 8.14844C14.125 7.95423 14.2824 7.79688 14.4766 7.79688C14.6708 7.79688 14.8281 7.95423 14.8281 8.14844C14.8281 8.34259 14.6708 8.5 14.4766 8.5Z" fill="#726C6C"/>
<path d="M8.24426 6.71256C8.90539 3.09428 12.0736 0.351533 15.8828 0.351533C20.1717 0.351533 23.6485 3.82834 23.6485 8.11717C23.6485 10.1763 22.8467 12.048 21.5387 13.4379C21.9053 14.4249 22.6751 15.2159 23.6485 15.61C23.2142 15.7858 22.7396 15.8828 22.2422 15.8828C21.2584 15.8828 20.3633 15.5038 19.6944 14.884C18.9583 15.2995 18.1476 15.5979 17.2874 15.7549" stroke="#726C6C" stroke-miterlimit="10" stroke-linecap="round" stroke-linejoin="round"/>
<path d="M7.22327 15.7716H8.18294C8.60106 15.7716 8.93997 16.1106 8.93997 16.5287C8.93997 16.9468 8.60106 17.2857 8.18294 17.2857C7.97556 17.2857 7.22327 17.2891 7.22327 17.2891V14.4766H8.04025C8.39767 14.4766 8.68741 14.7663 8.68741 15.1237C8.68741 15.4811 8.39767 15.7709 8.04025 15.7709" stroke="#726C6C" stroke-miterlimit="10" stroke-linecap="round" stroke-linejoin="round"/>
<path d="M5.84173 17.2891L4.78568 14.5162C4.76408 14.4634 4.6894 14.4633 4.6677 14.516L3.62122 17.2891" stroke="#726C6C" stroke-miterlimit="10" stroke-linecap="round" stroke-linejoin="round"/>
<path d="M5.57871 16.5986H3.88184" stroke="#726C6C" stroke-miterlimit="10" stroke-linecap="round" stroke-linejoin="round"/>
<path d="M12.5135 14.7168C12.2891 14.5651 12.0185 14.4766 11.7273 14.4766C10.9506 14.4766 10.321 15.1062 10.321 15.8828C10.321 16.6595 10.9506 17.2891 11.7273 17.2891C12.0427 17.2891 12.3021 17.1852 12.499 17.0098C12.5398 16.9736 12.5779 16.9342 12.6132 16.8921" stroke="#726C6C" stroke-miterlimit="10" stroke-linecap="round" stroke-linejoin="round"/>
<path d="M8.1172 8.1172C3.82838 8.1172 0.351562 11.594 0.351562 15.8828C0.351562 17.942 1.15336 19.8136 2.46136 21.2035C2.09475 22.1905 1.32492 22.9815 0.351562 23.3756C0.785859 23.5514 1.26047 23.6484 1.75781 23.6484C2.74158 23.6484 3.6367 23.2695 4.30566 22.6497C5.43169 23.2853 6.73191 23.6484 8.1172 23.6484C12.406 23.6484 15.8828 20.1717 15.8828 15.8828C15.8828 11.594 12.406 8.1172 8.1172 8.1172Z" stroke="#726C6C" stroke-miterlimit="10" stroke-linecap="round" stroke-linejoin="round"/>
</g>
</g>
<defs>
<clipPath id="clip0_816_821">
<rect width="24" height="24" fill="white"/>
</clipPath>
</defs>
</svg>
