<svg width="22" height="16" viewBox="0 0 22 16" fill="none" xmlns="http://www.w3.org/2000/svg">
<path d="M0.5625 3.46154H4.57125C4.70067 4.11982 5.05469 4.71272 5.57281 5.1389C6.09094 5.56508 6.74099 5.79809 7.41187 5.79809C8.08276 5.79809 8.73281 5.56508 9.25094 5.1389C9.76906 4.71272 10.1231 4.11982 10.2525 3.46154H20.91C21.0592 3.46154 21.2023 3.40228 21.3077 3.29679C21.4132 3.1913 21.4725 3.04823 21.4725 2.89904C21.4725 2.74986 21.4132 2.60678 21.3077 2.50129C21.2023 2.39581 21.0592 2.33654 20.91 2.33654H10.2525C10.1231 1.67826 9.76906 1.08536 9.25094 0.659182C8.73281 0.233002 8.08276 0 7.41187 0C6.74099 0 6.09094 0.233002 5.57281 0.659182C5.05469 1.08536 4.70067 1.67826 4.57125 2.33654H0.5625C0.413316 2.33654 0.270242 2.39581 0.164752 2.50129C0.0592632 2.60678 0 2.74986 0 2.89904C0 3.04823 0.0592632 3.1913 0.164752 3.29679C0.270242 3.40228 0.413316 3.46154 0.5625 3.46154ZM7.41 1.12904C7.76007 1.12904 8.10228 1.23285 8.39336 1.42734C8.68443 1.62183 8.9113 1.89827 9.04527 2.22169C9.17923 2.54512 9.21428 2.90101 9.14599 3.24435C9.07769 3.5877 8.90912 3.90308 8.66158 4.15062C8.41404 4.39816 8.09866 4.56674 7.75531 4.63503C7.41196 4.70333 7.05608 4.66828 6.73265 4.53431C6.40922 4.40034 6.13279 4.17348 5.9383 3.8824C5.74381 3.59133 5.64 3.24912 5.64 2.89904C5.64099 2.42991 5.82779 1.98028 6.15951 1.64856C6.49124 1.31683 6.94087 1.13003 7.41 1.12904Z" fill="#433E3F"/>
<path d="M20.91 12.1252H16.8412C16.71 11.469 16.3554 10.8785 15.8378 10.4542C15.3203 10.03 14.6717 9.7981 14.0025 9.7981C13.3333 9.7981 12.6847 10.03 12.1672 10.4542C11.6496 10.8785 11.295 11.469 11.1637 12.1252H0.5625C0.413316 12.1252 0.270242 12.1844 0.164752 12.2899C0.0592632 12.3954 0 12.5385 0 12.6877C0 12.8369 0.0592632 12.9799 0.164752 13.0854C0.270242 13.1909 0.413316 13.2502 0.5625 13.2502H11.1637C11.295 13.9064 11.6496 14.4969 12.1672 14.9211C12.6847 15.3454 13.3333 15.5773 14.0025 15.5773C14.6717 15.5773 15.3203 15.3454 15.8378 14.9211C16.3554 14.4969 16.71 13.9064 16.8412 13.2502H20.91C21.0592 13.2502 21.2023 13.1909 21.3077 13.0854C21.4132 12.9799 21.4725 12.8369 21.4725 12.6877C21.4725 12.5385 21.4132 12.3954 21.3077 12.2899C21.2023 12.1844 21.0592 12.1252 20.91 12.1252ZM14.0025 14.4577C13.6524 14.4577 13.3102 14.3539 13.0191 14.1594C12.7281 13.9649 12.5012 13.6885 12.3672 13.365C12.2333 13.0416 12.1982 12.6857 12.2665 12.3424C12.3348 11.999 12.5034 11.6836 12.7509 11.4361C12.9985 11.1886 13.3138 11.02 13.6572 10.9517C14.0005 10.8834 14.3564 10.9185 14.6798 11.0524C15.0033 11.1864 15.2797 11.4133 15.4742 11.7043C15.6687 11.9954 15.7725 12.3376 15.7725 12.6877C15.7715 13.1568 15.5847 13.6064 15.253 13.9382C14.9213 14.2699 14.4716 14.4567 14.0025 14.4577Z" fill="#433E3F"/>
</svg>
