<svg width="18" height="18" viewBox="0 0 18 18" fill="none" xmlns="http://www.w3.org/2000/svg">
<path d="M2.25 8.25C2.25 5.42175 2.25 4.00725 3.129 3.129C4.008 2.25075 5.42175 2.25 8.25 2.25H9.75C12.5782 2.25 13.9927 2.25 14.871 3.129C15.7492 4.008 15.75 5.42175 15.75 8.25V9.75C15.75 12.5782 15.75 13.9927 14.871 14.871C13.992 15.7492 12.5782 15.75 9.75 15.75H8.25C5.42175 15.75 4.00725 15.75 3.129 14.871C2.25075 13.992 2.25 12.5782 2.25 9.75V8.25Z" stroke="#898384"/>
<path fill-rule="evenodd" clip-rule="evenodd" d="M14.2485 10.7176L13.9905 10.4603L13.9792 10.4483C13.6785 10.1483 13.4362 9.90608 13.2232 9.72683C13.0042 9.54233 12.7912 9.40133 12.5415 9.32633C12.1884 9.2198 11.8116 9.2198 11.4585 9.32633C11.2087 9.40133 10.9957 9.54233 10.776 9.72683C10.5637 9.90608 10.3215 10.1483 10.0207 10.4483L10.0095 10.4603C9.7845 10.6853 9.6345 10.8353 9.51225 10.9358C9.3915 11.0356 9.339 11.0521 9.31725 11.0558C9.22679 11.0717 9.13365 11.0538 9.0555 11.0056C9.0375 10.9936 8.99475 10.9591 8.91975 10.8218C8.81608 10.6171 8.721 10.4082 8.63475 10.1956L8.595 10.1026L8.58525 10.0808C8.31225 9.44333 8.09475 8.93558 7.88325 8.55983C7.668 8.17733 7.42875 7.87358 7.0845 7.70108C6.776 7.54651 6.43083 7.48007 6.087 7.50908C5.70225 7.54133 5.36775 7.73408 5.02575 8.00933C4.68975 8.28008 4.299 8.67008 3.8085 9.16133L3.792 9.17708L3.75 9.21983V10.2803L4.32225 9.70733C4.833 9.19733 5.19525 8.83583 5.496 8.59358C5.796 8.35283 5.98725 8.27033 6.14925 8.25608C6.35583 8.23863 6.56321 8.2786 6.7485 8.37158C6.894 8.44433 7.041 8.59208 7.22925 8.92733C7.419 9.26483 7.62075 9.73358 7.905 10.3973L7.9455 10.4911L7.953 10.5083C8.0685 10.7783 8.166 11.0063 8.2605 11.1803C8.358 11.3596 8.478 11.5298 8.661 11.6431C8.89577 11.7884 9.17579 11.8423 9.44775 11.7946C9.65925 11.7571 9.83325 11.6431 9.99 11.5133C10.143 11.3873 10.3185 11.2118 10.527 11.0033L10.5397 10.9906C10.8547 10.6756 11.0745 10.4566 11.2597 10.3006C11.4412 10.1468 11.5642 10.0778 11.6752 10.0441C11.8867 9.98033 12.1132 9.98033 12.3247 10.0441C12.4358 10.0778 12.5587 10.1468 12.7402 10.2998C12.9255 10.4566 13.1452 10.6756 13.4602 10.9906L14.232 11.7616C14.2417 11.4541 14.2462 11.1091 14.2485 10.7176Z" fill="#898384"/>
<path d="M12.375 6.75C12.9963 6.75 13.5 6.24632 13.5 5.625C13.5 5.00368 12.9963 4.5 12.375 4.5C11.7537 4.5 11.25 5.00368 11.25 5.625C11.25 6.24632 11.7537 6.75 12.375 6.75Z" fill="#898384"/>
</svg>
