<svg id="Icons" xmlns="http://www3.org/2000/svg" width="20.5" height="20.947" viewBox="0 0 20.5 20.947">
  <g id="Color-" transform="translate(0 0)">
    <g id="Google" transform="translate(0 0)">
      <path id="Fill-1" d="M4.5,18.244A6.2,6.2,0,0,1,4.819,16.3l-3.53-2.7a10.545,10.545,0,0,0,0,9.276l3.528-2.7A6.2,6.2,0,0,1,4.5,18.244" transform="translate(-0.214 -7.77)" fill="#fbbc05" fill-rule="evenodd"/>
      <path id="Fill-2" d="M12.036,4.818A6.069,6.069,0,0,1,15.9,6.2l3.051-3.047A10.482,10.482,0,0,0,2.623,6.367l3.53,2.7a6.181,6.181,0,0,1,5.883-4.245" transform="translate(-1.548 -0.533)" fill="#eb4335" fill-rule="evenodd"/>
      <path id="Fill-3" d="M12.036,32.6a6.181,6.181,0,0,1-5.883-4.245l-3.53,2.7a10.457,10.457,0,0,0,9.413,5.834,10,10,0,0,0,6.834-2.61l-3.351-2.59a6.488,6.488,0,0,1-3.483.916" transform="translate(-1.548 -15.938)" fill="#34a853" fill-rule="evenodd"/>
      <path id="Fill-4" d="M33.725,21.638a8.677,8.677,0,0,0-.238-1.9H23.714V23.78h5.626A4.717,4.717,0,0,1,27.2,26.911l3.351,2.59a10.417,10.417,0,0,0,3.178-7.863" transform="translate(-13.225 -11.164)" fill="#4285f4" fill-rule="evenodd"/>
    </g>
  </g>
</svg>
