<svg width="24" height="24" viewBox="0 0 24 24" fill="none" xmlns="http://www.w3.org/2000/svg">
<path d="M17.5 23.999C13.916 23.999 11 21.083 11 17.499C11 13.915 13.916 10.999 17.5 10.999C21.084 10.999 24 13.915 24 17.499C24 21.083 21.084 23.999 17.5 23.999ZM17.5 11.999C14.467 11.999 12 14.466 12 17.499C12 20.532 14.467 22.999 17.5 22.999C20.533 22.999 23 20.532 23 17.499C23 14.466 20.533 11.999 17.5 11.999Z" fill="#5A5555"/>
<path d="M17.5 20.999C17.3674 20.999 17.2402 20.9463 17.1464 20.8526C17.0527 20.7588 17 20.6316 17 20.499V16.499C17 16.3664 17.0527 16.2392 17.1464 16.1455C17.2402 16.0517 17.3674 15.999 17.5 15.999C17.6326 15.999 17.7598 16.0517 17.8536 16.1455C17.9473 16.2392 18 16.3664 18 16.499V20.499C18 20.6316 17.9473 20.7588 17.8536 20.8526C17.7598 20.9463 17.6326 20.999 17.5 20.999Z" fill="#5A5555"/>
<path d="M17.5 14.999C17.7761 14.999 18 14.7752 18 14.499C18 14.2229 17.7761 13.999 17.5 13.999C17.2239 13.999 17 14.2229 17 14.499C17 14.7752 17.2239 14.999 17.5 14.999Z" fill="#5A5555"/>
<path d="M8.839 15.549C8.76247 15.5485 8.68698 15.5311 8.618 15.498C7.40009 14.8954 6.03368 14.6585 4.684 14.816C4.47071 14.8413 4.25446 14.8212 4.04952 14.7569C3.84457 14.6926 3.65558 14.5856 3.495 14.443C3.33938 14.3042 3.21484 14.1341 3.12953 13.9439C3.04423 13.7536 3.00009 13.5475 3 13.339V1.58897C3 0.840974 3.559 0.197974 4.3 0.0939737C6.688 -0.259026 8.942 0.404974 11 2.07597C13.058 0.405974 15.309 -0.261026 17.703 0.0949737C18.0624 0.147224 18.391 0.326811 18.629 0.601027C18.8671 0.875243 18.9987 1.22584 19 1.58897V8.49897C19 8.63158 18.9473 8.75876 18.8536 8.85253C18.7598 8.9463 18.6326 8.99897 18.5 8.99897C18.3674 8.99897 18.2402 8.9463 18.1464 8.85253C18.0527 8.75876 18 8.63158 18 8.49897V1.58897C17.9993 1.46604 17.9545 1.34744 17.8738 1.25476C17.793 1.16207 17.6817 1.10147 17.56 1.08397C15.308 0.748974 13.27 1.41197 11.329 3.10597C11.238 3.18532 11.1213 3.22903 11.0005 3.22903C10.8797 3.22903 10.763 3.18532 10.672 3.10597C8.729 1.41097 6.693 0.748974 4.443 1.08297C4.32069 1.10003 4.20861 1.16055 4.12726 1.25347C4.04591 1.34638 4.00074 1.46548 4 1.58897V13.339C3.99947 13.4065 4.01348 13.4733 4.04109 13.5349C4.0687 13.5965 4.10926 13.6514 4.16 13.696C4.27 13.794 4.417 13.84 4.572 13.822C6.11211 13.6409 7.67164 13.9112 9.061 14.6C9.16173 14.6504 9.24253 14.7333 9.29035 14.8353C9.33817 14.9373 9.35023 15.0524 9.32457 15.1621C9.29891 15.2718 9.23704 15.3696 9.14894 15.4398C9.06083 15.51 8.95165 15.5485 8.839 15.549Z" fill="#5A5555"/>
<path d="M21.5 9.99902C21.3674 9.99902 21.2402 9.94635 21.1464 9.85258C21.0527 9.75881 21 9.63163 21 9.49902V3.49902C21 3.36642 20.9473 3.23924 20.8536 3.14547C20.7598 3.0517 20.6326 2.99902 20.5 2.99902H18.5C18.3674 2.99902 18.2402 2.94634 18.1464 2.85258C18.0527 2.75881 18 2.63163 18 2.49902C18 2.36642 18.0527 2.23924 18.1464 2.14547C18.2402 2.0517 18.3674 1.99902 18.5 1.99902H20.5C21.327 1.99902 22 2.67202 22 3.49902V9.49902C22 9.63163 21.9473 9.75881 21.8536 9.85258C21.7598 9.94635 21.6326 9.99902 21.5 9.99902ZM8.5 16.999H1.5C0.673 16.999 0 16.326 0 15.499V3.49902C0 2.68702 0.669 2.01402 1.491 1.99902H3.5C3.63261 1.99902 3.75979 2.0517 3.85355 2.14547C3.94732 2.23924 4 2.36642 4 2.49902C4 2.63163 3.94732 2.75881 3.85355 2.85258C3.75979 2.94634 3.63261 2.99902 3.5 2.99902H1.5C1.36819 3.00158 1.2425 3.05508 1.14928 3.1483C1.05606 3.24152 1.00256 3.36722 1 3.49902V15.499C1 15.6316 1.05268 15.7588 1.14645 15.8526C1.24021 15.9463 1.36739 15.999 1.5 15.999H8.5C8.63261 15.999 8.75979 16.0517 8.85355 16.1455C8.94732 16.2392 9 16.3664 9 16.499C9 16.6316 8.94732 16.7588 8.85355 16.8526C8.75979 16.9463 8.63261 16.999 8.5 16.999ZM11 11.999C10.8674 11.999 10.7402 11.9463 10.6464 11.8526C10.5527 11.7588 10.5 11.6316 10.5 11.499V2.49902C10.5 2.36642 10.5527 2.23924 10.6464 2.14547C10.7402 2.0517 10.8674 1.99902 11 1.99902C11.1326 1.99902 11.2598 2.0517 11.3536 2.14547C11.4473 2.23924 11.5 2.36642 11.5 2.49902V11.499C11.5 11.6316 11.4473 11.7588 11.3536 11.8526C11.2598 11.9463 11.1326 11.999 11 11.999Z" fill="#5A5555"/>
</svg>
