<svg width="19" height="19" viewBox="0 0 19 19" fill="none" xmlns="http://www.w3.org/2000/svg">
<path fill-rule="evenodd" clip-rule="evenodd" d="M7.35699 5.3916C7.08614 5.3916 6.81794 5.44495 6.56771 5.5486C6.31747 5.65225 6.0901 5.80417 5.89858 5.99569C5.70706 6.18721 5.55514 6.41458 5.45149 6.66482C5.34784 6.91505 5.29449 7.18325 5.29449 7.4541C5.29449 7.72495 5.34784 7.99315 5.45149 8.24339C5.55514 8.49362 5.70706 8.72099 5.89858 8.91251C6.0901 9.10403 6.31747 9.25595 6.56771 9.3596C6.81794 9.46325 7.08614 9.5166 7.35699 9.5166C7.904 9.5166 8.4286 9.2993 8.8154 8.91251C9.20219 8.52572 9.41949 8.00111 9.41949 7.4541C9.41949 6.90709 9.20219 6.38249 8.8154 5.99569C8.4286 5.6089 7.904 5.3916 7.35699 5.3916ZM6.41949 7.4541C6.41949 7.20546 6.51826 6.967 6.69408 6.79119C6.86989 6.61537 7.10835 6.5166 7.35699 6.5166C7.60563 6.5166 7.84409 6.61537 8.0199 6.79119C8.19572 6.967 8.29449 7.20546 8.29449 7.4541C8.29449 7.70274 8.19572 7.9412 8.0199 8.11701C7.84409 8.29283 7.60563 8.3916 7.35699 8.3916C7.10835 8.3916 6.86989 8.29283 6.69408 8.11701C6.51826 7.9412 6.41949 7.70274 6.41949 7.4541ZM7.35699 9.8916C6.45999 9.8916 5.62074 10.0716 4.98399 10.3904C4.38174 10.6919 3.79449 11.2124 3.79449 11.9541V12.0014C3.79299 12.3839 3.79149 13.0289 4.40199 13.4706C4.68549 13.6754 5.05974 13.8066 5.52324 13.8899C5.99049 13.9739 6.58974 14.0166 7.35699 14.0166C8.12424 14.0166 8.72349 13.9739 9.19074 13.8899C9.65424 13.8066 10.0285 13.6754 10.312 13.4699C10.9225 13.0281 10.921 12.3839 10.9195 12.0006V11.9541C10.9195 11.2116 10.3322 10.6919 9.72999 10.3904C9.09324 10.0724 8.25399 9.8916 7.35699 9.8916ZM4.91949 11.9541C4.91949 11.8679 5.00424 11.6384 5.48724 11.3969C5.93724 11.1719 6.59724 11.0166 7.35699 11.0166C8.11674 11.0166 8.77749 11.1719 9.22674 11.3969C9.70974 11.6384 9.79449 11.8679 9.79449 11.9541C9.79449 12.4071 9.76524 12.4769 9.65199 12.5594C9.56049 12.6254 9.37224 12.7139 8.99199 12.7829C8.61549 12.8504 8.08974 12.8916 7.35699 12.8916C6.62424 12.8916 6.09849 12.8504 5.72199 12.7829C5.34174 12.7139 5.15349 12.6254 5.06199 12.5594C4.94799 12.4769 4.91949 12.4071 4.91949 11.9541Z" fill="#898384"/>
<path d="M14.857 10.2666C15.0062 10.2666 15.1493 10.2073 15.2547 10.1018C15.3602 9.99636 15.4195 9.85329 15.4195 9.7041C15.4195 9.55492 15.3602 9.41184 15.2547 9.30635C15.1493 9.20087 15.0062 9.1416 14.857 9.1416H11.857C11.7078 9.1416 11.5647 9.20087 11.4592 9.30635C11.3538 9.41184 11.2945 9.55492 11.2945 9.7041C11.2945 9.85329 11.3538 9.99636 11.4592 10.1018C11.5647 10.2073 11.7078 10.2666 11.857 10.2666H14.857ZM15.4195 7.4541C15.4195 7.60329 15.3602 7.74636 15.2547 7.85185C15.1493 7.95734 15.0062 8.0166 14.857 8.0166H11.107C10.9578 8.0166 10.8147 7.95734 10.7092 7.85185C10.6038 7.74636 10.5445 7.60329 10.5445 7.4541C10.5445 7.30492 10.6038 7.16184 10.7092 7.05635C10.8147 6.95087 10.9578 6.8916 11.107 6.8916H14.857C15.0062 6.8916 15.1493 6.95087 15.2547 7.05635C15.3602 7.16184 15.4195 7.30492 15.4195 7.4541ZM14.857 12.5166C15.0062 12.5166 15.1493 12.4573 15.2547 12.3518C15.3602 12.2464 15.4195 12.1033 15.4195 11.9541C15.4195 11.8049 15.3602 11.6618 15.2547 11.5564C15.1493 11.4509 15.0062 11.3916 14.857 11.3916H12.607C12.4578 11.3916 12.3147 11.4509 12.2092 11.5564C12.1038 11.6618 12.0445 11.8049 12.0445 11.9541C12.0445 12.1033 12.1038 12.2464 12.2092 12.3518C12.3147 12.4573 12.4578 12.5166 12.607 12.5166H14.857Z" fill="#898384"/>
<path fill-rule="evenodd" clip-rule="evenodd" d="M8.06499 3.1416H11.149C12.5275 3.1416 13.6195 3.1416 14.4737 3.25635C15.3527 3.37485 16.0645 3.62385 16.6262 4.18485C17.1872 4.7466 17.4362 5.45835 17.5547 6.33735C17.6695 7.19235 17.6695 8.2836 17.6695 9.6621V9.7461C17.6695 11.1246 17.6695 12.2166 17.5547 13.0709C17.4362 13.9499 17.1872 14.6616 16.6262 15.2234C16.0645 15.7844 15.3527 16.0334 14.4737 16.1519C13.6187 16.2666 12.5275 16.2666 11.149 16.2666H8.06574C6.68724 16.2666 5.59524 16.2666 4.74099 16.1519C3.86199 16.0334 3.15024 15.7844 2.58849 15.2234C2.02749 14.6616 1.77849 13.9499 1.65999 13.0709C1.54524 12.2159 1.54524 11.1246 1.54524 9.7461V9.6621C1.54524 8.2836 1.54524 7.1916 1.65999 6.33735C1.77849 5.45835 2.02749 4.7466 2.58849 4.18485C3.15024 3.62385 3.86199 3.37485 4.74099 3.25635C5.59599 3.1416 6.68649 3.1416 8.06499 3.1416ZM4.88949 4.3716C4.13499 4.47285 3.69999 4.66335 3.38199 4.9806C3.06549 5.29785 2.87499 5.73285 2.77374 6.48735C2.67024 7.25835 2.66874 8.27385 2.66874 9.7041C2.66874 11.1344 2.67024 12.1506 2.77374 12.9216C2.87499 13.6754 3.06549 14.1104 3.38274 14.4276C3.69999 14.7449 4.13499 14.9354 4.88949 15.0366C5.66049 15.1401 6.67599 15.1416 8.10624 15.1416H11.1062C12.5365 15.1416 13.5527 15.1401 14.3237 15.0366C15.0775 14.9354 15.5125 14.7449 15.8297 14.4276C16.147 14.1104 16.3375 13.6754 16.4387 12.9209C16.5422 12.1499 16.5437 11.1344 16.5437 9.7041C16.5437 8.27385 16.5422 7.25835 16.4387 6.4866C16.3375 5.73285 16.147 5.29785 15.8297 4.9806C15.5125 4.66335 15.0775 4.47285 14.323 4.3716C13.5527 4.2681 12.5365 4.2666 11.1062 4.2666H8.10624C6.67599 4.2666 5.66124 4.2681 4.88949 4.3716Z" fill="#898384"/>
</svg>
