<svg width="24" height="24" viewBox="0 0 24 24" fill="none" xmlns="http://www.w3.org/2000/svg">
<path d="M10.5 10.5H12V17.25M12 17.25H9.75M12 17.25H14.25M12 7.125H12.0075V7.1325H12V7.125ZM12.375 7.125C12.375 7.22446 12.3355 7.31984 12.2652 7.39017C12.1948 7.46049 12.0995 7.5 12 7.5C11.9005 7.5 11.8052 7.46049 11.7348 7.39017C11.6645 7.31984 11.625 7.22446 11.625 7.125C11.625 7.02554 11.6645 6.93016 11.7348 6.85983C11.8052 6.78951 11.9005 6.75 12 6.75C12.0995 6.75 12.1948 6.78951 12.2652 6.85983C12.3355 6.93016 12.375 7.02554 12.375 7.125ZM21.75 12C21.75 14.5859 20.7228 17.0658 18.8943 18.8943C17.0658 20.7228 14.5859 21.75 12 21.75C9.41414 21.75 6.93419 20.7228 5.10571 18.8943C3.27723 17.0658 2.25 14.5859 2.25 12C2.25 9.41414 3.27723 6.93419 5.10571 5.10571C6.93419 3.27723 9.41414 2.25 12 2.25C14.5859 2.25 17.0658 3.27723 18.8943 5.10571C20.7228 6.93419 21.75 9.41414 21.75 12Z" stroke="#0A0A0B" stroke-width="2"/>
</svg>
