<svg width="24" height="24" viewBox="0 0 24 24" fill="none" xmlns="http://www.w3.org/2000/svg">
<g clip-path="url(#clip0_656_1643)">
<path d="M22.5 0H14.5C14.1818 0.00125418 13.8723 0.103656 13.6161 0.292405C13.36 0.481153 13.1705 0.746468 13.075 1.05C11.3736 0.88241 9.65649 1.11372 8.06005 1.72558C6.46362 2.33743 5.03178 3.31299 3.87819 4.57481C2.72459 5.83663 1.881 7.34997 1.41437 8.99473C0.94774 10.6395 0.870917 12.3704 1.19 14.05C0.856374 14.1204 0.556705 14.3025 0.340387 14.566C0.124068 14.8296 0.00400973 15.159 0 15.5L0 22.5C0 22.8978 0.158035 23.2794 0.43934 23.5607C0.720644 23.842 1.10218 24 1.5 24H9.5C9.81818 23.9987 10.1277 23.8963 10.3839 23.7076C10.64 23.5188 10.8295 23.2535 10.925 22.95C12.6264 23.1176 14.3435 22.8863 15.9399 22.2744C17.5364 21.6626 18.9682 20.687 20.1218 19.4252C21.2754 18.1634 22.119 16.65 22.5856 15.0053C23.0523 13.3605 23.1291 11.6296 22.81 9.95C23.1436 9.87955 23.4433 9.69754 23.6596 9.43396C23.8759 9.17038 23.996 8.84096 24 8.5V1.5C24 1.10218 23.842 0.720644 23.5607 0.43934C23.2794 0.158035 22.8978 0 22.5 0ZM21.795 10C21.9008 10.4942 21.9693 10.9956 22 11.5H17C16.9903 10.9986 16.9552 10.4979 16.895 10H21.795ZM9.5 14H8.13C8.07 13.5 8.035 13 8.02 12.5H16C15.9453 14.3812 15.5769 16.2401 14.91 18C13.6614 17.5393 12.3193 17.39 11 17.565V15.5C11 15.1022 10.842 14.7206 10.5607 14.4393C10.2794 14.158 9.89782 14 9.5 14ZM2.205 14C2.09918 13.5058 2.03065 13.0044 2 12.5H7C7.00975 13.0014 7.04479 13.5021 7.105 14H2.205ZM15.87 10C15.93 10.5 15.965 11 15.98 11.5H8C8.05474 9.61878 8.42313 7.7599 9.09 6C10.3307 6.46423 11.6656 6.62037 12.98 6.455V8.5C12.98 8.89782 13.138 9.27936 13.4193 9.56066C13.7006 9.84196 14.0822 10 14.48 10H15.87ZM12.92 2.04C13.035 2.07 13 1.655 13 5.425C11.8207 5.59226 10.6183 5.46515 9.5 5.055C9.9792 3.99778 10.5656 2.99252 11.25 2.055C11.8054 2.00552 12.3638 2.0005 12.92 2.04ZM8.565 4.655C7.93637 4.33002 7.35584 3.91944 6.84 3.435C7.78274 2.86574 8.8134 2.45685 9.89 2.225C9.3844 2.99847 8.94133 3.81105 8.565 4.655ZM6 4C6.63848 4.63736 7.37436 5.16901 8.18 5.575C7.45222 7.46842 7.05315 9.47222 7 11.5H2C2.07489 10.0328 2.47213 8.60012 3.16347 7.30385C3.85482 6.00758 4.82328 4.87956 6 4ZM10 22.5C10 22.6326 9.94732 22.7598 9.85355 22.8536C9.75979 22.9473 9.63261 23 9.5 23H1.5C1.36739 23 1.24021 22.9473 1.14645 22.8536C1.05268 22.7598 1 22.6326 1 22.5V15.5C1 15.3674 1.05268 15.2402 1.14645 15.1464C1.24021 15.0527 1.36739 15 1.5 15H9.5C9.63261 15 9.75979 15.0527 9.85355 15.1464C9.94732 15.2402 10 15.3674 10 15.5V22.5ZM11.08 21.96C10.965 21.93 11 22.345 11 18.575C12.1793 18.4077 13.3817 18.5348 14.5 18.945C14.0211 20.0023 13.4346 21.0076 12.75 21.945C12.1947 21.9969 11.6361 22.0019 11.08 21.96ZM15.435 19.345C16.0636 19.67 16.6442 20.0806 17.16 20.565C16.219 21.1331 15.1899 21.5403 14.115 21.77C14.616 20.9964 15.0573 20.1857 15.435 19.345ZM18 20C17.3602 19.3642 16.6246 18.8328 15.82 18.425C16.5478 16.5316 16.9469 14.5278 17 12.5H22C21.9251 13.9672 21.5279 15.3999 20.8365 16.6961C20.1452 17.9924 19.1767 19.1204 18 20ZM23 8.5C23 8.63261 22.9473 8.75979 22.8536 8.85355C22.7598 8.94732 22.6326 9 22.5 9H14.5C14.3674 9 14.2402 8.94732 14.1464 8.85355C14.0527 8.75979 14 8.63261 14 8.5V1.5C14 1.36739 14.0527 1.24021 14.1464 1.14645C14.2402 1.05268 14.3674 1 14.5 1H22.5C22.6326 1 22.7598 1.05268 22.8536 1.14645C22.9473 1.24021 23 1.36739 23 1.5V8.5Z" fill="#898384"/>
<path d="M18.965 2.31524C18.9281 2.22198 18.8641 2.14196 18.7811 2.08557C18.6982 2.02918 18.6002 1.99902 18.5 1.99902C18.3997 1.99902 18.3017 2.02918 18.2188 2.08557C18.1359 2.14196 18.0718 2.22198 18.035 2.31524L16.035 7.31524C15.9859 7.43857 15.9878 7.57633 16.0403 7.69823C16.0929 7.82013 16.1916 7.91618 16.315 7.96524C16.4383 8.01431 16.5761 8.01237 16.698 7.95986C16.8199 7.90735 16.9159 7.80857 16.965 7.68524L17.465 6.49024C17.6 6.49024 17.05 6.49024 19.52 6.49024C19.605 6.49024 19.52 6.29524 20.055 7.67524C20.104 7.79857 20.2001 7.89735 20.322 7.94986C20.4439 8.00237 20.5816 8.00431 20.705 7.95524C20.8283 7.90618 20.9271 7.81013 20.9796 7.68823C21.0321 7.56633 21.034 7.42857 20.985 7.30524L18.965 2.31524ZM17.84 5.50024L18.5 3.84524L19.16 5.50024H17.84Z" fill="#898384"/>
<path d="M7.5 17H6V16.5C6 16.3674 5.94732 16.2402 5.85355 16.1464C5.75979 16.0527 5.63261 16 5.5 16C5.36739 16 5.24021 16.0527 5.14645 16.1464C5.05268 16.2402 5 16.3674 5 16.5V17H3.5C3.36739 17 3.24021 17.0527 3.14645 17.1464C3.05268 17.2402 3 17.3674 3 17.5C3 17.6326 3.05268 17.7598 3.14645 17.8536C3.24021 17.9473 3.36739 18 3.5 18H6.445C6.2966 18.6532 5.9694 19.2522 5.5 19.73C5.3486 19.5733 5.20826 19.4062 5.08 19.23C5.00151 19.1287 4.88715 19.0615 4.76052 19.0421C4.63388 19.0227 4.50464 19.0527 4.39944 19.1258C4.29425 19.1989 4.22114 19.3096 4.19519 19.4351C4.16924 19.5605 4.19244 19.6911 4.26 19.8C4.41185 20.0182 4.57893 20.2254 4.76 20.42C4.44554 20.6644 4.11102 20.8818 3.76 21.07C3.65183 21.1351 3.57228 21.2387 3.53733 21.36C3.50238 21.4813 3.51462 21.6114 3.57158 21.724C3.62855 21.8367 3.72603 21.9236 3.84444 21.9674C3.96286 22.0112 4.09345 22.0085 4.21 21.96C4.66817 21.718 5.10042 21.4299 5.5 21.1C5.89509 21.4244 6.32231 21.7075 6.775 21.945C6.89155 21.9935 7.02214 21.9962 7.14056 21.9524C7.25897 21.9086 7.35645 21.8217 7.41342 21.709C7.47038 21.5964 7.48262 21.4663 7.44767 21.345C7.41272 21.2237 7.33317 21.1201 7.225 21.055C6.87416 20.8684 6.53964 20.6527 6.225 20.41C6.87618 19.7532 7.30916 18.9117 7.465 18C7.59761 18.0046 7.72663 17.9564 7.82368 17.8659C7.92073 17.7754 7.97786 17.6501 7.9825 17.5175C7.98714 17.3849 7.93891 17.2559 7.84843 17.1588C7.75794 17.0618 7.63261 17.0046 7.5 17Z" fill="#898384"/>
</g>
<defs>
<clipPath id="clip0_656_1643">
<rect width="24" height="24" fill="white"/>
</clipPath>
</defs>
</svg>
