<svg width="25" height="25" viewBox="0 0 25 25" fill="none" xmlns="http://www.w3.org/2000/svg">
<path d="M16.5 4.5C16.7652 4.5 17.0196 4.60536 17.2071 4.79289C17.3946 4.98043 17.5 5.23478 17.5 5.5V9.7L22.713 6.05C22.788 5.99746 22.8759 5.9665 22.9672 5.9605C23.0586 5.9545 23.1498 5.9737 23.231 6.01599C23.3122 6.05829 23.3802 6.12206 23.4276 6.20035C23.4751 6.27865 23.5001 6.36846 23.5 6.46V18.54C23.5001 18.6315 23.4751 18.7214 23.4276 18.7996C23.3802 18.8779 23.3122 18.9417 23.231 18.984C23.1498 19.0263 23.0586 19.0455 22.9672 19.0395C22.8759 19.0335 22.788 19.0025 22.713 18.95L17.5 15.3V19.5C17.5 19.7652 17.3946 20.0196 17.2071 20.2071C17.0196 20.3946 16.7652 20.5 16.5 20.5H2.5C2.23478 20.5 1.98043 20.3946 1.79289 20.2071C1.60536 20.0196 1.5 19.7652 1.5 19.5V5.5C1.5 5.23478 1.60536 4.98043 1.79289 4.79289C1.98043 4.60536 2.23478 4.5 2.5 4.5H16.5ZM15.5 6.5H3.5V18.5H15.5V6.5ZM7.9 9.329C7.97611 9.32879 8.05069 9.3503 8.115 9.391L12.47 12.162C12.5268 12.1981 12.5735 12.248 12.6059 12.307C12.6383 12.366 12.6553 12.4322 12.6553 12.4995C12.6553 12.5668 12.6383 12.633 12.6059 12.692C12.5735 12.751 12.5268 12.8009 12.47 12.837L8.115 15.61C8.05434 15.6487 7.98438 15.6703 7.91248 15.6725C7.84059 15.6748 7.76941 15.6576 7.70646 15.6228C7.64351 15.588 7.5911 15.5368 7.55477 15.4747C7.51844 15.4127 7.49951 15.3419 7.5 15.27V9.73C7.5 9.62391 7.54214 9.52217 7.61716 9.44716C7.69217 9.37214 7.79391 9.329 7.9 9.329ZM21.5 9.34L17.5 12.14V12.858L21.5 15.658V9.34Z" fill="white"/>
</svg>
