<svg width="20" height="23" viewBox="0 0 20 23" fill="none" xmlns="http://www.w3.org/2000/svg">
<path d="M14.2854 9.99867C14.2854 11.1352 13.8339 12.2253 13.0303 13.0289C12.2266 13.8326 11.1366 14.2841 10 14.2841C8.86343 14.2841 7.77341 13.8326 6.96973 13.0289C6.16605 12.2253 5.71455 11.1352 5.71455 9.99867C5.71455 8.8621 6.16605 7.77208 6.96973 6.9684C7.77341 6.16473 8.86343 5.71322 10 5.71322C11.1366 5.71322 12.2266 6.16473 13.0303 6.9684C13.8339 7.77208 14.2854 8.8621 14.2854 9.99867ZM12.857 9.99867C12.857 9.24096 12.556 8.51428 12.0202 7.97849C11.4844 7.44271 10.7577 7.14171 10 7.14171C9.24228 7.14171 8.5156 7.44271 7.97982 7.97849C7.44404 8.51428 7.14303 9.24096 7.14303 9.99867C7.14303 10.7564 7.44404 11.4831 7.97982 12.0189C8.5156 12.5546 9.24228 12.8556 10 12.8556C10.7577 12.8556 11.4844 12.5546 12.0202 12.0189C12.556 11.4831 12.857 10.7564 12.857 9.99867ZM17.071 17.0768C18.9465 15.2004 20 12.656 20 10.003C20 7.34996 18.9465 4.80555 17.071 2.92911C16.1424 2.00047 15.0401 1.26383 13.8268 0.761255C12.6136 0.258675 11.3132 0 10 0C8.68678 0 7.38641 0.258675 6.17317 0.761255C4.95992 1.26383 3.85755 2.00047 2.92901 2.92911C1.05354 4.80555 0 7.34996 0 10.003C0 12.656 1.05354 15.2004 2.92901 17.0768L5.10173 19.2181L8.02012 22.0536L8.21011 22.2222C9.31718 23.1193 10.9385 23.0621 11.9813 22.0536L15.4597 18.6681L17.071 17.0768ZM3.93609 3.93619C4.7321 3.1393 5.67737 2.50712 6.71786 2.07579C7.75835 1.64447 8.87365 1.42246 10 1.42246C11.1263 1.42246 12.2417 1.64447 13.2821 2.07579C14.3226 2.50712 15.2679 3.1393 16.0639 3.93619C17.627 5.50137 18.5257 7.60951 18.5726 9.82107C18.6194 12.0326 17.8108 14.1769 16.3153 15.8069L16.0639 16.0697L14.1769 17.9325L10.9914 21.0308L10.8571 21.1451C10.6097 21.3304 10.3088 21.4304 9.99976 21.4301C9.69068 21.4298 9.39002 21.3293 9.14291 21.1437L9.01006 21.0294L4.75318 16.8797L3.93609 16.0697L3.68468 15.8083C2.18921 14.1783 1.38061 12.0341 1.42745 9.8225C1.47429 7.61094 2.37296 5.50137 3.93609 3.93619Z" fill="#063E7E"/>
</svg>
