<svg width="18" height="18" viewBox="0 0 18 18" fill="none" xmlns="http://www.w3.org/2000/svg">
<path d="M3.375 9.49143C3.375 8.37589 3.375 7.81811 3.72156 7.47156C4.06811 7.125 4.62589 7.125 5.74143 7.125H12.2586C13.3741 7.125 13.9319 7.125 14.2784 7.47156C14.625 7.81811 14.625 8.37589 14.625 9.49143V11.8253C14.625 13.4987 14.625 14.3353 14.1052 14.8552C13.5853 15.375 12.7487 15.375 11.0753 15.375H6.92465C5.25133 15.375 4.41467 15.375 3.89483 14.8552C3.375 14.3353 3.375 13.4987 3.375 11.8253V9.49143Z" stroke="#9F9C9C"/>
<path d="M12.375 7.125V6C12.375 5.61276 12.375 5.41914 12.3569 5.25623C12.2041 3.88131 11.1187 2.79595 9.74377 2.64311C9.58086 2.625 9.38724 2.625 9 2.625V2.625C8.61276 2.625 8.41914 2.625 8.25623 2.64311C6.88131 2.79595 5.79595 3.88131 5.64311 5.25623C5.625 5.41914 5.625 5.61276 5.625 6V7.125" stroke="#CCCBCB" stroke-linecap="round"/>
</svg>
