<svg width="36" height="33" viewBox="0 0 36 33" fill="none" xmlns="http://www.w3.org/2000/svg">
<path d="M16.3103 31.818C16.8028 32.1709 17.3935 32.3606 17.9993 32.3606C18.6052 32.3606 19.1958 32.1709 19.6883 31.818C24.7403 28.212 29.5773 24.063 32.9243 18.754C34.2546 16.7713 35.159 14.5342 35.5803 12.184C35.6937 11.5533 35.7506 10.9138 35.7503 10.273C35.8072 7.60686 34.8032 5.02722 32.9591 3.10093C31.1149 1.17464 28.5814 0.0592969 25.9153 0C24.3575 0.00846066 22.8246 0.392341 21.4466 1.11911C20.0686 1.84588 18.8861 2.89412 17.9993 4.175C17.1126 2.89412 15.9301 1.84588 14.5521 1.11911C13.1741 0.392341 11.6412 0.00846066 10.0833 0C7.41761 0.0595598 4.88453 1.17488 3.04062 3.10092C1.1967 5.02697 0.192754 7.60621 0.249339 10.272C0.249069 10.9128 0.305962 11.5523 0.419339 12.183C0.840638 14.5332 1.74504 16.7703 3.07534 18.753C6.42134 24.063 11.2593 28.212 16.3103 31.818Z" fill="#FBFBFB"/>
<path d="M16.3103 27.5C16.8028 27.8529 17.3935 28.0426 17.9993 28.0426C18.6052 28.0426 19.1958 27.8529 19.6883 27.5C25.2493 24.5 27.2493 23.5 32.9243 18.754C34.2546 16.7713 35.159 14.5342 35.5803 12.184C35.6937 11.5533 35.7506 10.9138 35.7503 10.273C35.8072 7.60686 34.8032 5.02722 32.9591 3.10093C31.1149 1.17464 28.5814 0.0592969 25.9153 0C24.3575 0.00846066 22.8246 0.392341 21.4466 1.11911C20.0686 1.84588 18.8861 2.89412 17.9993 4.175C17.1126 2.89412 15.9301 1.84588 14.5521 1.11911C13.1741 0.392341 11.6412 0.00846066 10.0833 0C7.41761 0.0595598 4.88453 1.17488 3.04062 3.10092C1.1967 5.02697 0.192754 7.60621 0.249339 10.272C0.249069 10.9128 0.305962 11.5523 0.419339 12.183C0.840638 14.5332 1.74504 16.7703 3.07534 18.753C7.24564 22.0184 11.6715 24.9435 16.3103 27.5Z" fill="white"/>
</svg>
