<svg width="14" height="14" viewBox="0 0 14 14" fill="none" xmlns="http://www.w3.org/2000/svg">
<g clip-path="url(#clip0_874_884)">
<path d="M13.5625 5.03125H11.375H9.625H7.4375C7.30625 5.03125 7.21875 5.11875 7.21875 5.25V6.71563L6.67188 6.58437L6.08125 5.99375C6.7375 5.38125 6.78125 4.09063 6.78125 3.71875C7.59062 3.71875 8.15937 3.5 8.37812 3.10625C8.46562 2.93125 8.53125 2.64687 8.29063 2.275C8.05 1.925 7.74375 1.75 7.32812 1.75C7.30625 1.75 6.54063 1.75 6.54063 1.75C6.475 1.35625 6.2125 0.525 5.18438 0.284375C4.96563 0.240625 4.65938 0.21875 4.59375 0.21875C2.31875 0.21875 1.96875 1.3125 1.96875 1.96875V3.0625C1.96875 3.21563 2.03437 3.39062 2.16562 3.52188C2.05625 3.65313 1.96875 3.87188 1.96875 4.15625C1.96875 4.70312 2.34062 4.94375 2.66875 5.00938C2.77813 5.3375 2.93125 5.57812 3.08438 5.775L2.275 6.58437C2.1 6.78125 2.31875 6.97813 2.31875 6.97813L1.37813 7.91875C1.29063 8.02813 0.4375 8.90312 0.4375 9.625C0.4375 9.66875 0.4375 9.69063 0.459375 9.7125L1.55313 11.9C1.575 11.9656 1.64062 11.9875 1.68437 12.0094C1.70625 12.0094 1.90313 12.075 2.1875 12.075C2.1875 12.0969 2.16562 13.3219 2.16562 13.3219C2.16562 13.4531 2.25312 13.5406 2.38437 13.5406C2.51562 13.5406 2.60312 13.4531 2.60312 13.3219V12.7094C2.93125 13.1031 3.45625 13.5406 4.13437 13.5406C4.8125 13.5406 6.05938 13.1031 7.15313 12.7094C7.35 12.6437 7.525 12.5781 7.7 12.5125C7.74375 12.4906 7.7875 12.4906 7.85313 12.4688V13.3438C7.85313 13.475 7.94063 13.5625 8.07188 13.5625C8.20313 13.5625 8.29063 13.475 8.29063 13.3438V12.3594C8.68438 12.2719 9.05625 12.2281 9.38438 12.25H10.9156C11.2875 12.25 11.7906 12.1187 11.9437 11.725C11.9875 11.6156 12.0094 11.5063 12.0094 11.375H13.5406C13.6719 11.375 13.7594 11.2875 13.7594 11.1562V5.25C13.7812 5.11875 13.6938 5.03125 13.5625 5.03125ZM11.1562 5.46875V6.65L10.5875 6.36562C10.5656 6.34375 10.5437 6.34375 10.5 6.34375C10.4563 6.34375 10.4344 6.34375 10.4125 6.36562L9.84375 6.65V5.46875H11.1562ZM4.76875 6.67188C4.74687 6.62813 4.6375 6.5625 4.6375 6.5625C4.9 6.5625 5.11875 6.51875 5.3375 6.45312L5.25 6.71563L5.03125 7.28437C5.03125 7.28437 4.79062 6.67188 4.76875 6.67188ZM5.84063 6.36562L6.3 6.825L6.08125 7.24062L5.70937 6.7375L5.84063 6.36562ZM6.23438 2.1875C6.0375 2.34063 5.8625 2.5375 5.73125 2.7125C5.35938 3.25937 5.03125 3.28125 5.03125 3.28125H3.87188C3.95938 3.19375 4.04687 3.08438 4.1125 2.975C4.375 2.58125 4.85625 2.1875 5.25 2.1875H6.23438ZM7.91875 2.5375C8.02813 2.69063 8.05 2.82188 7.98438 2.90937C7.89687 3.08438 7.525 3.28125 6.78125 3.28125H6.75938C6.71562 2.8875 6.65 2.60312 6.60625 2.45C6.84688 2.29688 7.0875 2.1875 7.32812 2.1875C7.56875 2.1875 7.76562 2.29688 7.91875 2.5375ZM2.40625 1.96875C2.40625 1.18125 3.04063 0.853125 3.7625 0.721875C3.39063 1.11562 3.28125 1.61875 3.28125 1.96875C3.28125 2.1 3.36875 2.1875 3.5 2.1875C3.60938 2.1875 3.71875 2.1 3.71875 1.96875C3.71875 1.8375 3.7625 0.7875 4.83437 0.678125C5.775 0.765625 6.0375 1.42188 6.10313 1.75H5.25C4.65938 1.75 4.06875 2.23125 3.7625 2.7125C3.39063 3.25937 3.0625 3.28125 3.0625 3.28125H2.625C2.45 3.28125 2.40625 3.17188 2.40625 3.0625V1.96875ZM2.84375 4.59375C2.77813 4.59375 2.40625 4.57188 2.40625 4.15625C2.40625 3.7625 2.58125 3.71875 2.625 3.71875H5.03125C5.09688 3.71875 5.6 3.69688 6.08125 2.975C6.125 2.90938 6.16875 2.84375 6.23438 2.77813C6.27812 2.975 6.34375 3.30313 6.34375 3.74063C6.34375 3.7625 6.43125 4.96562 5.79688 5.66563C5.5125 5.97187 5.09688 6.125 4.59375 6.125C4.57188 6.125 3.43438 6.10313 3.0625 4.74688C3.01875 4.65938 2.93125 4.59375 2.84375 4.59375ZM3.30313 6.19062L4.26562 6.825L3.675 7.56875L2.7125 6.78125L3.30313 6.19062ZM0.875 9.58125C0.91875 9.12187 1.46562 8.46562 1.68437 8.24687L2.64688 7.28437L3.56562 8.05C3.60937 8.09375 3.65312 8.09375 3.69687 8.09375H3.71875C3.78437 8.09375 3.82813 8.05 3.87188 8.00625L4.50625 7.19688L4.8125 7.94062C4.85625 8.02812 4.92188 8.07188 5.00938 8.07188C5.09687 8.07188 5.18437 8.02812 5.20625 7.94062L5.49062 7.21875L5.90625 7.7875C5.95 7.85312 6.01562 7.875 6.10313 7.875C6.16875 7.875 6.23438 7.83125 6.27813 7.76562L6.62812 7.04375L7.175 7.175V10.6531C6.84687 10.7625 6.45312 10.8938 6.0375 11.025C5.70937 11.1344 5.38125 11.2438 5.075 11.3531C4.70312 11.4844 4.26562 11.3313 4.06875 10.9812L3.21563 9.51562C3.15 9.40625 3.01875 9.38438 2.90937 9.45C2.8 9.51562 2.77813 9.64687 2.84375 9.75625L3.45625 10.7625C3.10625 11.7906 2.16563 11.7031 1.88125 11.6375L0.875 9.58125ZM11.55 11.55C11.4844 11.725 11.1781 11.8125 10.9375 11.8125H9.42812C8.70625 11.7688 7.9625 11.9875 7.59063 12.1188C7.41563 12.1844 7.21875 12.25 7.04375 12.3156C6.01562 12.6656 4.76875 13.125 4.15625 13.125C3.39062 13.125 2.84375 12.3375 2.66875 12.0531C3.04062 11.9656 3.45625 11.7688 3.7625 11.2438C4.00313 11.6156 4.41875 11.8344 4.85625 11.8344C4.9875 11.8344 5.11875 11.8125 5.25 11.7688C5.53438 11.6812 5.8625 11.5719 6.2125 11.4406C7.175 11.1125 8.35625 10.7188 8.6625 10.7188H10.1937C10.2594 10.7188 10.3906 10.7625 10.4125 10.9375H9.84375C9.7125 10.9375 9.625 11.025 9.625 11.1562C9.625 11.2875 9.7125 11.375 9.84375 11.375C9.84375 11.375 11.5063 11.3969 11.5938 11.3969C11.5938 11.4406 11.5719 11.5062 11.55 11.55ZM13.3438 10.9375H10.85C10.8281 10.4563 10.4562 10.2812 10.1937 10.2812H8.6625C8.46562 10.2812 8.1375 10.3687 7.65625 10.5V5.46875H9.40625V7C9.40625 7.06563 9.45 7.15313 9.51562 7.19688C9.58125 7.24063 9.66875 7.24063 9.73438 7.19688L10.5219 6.80312L11.3094 7.19688C11.3094 7.21875 11.3313 7.21875 11.375 7.21875C11.4187 7.21875 11.4625 7.21875 11.4844 7.19688C11.55 7.15313 11.5938 7.0875 11.5938 7V5.46875H13.3438V10.9375Z" fill="#726C6C"/>
<path d="M9.40625 9.40625H8.53125C8.4 9.40625 8.3125 9.49375 8.3125 9.625C8.3125 9.75625 8.4 9.84375 8.53125 9.84375H9.40625C9.5375 9.84375 9.625 9.75625 9.625 9.625C9.625 9.49375 9.5375 9.40625 9.40625 9.40625Z" fill="#726C6C"/>
<path d="M8.53125 9.1875H8.96875C9.1 9.1875 9.1875 9.1 9.1875 8.96875C9.1875 8.8375 9.1 8.75 8.96875 8.75H8.53125C8.4 8.75 8.3125 8.8375 8.3125 8.96875C8.3125 9.1 8.4 9.1875 8.53125 9.1875Z" fill="#726C6C"/>
</g>
<defs>
<clipPath id="clip0_874_884">
<rect width="14" height="14" fill="white"/>
</clipPath>
</defs>
</svg>
