<svg width="25" height="24" viewBox="0 0 25 24" fill="none" xmlns="http://www.w3.org/2000/svg">
<path d="M15.2769 14.038L17.9269 10.118C18.1889 9.73204 17.6919 9.31304 17.3119 9.58904L14.4539 11.604C14.3583 11.6707 14.2445 11.7065 14.1279 11.7065C14.0114 11.7065 13.8976 11.6707 13.8019 11.604L11.6859 10.127C11.0529 9.69004 10.1479 9.85004 9.72294 10.462L7.07294 14.382C6.81094 14.768 7.30794 15.188 7.68794 14.911L10.5459 12.896C10.6416 12.8294 10.7554 12.7936 10.8719 12.7936C10.9885 12.7936 11.1023 12.8294 11.1979 12.896L13.3139 14.348C13.9469 14.81 14.8519 14.65 15.2769 14.038Z" fill="#2B2829"/>
<path fill-rule="evenodd" clip-rule="evenodd" d="M12.5 2.25C9.91415 2.25 7.4342 3.27723 5.60572 5.10571C3.77724 6.93419 2.75001 9.41414 2.75001 12C2.74823 13.3147 3.01318 14.6161 3.52883 15.8255C4.04448 17.0349 4.80011 18.1271 5.75001 19.036V21.5C5.74994 21.6189 5.77812 21.736 5.83223 21.8419C5.88634 21.9477 5.96483 22.0391 6.06123 22.1087C6.15762 22.1782 6.26917 22.2239 6.38666 22.2418C6.50416 22.2598 6.62424 22.2496 6.73701 22.212L9.51701 21.285C10.481 21.5947 11.4875 21.7516 12.5 21.75C17.885 21.75 22.25 17.385 22.25 12C22.25 6.615 17.885 2.25 12.5 2.25ZM4.25001 12C4.25069 10.2496 4.80809 8.54475 5.84161 7.13202C6.87513 5.7193 8.33121 4.67191 9.99927 4.14133C11.6673 3.61074 13.4609 3.62446 15.1207 4.18049C16.7804 4.73653 18.2203 5.80606 19.2321 7.23442C20.2439 8.66279 20.7752 10.376 20.7491 12.1262C20.723 13.8764 20.1409 15.573 19.087 16.9705C18.033 18.3681 16.5619 19.3942 14.8863 19.9005C13.2107 20.4068 11.4175 20.3671 9.76601 19.787C9.60894 19.7318 9.43796 19.7304 9.28001 19.783L7.25001 20.459V18.709C7.25015 18.6033 7.22795 18.4988 7.18486 18.4023C7.14178 18.3058 7.07878 18.2195 7.00001 18.149C6.13387 17.376 5.44107 16.4285 4.96711 15.3687C4.49316 14.309 4.24877 13.1609 4.25001 12Z" fill="#2B2829"/>
</svg>
