<svg width="19" height="19" viewBox="0 0 19 19" fill="none" xmlns="http://www.w3.org/2000/svg">
<path d="M12.6369 15.3337C10.5501 14.7986 8.64534 13.7125 7.12197 12.1892C5.5986 10.6658 4.51255 8.76105 3.97743 6.67419C3.56868 5.06844 4.94943 3.70419 6.60693 3.70419H7.35693C7.77093 3.70419 8.10318 4.04094 8.14443 4.45269C8.21231 5.13549 8.37356 5.80574 8.62368 6.44469L7.48368 7.58469C8.37349 9.44085 9.87028 10.9376 11.7264 11.8274L12.8664 10.6874C13.5053 10.9378 14.1756 11.0993 14.8584 11.1674C15.2709 11.2079 15.6069 11.5402 15.6069 11.9542V12.7042C15.6069 14.3617 14.2427 15.7424 12.6369 15.3337Z" stroke="#898384" stroke-linecap="round" stroke-linejoin="round"/>
</svg>
