<svg width="24" height="24" viewBox="0 0 24 24" fill="none" xmlns="http://www.w3.org/2000/svg">
<path d="M21.7316 19.2709H8.85036C7.35036 19.2709 6.09786 18.2059 5.80536 16.7959L18.4991 15.2996C19.6579 15.1646 20.5841 14.3096 20.8091 13.1696L22.2341 6.06711C22.2641 5.90586 22.2266 5.73711 22.1254 5.60961C22.0241 5.47836 21.8704 5.39961 21.7054 5.39211L18.0941 5.23086C18.0791 2.50461 15.8554 0.292106 13.1254 0.292106C10.5454 0.292106 8.42286 2.26461 8.17911 4.78086L5.59161 4.66461C5.37786 3.68586 4.92036 2.76711 4.24161 1.99086L2.67411 0.359606C2.45661 0.134606 2.10036 0.130856 1.87911 0.344606C1.65411 0.558356 1.64661 0.914606 1.86411 1.13961L3.41286 2.75211C4.18911 3.63711 4.61661 4.77711 4.61661 5.95461V16.1621C4.61661 16.1996 4.62036 16.2371 4.62036 16.2746C4.62036 16.3084 4.62036 16.3384 4.62411 16.3684C4.62411 16.3721 4.62411 16.3759 4.62786 16.3796C4.72161 18.2284 6.00411 19.7659 7.72911 20.2421C7.40661 20.6209 7.21161 21.1084 7.21161 21.6446C7.21161 22.8409 8.18286 23.8121 9.37911 23.8121C10.5754 23.8121 11.5466 22.8409 11.5466 21.6446C11.5466 21.1796 11.4004 20.7484 11.1491 20.3959H16.0541C15.8066 20.7484 15.6566 21.1796 15.6566 21.6446C15.6566 22.8409 16.6279 23.8121 17.8241 23.8121C19.0204 23.8121 19.9954 22.8409 19.9954 21.6446C19.9954 21.1796 19.8454 20.7484 19.5979 20.3959H21.7316C22.0429 20.3959 22.2941 20.1446 22.2941 19.8334C22.2941 19.5221 22.0429 19.2709 21.7316 19.2709ZM13.1254 1.41711C15.2179 1.41711 16.9241 3.09711 16.9691 5.17836V5.26086C16.9691 5.62086 16.9204 5.96961 16.8266 6.29961C16.8191 6.32586 16.8116 6.35211 16.8041 6.37836C16.3766 7.78836 15.1541 8.85711 13.6616 9.06711C13.4854 9.09336 13.3054 9.10461 13.1254 9.10461C12.9266 9.10461 12.7279 9.08961 12.5366 9.05961C11.0029 8.82336 9.76536 7.67211 9.39411 6.18711C9.37536 6.11211 9.36036 6.03711 9.34536 5.96211C9.30411 5.73336 9.28161 5.50086 9.28161 5.26086C9.28161 5.11836 9.28911 4.97586 9.30411 4.83336C9.51786 2.91711 11.1491 1.41711 13.1254 1.41711ZM5.74161 15.6709V5.95461C5.74161 5.90211 5.73411 5.84961 5.73411 5.79711L8.20161 5.90961C8.21661 6.04836 8.23911 6.17586 8.26911 6.31086C8.44911 7.15086 8.84661 7.91586 9.39411 8.54211C9.82911 9.03336 10.3616 9.44211 10.9579 9.73086C11.6104 10.0496 12.3491 10.2296 13.1254 10.2296C13.9016 10.2296 14.6404 10.0496 15.2929 9.73086C15.8666 9.45336 16.3766 9.06711 16.8041 8.60211C17.3291 8.02086 17.7229 7.31211 17.9291 6.52836C17.9441 6.46836 17.9591 6.41211 17.9704 6.35211L21.0004 6.48711L19.7066 12.9484C19.5754 13.6084 19.0391 14.1034 18.3679 14.1821L5.74161 15.6709ZM9.37911 22.6871C8.80536 22.6871 8.33661 22.2184 8.33661 21.6446C8.33661 21.0671 8.80536 20.5984 9.37911 20.5984C9.95286 20.5984 10.4216 21.0671 10.4216 21.6446C10.4216 22.2184 9.95286 22.6871 9.37911 22.6871ZM17.8241 22.6871C17.2504 22.6871 16.7816 22.2184 16.7816 21.6446C16.7816 21.0671 17.2504 20.5984 17.8241 20.5984C18.4016 20.5984 18.8704 21.0671 18.8704 21.6446C18.8704 22.2184 18.4016 22.6871 17.8241 22.6871Z" fill="#5A5555"/>
<path d="M11.1979 6.04473L12.0679 6.91848C12.1842 7.03473 12.3379 7.09848 12.5029 7.09848C12.5142 7.09848 12.5254 7.09848 12.5367 7.09473C12.6979 7.09098 12.8404 7.02348 12.9529 6.91473L13.7104 6.15723L14.7867 5.08098L15.3792 4.48848C15.4954 4.37223 15.5592 4.21473 15.5592 4.04598C15.5592 3.88098 15.4954 3.72348 15.3792 3.60723C15.1504 3.38223 14.7229 3.38223 14.4979 3.60723L13.1029 5.00223L12.4992 5.60598L11.8392 4.94598L11.7417 4.84848C11.5092 4.61598 11.1042 4.61598 10.8717 4.84848C10.8567 4.86348 10.8417 4.88223 10.8267 4.90098C10.7404 5.00973 10.6917 5.14473 10.6917 5.28348C10.6917 5.44848 10.7554 5.60223 10.8717 5.71848L11.1979 6.04473Z" fill="#5A5555"/>
</svg>
