<svg width="24" height="24" viewBox="0 0 24 24" fill="none" xmlns="http://www.w3.org/2000/svg">
<path d="M9.57801 5.48699C9.71408 5.34194 9.90219 5.25687 10.101 5.25049C10.2998 5.24412 10.4929 5.31696 10.638 5.45299V11.25H19.5C19.6989 11.25 19.8897 11.329 20.0303 11.4697C20.171 11.6103 20.25 11.8011 20.25 12C20.25 12.1989 20.171 12.3897 20.0303 12.5303C19.8897 12.671 19.6989 12.75 19.5 12.75H10.638V18.547C10.4929 18.683 10.2998 18.7559 10.101 18.7495C9.90219 18.7431 9.71408 18.658 9.57801 18.513L3.95301 12.513C3.82266 12.374 3.75012 12.1906 3.75012 12C3.75012 11.8094 3.82266 11.626 3.95301 11.487L9.57801 5.48699Z" fill="#BA27B7"/>
</svg>
