<svg width="20" height="22" viewBox="0 0 20 22" fill="none" xmlns="http://www.w3.org/2000/svg">
<path d="M9 20.9998L7.522 18.6458C6.492 17.0058 5.977 16.1858 5.161 16.0388C3.831 15.7988 2.458 16.7038 1.5 17.5088" stroke="#5A5555" stroke-width="1.5" stroke-linecap="round" stroke-linejoin="round"/>
<path d="M10 8H6M14 13H6M15 1V3M10 1V3M5 1V3M1.5 8V15.028C1.5 16.231 1.5 16.832 1.799 17.315C2.097 17.799 2.635 18.068 3.711 18.605L7.655 20.578C8.496 20.998 8.505 21 9.445 21H12.5C15.328 21 16.743 21 17.621 20.121C18.5 19.243 18.5 17.828 18.5 15V8C18.5 5.172 18.5 3.757 17.621 2.879C16.743 2 15.328 2 12.5 2H7.5C4.672 2 3.257 2 2.379 2.879C1.5 3.757 1.5 5.172 1.5 8Z" stroke="#5A5555" stroke-width="1.5" stroke-linecap="round" stroke-linejoin="round"/>
</svg>
