<svg width="24" height="24" viewBox="0 0 24 24" fill="none" xmlns="http://www.w3.org/2000/svg">
<path d="M11 21.9998L9.522 19.6458C8.492 18.0058 7.977 17.1858 7.161 17.0388C5.831 16.7988 4.458 17.7038 3.5 18.5088" stroke="#5A5555" stroke-width="1.5" stroke-linecap="round" stroke-linejoin="round"/>
<path d="M12 9H8M16 14H8M17 2V4M12 2V4M7 2V4M3.5 9V16.028C3.5 17.231 3.5 17.832 3.799 18.315C4.097 18.799 4.635 19.068 5.711 19.605L9.655 21.578C10.496 21.998 10.505 22 11.445 22H14.5C17.328 22 18.743 22 19.621 21.121C20.5 20.243 20.5 18.828 20.5 16V9C20.5 6.172 20.5 4.757 19.621 3.879C18.743 3 17.328 3 14.5 3H9.5C6.672 3 5.257 3 4.379 3.879C3.5 4.757 3.5 6.172 3.5 9Z" stroke="#5A5555" stroke-width="1.5" stroke-linecap="round" stroke-linejoin="round"/>
</svg>
