<svg width="24" height="24" viewBox="0 0 24 24" fill="none" xmlns="http://www.w3.org/2000/svg">
<path d="M18.75 4.5H5.25C4.25544 4.5 3.30161 4.89509 2.59835 5.59835C1.89509 6.30161 1.5 7.25544 1.5 8.25V15.75C1.5 16.7446 1.89509 17.6984 2.59835 18.4017C3.30161 19.1049 4.25544 19.5 5.25 19.5H10.5C10.6989 19.5 10.8897 19.421 11.0303 19.2803C11.171 19.1397 11.25 18.9489 11.25 18.75C11.25 18.5511 11.171 18.3603 11.0303 18.2197C10.8897 18.079 10.6989 18 10.5 18H5.25C4.65326 18 4.08097 17.7629 3.65901 17.341C3.23705 16.919 3 16.3467 3 15.75V10.5H21V11.25C21 11.4489 21.079 11.6397 21.2197 11.7803C21.3603 11.921 21.5511 12 21.75 12C21.9489 12 22.1397 11.921 22.2803 11.7803C22.421 11.6397 22.5 11.4489 22.5 11.25V8.25C22.5 7.25544 22.1049 6.30161 21.4016 5.59835C20.6984 4.89509 19.7446 4.5 18.75 4.5ZM3 9V8.25C3 7.65326 3.23705 7.08097 3.65901 6.65901C4.08097 6.23705 4.65326 6 5.25 6H18.75C19.3467 6 19.919 6.23705 20.341 6.65901C20.7629 7.08097 21 7.65326 21 8.25V9H3Z" fill="#095FC2"/>
<path d="M19.2825 15.9679C19.2127 15.8976 19.1298 15.8418 19.0384 15.8038C18.947 15.7657 18.849 15.7461 18.75 15.7461C18.6509 15.7461 18.5529 15.7657 18.4615 15.8038C18.3701 15.8418 18.2872 15.8976 18.2175 15.9679L17.625 16.5679L17.0325 15.9679C16.8912 15.8267 16.6997 15.7474 16.5 15.7474C16.3002 15.7474 16.1087 15.8267 15.9675 15.9679C15.8262 16.1092 15.7469 16.3007 15.7469 16.5004C15.7469 16.7002 15.8262 16.8917 15.9675 17.0329L16.5675 17.6254L15.9675 18.2179C15.8972 18.2877 15.8414 18.3706 15.8033 18.462C15.7652 18.5534 15.7456 18.6514 15.7456 18.7504C15.7456 18.8495 15.7652 18.9475 15.8033 19.0389C15.8414 19.1303 15.8972 19.2132 15.9675 19.2829C16.0372 19.3532 16.1201 19.409 16.2115 19.4471C16.3029 19.4852 16.4009 19.5048 16.5 19.5048C16.599 19.5048 16.697 19.4852 16.7884 19.4471C16.8798 19.409 16.9627 19.3532 17.0325 19.2829L17.625 18.6829L18.2175 19.2829C18.2872 19.3532 18.3701 19.409 18.4615 19.4471C18.5529 19.4852 18.6509 19.5048 18.75 19.5048C18.849 19.5048 18.947 19.4852 19.0384 19.4471C19.1298 19.409 19.2127 19.3532 19.2825 19.2829C19.3527 19.2132 19.4085 19.1303 19.4466 19.0389C19.4847 18.9475 19.5043 18.8495 19.5043 18.7504C19.5043 18.6514 19.4847 18.5534 19.4466 18.462C19.4085 18.3706 19.3527 18.2877 19.2825 18.2179L18.6825 17.6254L19.2825 17.0329C19.3527 16.9632 19.4085 16.8803 19.4466 16.7889C19.4847 16.6975 19.5043 16.5995 19.5043 16.5004C19.5043 16.4014 19.4847 16.3034 19.4466 16.212C19.4085 16.1206 19.3527 16.0377 19.2825 15.9679Z" fill="#095FC2"/>
<path d="M17.625 12.75C16.6608 12.75 15.7183 13.0359 14.9166 13.5716C14.1149 14.1073 13.4901 14.8686 13.1211 15.7594C12.7521 16.6502 12.6556 17.6304 12.8437 18.5761C13.0318 19.5217 13.4961 20.3904 14.1779 21.0721C14.8596 21.7539 15.7283 22.2182 16.6739 22.4063C17.6196 22.5944 18.5998 22.4979 19.4906 22.1289C20.3814 21.7599 21.1427 21.1351 21.6784 20.3334C22.2141 19.5317 22.5 18.5892 22.5 17.625C22.498 16.3327 21.9838 15.0939 21.07 14.18C20.1561 13.2662 18.9173 12.752 17.625 12.75ZM17.625 21C16.9575 21 16.305 20.8021 15.75 20.4312C15.1949 20.0604 14.7624 19.5333 14.5069 18.9166C14.2515 18.2999 14.1846 17.6213 14.3149 16.9666C14.4451 16.3119 14.7665 15.7105 15.2385 15.2385C15.7105 14.7665 16.3119 14.4451 16.9666 14.3148C17.6213 14.1846 18.2999 14.2515 18.9166 14.5069C19.5333 14.7624 20.0604 15.1949 20.4312 15.7499C20.8021 16.305 21 16.9575 21 17.625C20.998 18.5195 20.6418 19.3768 20.0093 20.0093C19.3768 20.6418 18.5195 20.998 17.625 21Z" fill="#095FC2"/>
<path d="M6.70876 12.1328H4.65076C4.45184 12.1328 4.26108 12.2118 4.12043 12.3525C3.97977 12.4931 3.90076 12.6839 3.90076 12.8828C3.90076 13.0817 3.97977 13.2725 4.12043 13.4131C4.26108 13.5538 4.45184 13.6328 4.65076 13.6328H6.70876C6.90767 13.6328 7.09843 13.5538 7.23909 13.4131C7.37974 13.2725 7.45876 13.0817 7.45876 12.8828C7.45876 12.6839 7.37974 12.4931 7.23909 12.3525C7.09843 12.2118 6.90767 12.1328 6.70876 12.1328ZM6.70876 14.1901H4.65076C4.45184 14.1901 4.26108 14.2691 4.12043 14.4097C3.97977 14.5504 3.90076 14.7412 3.90076 14.9401C3.90076 15.139 3.97977 15.3297 4.12043 15.4704C4.26108 15.611 4.45184 15.6901 4.65076 15.6901H6.70876C6.90767 15.6901 7.09843 15.611 7.23909 15.4704C7.37974 15.3297 7.45876 15.139 7.45876 14.9401C7.45876 14.7412 7.37974 14.5504 7.23909 14.4097C7.09843 14.2691 6.90767 14.1901 6.70876 14.1901Z" fill="#095FC2"/>
</svg>
