<svg width="22" height="24" viewBox="0 0 22 24" fill="none" xmlns="http://www.w3.org/2000/svg">
<path d="M6.24832 22.9932C7.75633 22.9932 8.97882 21.7707 8.97882 20.2627C8.97882 18.7547 7.75633 17.5322 6.24832 17.5322C4.74031 17.5322 3.51782 18.7547 3.51782 20.2627C3.51782 21.7707 4.74031 22.9932 6.24832 22.9932Z" stroke="#5A5555" stroke-width="0.8" stroke-miterlimit="10" stroke-linecap="round" stroke-linejoin="round"/>
<path d="M6.24835 20.2623C5.9292 20.2623 5.64551 19.9786 5.64551 19.6595C5.64551 19.3403 5.9292 19.0566 6.24835 19.0566C6.46111 19.0566 6.67388 19.163 6.78026 19.3403" stroke="#5A5555" stroke-width="0.8" stroke-miterlimit="10" stroke-linecap="round" stroke-linejoin="round"/>
<path d="M6.24822 20.2627C6.56737 20.2627 6.85106 20.5464 6.85106 20.8655C6.85106 21.1847 6.56737 21.4684 6.24822 21.4684C6.03546 21.4684 5.82269 21.362 5.71631 21.1847" stroke="#5A5555" stroke-width="0.8" stroke-miterlimit="10" stroke-linecap="round" stroke-linejoin="round"/>
<path d="M6.24829 19.0571V18.7734" stroke="#5A5555" stroke-width="0.8" stroke-miterlimit="10" stroke-linecap="round" stroke-linejoin="round"/>
<path d="M6.24829 21.7869V21.4678" stroke="#5A5555" stroke-width="0.8" stroke-miterlimit="10" stroke-linecap="round" stroke-linejoin="round"/>
<path d="M7.52503 11.4321C7.52503 12.425 6.88673 13.2406 6.00021 13.5243V13.6661C6.00021 14.0562 5.68106 14.3753 5.29099 14.3753C4.90092 14.3753 4.58177 14.0562 4.58177 13.6661V13.4888C4.08531 13.3115 3.65978 12.9923 3.37609 12.5313C3.16333 12.1767 3.30517 11.7512 3.62432 11.5739C3.97893 11.3611 4.40446 11.503 4.58177 11.8221C4.72361 12.0704 4.97184 12.2122 5.25553 12.2122C5.68106 12.2122 6.03567 11.8576 6.03567 11.4321C6.03567 11.0065 5.68106 10.6519 5.25553 10.6519C5.22007 10.6519 5.22007 10.6519 5.18461 10.6519C3.97893 10.6165 3.02148 9.65901 3.02148 8.45333C3.02148 7.49589 3.65978 6.64482 4.51085 6.36113V6.18383C4.51085 5.79376 4.83 5.47461 5.22007 5.47461C5.61014 5.47461 5.92929 5.79376 5.92929 6.18383V6.32567C6.42574 6.50298 6.85127 6.82213 7.13496 7.31858C7.34773 7.67319 7.20588 8.09872 6.88673 8.27603C6.53212 8.45333 6.10659 8.34695 5.92929 8.0278C5.78744 7.77957 5.53921 7.63773 5.25553 7.63773C4.82999 7.63773 4.47539 7.99234 4.47539 8.41787C4.47539 8.8434 4.82999 9.19801 5.25553 9.19801H5.32645C6.56758 9.26894 7.52503 10.2264 7.52503 11.4321Z" stroke="#5A5555" stroke-width="0.8" stroke-miterlimit="10" stroke-linecap="round" stroke-linejoin="round"/>
<path d="M4.40426 18.2413H2.4539C1.6383 18.2413 1 17.603 1 16.7874V3.09941C1 2.28381 1.6383 1.64551 2.4539 1.64551H8.16312C8.97872 1.64551 9.61702 2.28381 9.61702 3.09941V15.6171" stroke="#5A5555" stroke-width="0.8" stroke-miterlimit="10" stroke-linecap="round" stroke-linejoin="round"/>
<path d="M7.17012 1.64551L6.85097 2.53203H3.76587L3.48218 1.64551" stroke="#5A5555" stroke-width="0.8" stroke-miterlimit="10" stroke-linecap="round" stroke-linejoin="round"/>
<path d="M4.4043 16.3975H6.24827" stroke="#5A5555" stroke-width="0.8" stroke-miterlimit="10" stroke-linecap="round" stroke-linejoin="round"/>
<path d="M13.3048 11.0789C14.617 11.0789 15.6807 10.0152 15.6807 8.70304C15.6807 7.39087 14.617 6.32715 13.3048 6.32715C11.9927 6.32715 10.929 7.39087 10.929 8.70304C10.929 10.0152 11.9927 11.0789 13.3048 11.0789Z" stroke="#5A5555" stroke-width="0.8" stroke-miterlimit="10" stroke-linecap="round" stroke-linejoin="round"/>
<path d="M13.3049 8.70352C13.5177 8.49075 13.8368 8.49075 14.0496 8.70352C14.2624 8.91629 14.2624 9.23543 14.0496 9.4482C13.9078 9.59004 13.7305 9.62551 13.5532 9.59004" stroke="#5A5555" stroke-width="0.8" stroke-miterlimit="10" stroke-linecap="round" stroke-linejoin="round"/>
<path d="M13.3049 8.704C13.0921 8.91677 12.773 8.91677 12.5602 8.704C12.3474 8.49124 12.3474 8.17209 12.5602 7.95932C12.7021 7.81748 12.8794 7.78202 13.0567 7.81748" stroke="#5A5555" stroke-width="0.8" stroke-miterlimit="10" stroke-linecap="round" stroke-linejoin="round"/>
<path d="M14.0496 9.44922L14.2269 9.62652" stroke="#5A5555" stroke-width="0.8" stroke-miterlimit="10" stroke-linecap="round" stroke-linejoin="round"/>
<path d="M12.3474 7.78125L12.5602 7.95855" stroke="#5A5555" stroke-width="0.8" stroke-miterlimit="10" stroke-linecap="round" stroke-linejoin="round"/>
<path d="M10.22 15.5817L9.61719 15.0498" stroke="#5A5555" stroke-width="0.8" stroke-miterlimit="10" stroke-linecap="round" stroke-linejoin="round"/>
<path d="M9.61719 6.36145L14.7945 1.2196C15.0782 0.935914 15.5392 0.935914 15.8229 1.2196L20.7874 6.18414C21.0711 6.46783 21.0711 6.92882 20.7874 7.21251L12.4541 15.5458" stroke="#5A5555" stroke-width="0.8" stroke-miterlimit="10" stroke-linecap="round" stroke-linejoin="round"/>
<path d="M9.65259 14.4107C9.75897 14.2688 9.86535 14.127 9.97174 14.0206C10.8937 13.0986 12.3831 13.0986 13.3051 14.0206C13.4115 14.127 13.5178 14.2334 13.5888 14.3752" stroke="#5A5555" stroke-width="0.8" stroke-miterlimit="10" stroke-linecap="round" stroke-linejoin="round"/>
<path d="M19.4044 4.83594C19.1562 4.94232 18.8725 5.15509 18.6598 5.36785C17.7378 6.28984 17.7378 7.7792 18.6598 8.70119C18.7661 8.80757 18.8725 8.91395 19.0144 8.98487" stroke="#5A5555" stroke-width="0.8" stroke-miterlimit="10" stroke-linecap="round" stroke-linejoin="round"/>
<path d="M13.0215 2.99194C13.0924 3.09832 13.2342 3.24017 13.3406 3.34655C14.2626 4.26853 15.752 4.26853 16.674 3.34655C16.8867 3.13378 17.064 2.85009 17.1704 2.56641" stroke="#5A5555" stroke-width="0.8" stroke-miterlimit="10" stroke-linecap="round" stroke-linejoin="round"/>
<path d="M7.95044 18.0985V16.3254C7.95044 15.9354 8.26959 15.6162 8.65966 15.6162H20.2554C20.6455 15.6162 20.9646 15.9354 20.9646 16.3254V22.1056C20.9646 22.4956 20.6455 22.8148 20.2554 22.8148H8.65966C8.34051 22.8148 8.09228 22.6375 7.9859 22.3538" stroke="#5A5555" stroke-width="0.8" stroke-miterlimit="10" stroke-linecap="round" stroke-linejoin="round"/>
<path d="M7.95044 17.3535H20.9646" stroke="#5A5555" stroke-width="0.8" stroke-miterlimit="10" stroke-linecap="round" stroke-linejoin="round"/>
<path d="M8.65942 18.9502H20.9644" stroke="#5A5555" stroke-width="0.8" stroke-miterlimit="10" stroke-linecap="round" stroke-linejoin="round"/>
<path d="M9.3335 21.5029H10.3973" stroke="#5A5555" stroke-width="0.8" stroke-miterlimit="10" stroke-linecap="round" stroke-linejoin="round"/>
<path d="M11.6028 21.5029H12.7021" stroke="#5A5555" stroke-width="0.8" stroke-miterlimit="10" stroke-linecap="round" stroke-linejoin="round"/>
<path d="M19.0852 21.7153C19.4769 21.7153 19.7944 21.3978 19.7944 21.0061C19.7944 20.6144 19.4769 20.2969 19.0852 20.2969C18.6935 20.2969 18.376 20.6144 18.376 21.0061C18.376 21.3978 18.6935 21.7153 19.0852 21.7153Z" stroke="#5A5555" stroke-width="0.8" stroke-miterlimit="10" stroke-linecap="round" stroke-linejoin="round"/>
<path d="M16.2483 21.7153C16.64 21.7153 16.9575 21.3978 16.9575 21.0061C16.9575 20.6144 16.64 20.2969 16.2483 20.2969C15.8566 20.2969 15.5391 20.6144 15.5391 21.0061C15.5391 21.3978 15.8566 21.7153 16.2483 21.7153Z" stroke="#5A5555" stroke-width="0.8" stroke-miterlimit="10" stroke-linecap="round" stroke-linejoin="round"/>
</svg>
