<svg width="21" height="20" viewBox="0 0 21 20" fill="none" xmlns="http://www.w3.org/2000/svg">
<path d="M20.1966 8.56757L19.1991 6.70424C18.8333 6.02007 18.0324 5.69674 17.2899 5.93757L10.5008 8.15174L3.71078 5.93757C2.96661 5.69591 2.16744 6.02007 1.80161 6.70424L0.813278 8.55007C0.469944 9.12091 0.404944 9.80674 0.635778 10.4317C0.865778 11.0567 1.36161 11.5359 1.99328 11.7467L2.16828 11.8051L2.16328 14.8226C2.16328 16.4401 3.19244 17.8709 4.72744 18.3826L8.77911 19.7334C9.33161 19.9176 9.91161 20.0092 10.4924 20.0092C11.0733 20.0092 11.6533 19.9176 12.2058 19.7334L16.2608 18.3817C17.7966 17.8701 18.8291 16.4409 18.8299 14.8259V11.8051L19.0066 11.7459C19.6383 11.5351 20.1341 11.0559 20.3641 10.4309C20.5949 9.80591 20.5299 9.12007 20.1966 8.56757ZM1.41744 10.1434C1.27494 9.75674 1.31494 9.33257 1.53828 8.96174L2.53578 7.09841C2.67244 6.84257 2.93578 6.69257 3.21328 6.69257C3.29244 6.69257 3.37244 6.70507 3.45161 6.73091L9.88411 8.82841L8.24078 11.8576C7.91828 12.3951 7.27744 12.6334 6.68494 12.4326L2.25744 10.9567C1.86661 10.8267 1.56078 10.5301 1.41744 10.1442V10.1434ZM10.0708 19.1567C9.72161 19.1251 9.37661 19.0534 9.04328 18.9417L4.99161 17.5909C3.79744 17.1926 2.99578 16.0809 2.99661 14.8226L3.00078 12.0826L6.42078 13.2226C6.64911 13.2984 6.88161 13.3351 7.10994 13.3351C7.85161 13.3351 8.55578 12.9492 8.96411 12.2692L10.0758 10.2217L10.0708 19.1567ZM17.9966 14.8259C17.9966 16.0817 17.1924 17.1926 15.9974 17.5901L11.9424 18.9417C11.6058 19.0542 11.2566 19.1259 10.9041 19.1576L10.9091 10.1926L12.0441 12.2842C12.4441 12.9526 13.1466 13.3351 13.8874 13.3351C14.1166 13.3351 14.3499 13.2984 14.5783 13.2226L17.9966 12.0834V14.8259ZM19.5824 10.1434C19.4391 10.5292 19.1333 10.8251 18.7424 10.9559L14.3149 12.4317C13.7191 12.6309 13.0808 12.3926 12.7683 11.8717L11.1166 8.82757L17.5491 6.73007C17.9058 6.61257 18.2899 6.77007 18.4658 7.09757L19.4733 8.97924C19.6866 9.33257 19.7266 9.75674 19.5841 10.1426L19.5824 10.1434ZM4.46578 4.87591C4.30494 4.71257 4.30661 4.44757 4.47078 4.28674L8.45578 0.364239C8.93911 -0.120761 9.73244 -0.121595 10.2208 0.366739L11.7916 1.93757C12.2649 1.51424 13.0541 1.52674 13.5108 1.98341L15.8058 4.27757C15.9683 4.44007 15.9683 4.70424 15.8058 4.86674C15.6433 5.02924 15.3791 5.02924 15.2166 4.86674L12.9216 2.57257C12.7591 2.41007 12.4949 2.41007 12.3324 2.57257L8.70828 6.13091C8.62661 6.21091 8.52078 6.25091 8.41578 6.25091C8.30744 6.25091 8.19994 6.20924 8.11911 6.12674C7.95828 5.96257 7.96078 5.69841 8.12411 5.53757L11.1958 2.52174L9.63078 0.956739C9.46828 0.794239 9.20411 0.794239 9.04161 0.956739L5.05494 4.88007C4.97328 4.96007 4.86828 5.00007 4.76244 5.00007C4.65494 5.00007 4.54661 4.95841 4.46578 4.87591Z" fill="#726C6C"/>
</svg>
