<svg width="17" height="17" viewBox="0 0 17 17" fill="none" xmlns="http://www.w3.org/2000/svg">
<path fill-rule="evenodd" clip-rule="evenodd" d="M8.03549 1.80324C7.57499 1.86399 7.00649 1.99449 6.19799 2.18124L5.27624 2.39424C4.59374 2.55174 4.12274 2.66124 3.76349 2.78424C3.41624 2.90349 3.21974 3.02049 3.07199 3.16899C2.92349 3.31674 2.80649 3.51324 2.68724 3.86049C2.56424 4.21974 2.45474 4.68999 2.29724 5.37324L2.08424 6.29424C1.89749 7.10349 1.76699 7.67199 1.70624 8.13249C1.64624 8.58099 1.66049 8.88474 1.73999 9.16074C1.81874 9.43674 1.96799 9.70149 2.25599 10.0502C2.55224 10.4087 2.96399 10.822 3.55124 11.4092L4.92374 12.7817C5.94299 13.801 6.66824 14.5247 7.29224 15.0002C7.90274 15.4667 8.34974 15.6415 8.80349 15.6415C9.25724 15.6415 9.70424 15.4667 10.3155 15.0002C10.9387 14.5247 11.6647 13.8002 12.684 12.781C13.704 11.761 14.4277 11.0357 14.904 10.4125C15.369 9.80124 15.5445 9.35499 15.5445 8.90049C15.5445 8.44674 15.3697 8.00049 14.9032 7.38924C14.4277 6.76524 13.7032 6.03924 12.684 5.01999L11.3115 3.64749C10.725 3.06099 10.3117 2.64924 9.95399 2.35299C9.60449 2.06499 9.33974 1.91574 9.06374 1.83699C8.78774 1.75749 8.48399 1.74399 8.03624 1.80324M7.88924 0.687991C8.42699 0.616741 8.89874 0.618991 9.37424 0.755491C9.85049 0.891991 10.2517 1.14024 10.6702 1.48524C11.0752 1.81974 11.5252 2.26974 12.0885 2.83299L13.5105 4.25499C14.493 5.23749 15.2715 6.01599 15.798 6.70749C16.341 7.41774 16.6702 8.10174 16.6702 8.90049C16.6702 9.69999 16.341 10.384 15.7987 11.0942C15.2715 11.7857 14.4937 12.5642 13.5105 13.5467L13.4505 13.6067C12.468 14.5892 11.6895 15.3677 10.998 15.8942C10.2877 16.4372 9.60299 16.7665 8.80424 16.7665C8.00549 16.7665 7.32149 16.4372 6.61049 15.895C5.91974 15.3677 5.14124 14.59 4.15799 13.6067L2.73674 12.184C2.17424 11.6215 1.72349 11.1707 1.38899 10.7665C1.04399 10.3472 0.795738 9.94599 0.659238 9.47049C0.522738 8.99424 0.520488 8.52249 0.591738 7.98474C0.659988 7.46424 0.803988 6.84324 0.982488 6.06774L1.20749 5.09049C1.35749 4.44324 1.47899 3.91524 1.62374 3.49449C1.77524 3.05424 1.96499 2.68449 2.27699 2.37249C2.58899 2.06049 2.95949 1.86999 3.39899 1.71999C3.81974 1.57449 4.34774 1.45299 4.99499 1.30374L5.97224 1.07874C6.74774 0.898741 7.36874 0.756241 7.88924 0.687241M6.72449 5.70024C6.54865 5.5244 6.31016 5.42562 6.06149 5.42562C5.81282 5.42562 5.57433 5.5244 5.39849 5.70024C5.22265 5.87608 5.12387 6.11457 5.12387 6.36324C5.12387 6.61191 5.22265 6.8504 5.39849 7.02624C5.48555 7.11331 5.58892 7.18237 5.70268 7.22949C5.81643 7.27661 5.93836 7.30086 6.06149 7.30086C6.18462 7.30086 6.30654 7.27661 6.4203 7.22949C6.53406 7.18237 6.63742 7.11331 6.72449 7.02624C6.81155 6.93917 6.88062 6.83581 6.92774 6.72205C6.97486 6.6083 6.99911 6.48637 6.99911 6.36324C6.99911 6.24011 6.97486 6.11819 6.92774 6.00443C6.88062 5.89067 6.81155 5.78731 6.72449 5.70024ZM4.60274 4.90524C4.98952 4.51836 5.51416 4.30097 6.06122 4.3009C6.60829 4.30083 7.13298 4.51808 7.51986 4.90487C7.90675 5.29165 8.12414 5.81628 8.12421 6.36335C8.12428 6.91042 7.90702 7.43511 7.52024 7.82199C7.13335 8.20888 6.60863 8.42623 6.06149 8.42623C5.51435 8.42623 4.98962 8.20888 4.60274 7.82199C4.21585 7.43511 3.9985 6.91038 3.9985 6.36324C3.9985 5.8161 4.21585 5.29213 4.60274 4.90524ZM9.35024 8.78349C9.17684 8.7901 9.01302 8.86474 8.89424 8.99124C8.60324 9.28224 8.67974 9.57249 8.76149 9.65424C8.84399 9.73599 9.13424 9.81174 9.42449 9.52149C10.0125 8.93349 11.028 8.73849 11.6782 9.38874C12.183 9.89349 12.1792 10.618 11.877 11.1917C11.9513 11.2998 11.9856 11.4305 11.9737 11.5612C11.9619 11.6919 11.9048 11.8143 11.8122 11.9073C11.7197 12.0003 11.5975 12.058 11.4669 12.0705C11.3363 12.0829 11.2054 12.0493 11.097 11.9755C10.7604 12.1602 10.37 12.2217 9.99299 12.1495C9.9206 12.1346 9.85184 12.1056 9.79066 12.0642C9.72947 12.0227 9.67704 11.9697 9.63637 11.908C9.59569 11.8462 9.56757 11.7771 9.55361 11.7046C9.53965 11.632 9.54012 11.5574 9.55499 11.485C9.56986 11.4126 9.59885 11.3438 9.64029 11.2827C9.68173 11.2215 9.73482 11.169 9.79653 11.1284C9.85823 11.0877 9.92734 11.0596 9.99991 11.0456C10.0725 11.0317 10.1471 11.0321 10.2195 11.047C10.3522 11.0747 10.5667 11.032 10.7505 10.8475C11.0407 10.5565 10.965 10.2662 10.8832 10.1845C10.8007 10.1027 10.5105 10.027 10.2202 10.3172C9.63224 10.9052 8.61674 11.1002 7.96649 10.45C7.46174 9.94524 7.46549 9.22074 7.76774 8.64699C7.69338 8.53889 7.65916 8.40819 7.67098 8.27752C7.68281 8.14685 7.73994 8.02443 7.83249 7.93143C7.92505 7.83843 8.0472 7.78071 8.17781 7.76826C8.30842 7.75581 8.43928 7.78941 8.54774 7.86324C8.80274 7.72749 9.08249 7.65549 9.36149 7.65849C9.51067 7.65988 9.65319 7.72048 9.7577 7.82696C9.8622 7.93343 9.92013 8.07706 9.91874 8.22624C9.91735 8.37543 9.85675 8.51795 9.75027 8.62245C9.6438 8.72696 9.49942 8.78488 9.35024 8.78349Z" fill="#898384"/>
</svg>
