<svg width="15" height="16" viewBox="0 0 15 16" fill="none" xmlns="http://www.w3.org/2000/svg">
<path fill-rule="evenodd" clip-rule="evenodd" d="M12.9986 9.18439V4.69461L7.0755 8.1143V14.9552L9.56447 13.5182L9.37157 13.3253C9.30161 13.2552 9.26232 13.1602 9.26232 13.0611C9.26232 12.9621 9.30161 12.8671 9.37157 12.797L9.52507 12.6435L9.45669 12.4785H9.23963C9.14058 12.4783 9.04563 12.4389 8.9756 12.3689C8.90556 12.2988 8.86615 12.2039 8.866 12.1048V11.1406C8.86648 11.0417 8.906 10.9469 8.97596 10.877C9.04593 10.807 9.14068 10.7675 9.23963 10.767H9.45669L9.52507 10.6021L9.37157 10.4485C9.30161 10.3785 9.26236 10.2835 9.26243 10.1845C9.26251 10.0855 9.30191 9.99054 9.37197 9.92058L9.37157 9.92018L10.0534 9.23839C10.1235 9.16844 10.2185 9.12915 10.3176 9.12915C10.4166 9.12915 10.5116 9.16844 10.5817 9.23839L10.7352 9.39189L10.9002 9.32352V9.10646C10.9007 9.00753 10.9402 8.9128 11.0102 8.84284C11.0802 8.77289 11.1749 8.73336 11.2738 8.73283H12.238C12.3371 8.73298 12.432 8.77239 12.5021 8.84243C12.5721 8.91247 12.6115 9.00741 12.6117 9.10646V9.32349L12.7766 9.39189C12.8323 9.33624 12.9379 9.22161 12.9985 9.1843L12.9986 9.18439ZM11.7559 10.3585C12.006 10.3585 12.2504 10.4327 12.4584 10.5716C12.6663 10.7105 12.8283 10.908 12.924 11.139C13.0197 11.37 13.0447 11.6242 12.996 11.8695C12.9472 12.1147 12.8268 12.34 12.6499 12.5168C12.4731 12.6937 12.2478 12.8141 12.0026 12.8629C11.7573 12.9116 11.5031 12.8866 11.2721 12.7909C11.0411 12.6952 10.8436 12.5332 10.7047 12.3252C10.5658 12.1173 10.4916 11.8729 10.4916 11.6228C10.4916 11.2875 10.6249 10.9659 10.862 10.7288C11.0991 10.4917 11.4206 10.3585 11.7559 10.3585ZM12.3676 11.0111C12.4886 11.1321 12.571 11.2863 12.6044 11.4541C12.6378 11.6219 12.6206 11.7958 12.5552 11.9539C12.4897 12.112 12.3788 12.2471 12.2365 12.3422C12.0943 12.4372 11.927 12.488 11.7559 12.488C11.5848 12.488 11.4176 12.4372 11.2753 12.3422C11.133 12.2471 11.0222 12.112 10.9567 11.9539C10.8912 11.7958 10.8741 11.6219 10.9075 11.4541C10.9408 11.2863 11.0232 11.1321 11.1442 11.0111C11.3065 10.8489 11.5265 10.7578 11.7559 10.7578C11.9854 10.7578 12.2054 10.8489 12.3676 11.0111ZM9.85547 13.8093L6.9915 15.4628C6.95847 15.4866 6.91893 15.4996 6.87825 15.5001C6.83757 15.5005 6.79774 15.4885 6.76416 15.4655L0.466504 11.8295C0.432772 11.8131 0.404331 11.7876 0.384435 11.7558C0.364539 11.724 0.353993 11.6873 0.354004 11.6498V4.34943H0.354473C0.354435 4.31398 0.363875 4.27917 0.381815 4.2486C0.399754 4.21803 0.425541 4.19281 0.456504 4.17555L6.77382 0.528145C6.80429 0.509951 6.83908 0.500235 6.87458 0.500004C6.91007 0.499773 6.94498 0.509036 6.97569 0.526833L13.2853 4.16977C13.319 4.18613 13.3475 4.21166 13.3674 4.24343C13.3873 4.2752 13.3978 4.31194 13.3978 4.34943V9.18921C13.4197 9.20344 13.44 9.21992 13.4585 9.23839L14.1403 9.92018C14.2102 9.99032 14.2494 10.0853 14.2494 10.1843C14.2494 10.2834 14.2102 10.3784 14.1403 10.4485L13.9868 10.6021L14.0552 10.767H14.2722C14.3713 10.7672 14.4662 10.8066 14.5363 10.8766C14.6063 10.9467 14.6457 11.0416 14.6458 11.1406V12.1048C14.6457 12.2039 14.6063 12.2988 14.5363 12.3689C14.4662 12.4389 14.3713 12.4783 14.2722 12.4785H14.0552L13.9868 12.6435L14.1403 12.797C14.2102 12.8671 14.2495 12.9621 14.2495 13.0611C14.2495 13.1602 14.2102 13.2552 14.1403 13.3253L13.4585 14.0071C13.3884 14.0771 13.2934 14.1163 13.1943 14.1163C13.0953 14.1163 13.0003 14.0771 12.9301 14.0071L12.7766 13.8536L12.6117 13.922V14.139C12.6111 14.238 12.5716 14.3327 12.5017 14.4027C12.4317 14.4726 12.337 14.5121 12.238 14.5127H11.2738C11.1748 14.5125 11.0798 14.4731 11.0098 14.4031C10.9398 14.333 10.9003 14.2381 10.9002 14.139V13.9219L10.7352 13.8535L10.5817 14.007C10.5116 14.077 10.4166 14.1163 10.3176 14.1163C10.2185 14.1163 10.1235 14.077 10.0534 14.007L9.85547 13.8091V13.8093ZM12.2124 9.13208V9.46614C12.2124 9.51192 12.2281 9.5563 12.257 9.59186C12.2858 9.62742 12.3259 9.652 12.3707 9.66149C12.4923 9.70053 12.6102 9.75003 12.7233 9.80943C12.7609 9.82948 12.8039 9.83692 12.8461 9.83064C12.8883 9.82437 12.9273 9.80472 12.9574 9.77458L12.958 9.77511L13.1943 9.53877L13.8399 10.1844L13.6036 10.4207C13.5713 10.4531 13.551 10.4955 13.5462 10.5409C13.5414 10.5864 13.5523 10.6321 13.5772 10.6705C13.6357 10.784 13.6842 10.9024 13.7223 11.0244C13.7346 11.0652 13.7598 11.101 13.794 11.1264C13.8282 11.1518 13.8698 11.1656 13.9124 11.1656V11.1664H14.2465V12.0794H13.9124C13.8666 12.0794 13.8222 12.0951 13.7867 12.124C13.7511 12.1528 13.7265 12.193 13.7171 12.2377C13.678 12.3593 13.6285 12.4772 13.5691 12.5902C13.5491 12.6279 13.5416 12.6709 13.5479 12.7131C13.5542 12.7552 13.5738 12.7943 13.6039 12.8244L13.6034 12.8249L13.8398 13.0613L13.1942 13.7069L12.9578 13.4705C12.9255 13.4382 12.8831 13.418 12.8376 13.4132C12.7922 13.4084 12.7465 13.4193 12.7081 13.4442C12.5945 13.5027 12.4761 13.5512 12.3542 13.5892C12.3134 13.6016 12.2776 13.6268 12.2522 13.6611C12.2268 13.6953 12.2131 13.7368 12.213 13.7795H12.2124V14.1136H11.2994V13.7793C11.2994 13.7336 11.2837 13.6892 11.2549 13.6536C11.2261 13.6181 11.1859 13.5935 11.1411 13.584C11.0196 13.5449 10.9016 13.4955 10.7886 13.4361C10.751 13.416 10.7079 13.4086 10.6658 13.4148C10.6236 13.4211 10.5846 13.4408 10.5544 13.4709L10.5539 13.4704L10.3175 13.7067L9.67194 13.0611L9.90829 12.8248C9.9406 12.7924 9.96085 12.75 9.96565 12.7046C9.97045 12.6591 9.95951 12.6134 9.93466 12.575C9.87617 12.4615 9.82764 12.3431 9.7896 12.2211C9.77722 12.1803 9.75203 12.1446 9.71777 12.1191C9.68351 12.0937 9.64198 12.08 9.59932 12.08V12.0792H9.26525V11.1663H9.59935C9.64512 11.1663 9.68949 11.1505 9.72505 11.1217C9.7606 11.0929 9.78518 11.0527 9.79466 11.008C9.83372 10.8864 9.88321 10.7685 9.9426 10.6554C9.96269 10.6178 9.97015 10.5747 9.96388 10.5325C9.95761 10.4903 9.93795 10.4512 9.90779 10.4211L9.90829 10.4206L9.67194 10.1842L10.3175 9.53861L10.5539 9.77496C10.5862 9.80727 10.6286 9.82752 10.6741 9.83232C10.7196 9.83711 10.7653 9.82616 10.8037 9.8013C10.9172 9.74282 11.0356 9.6943 11.1575 9.65627C11.1984 9.64388 11.2341 9.61869 11.2595 9.58443C11.2849 9.55017 11.2987 9.50865 11.2987 9.46599H11.2994V9.13193L12.2124 9.13208ZM1.32297 10.1006L2.90354 11.0131C2.92619 11.027 2.95141 11.0362 2.97769 11.0402C3.00398 11.0442 3.0308 11.043 3.05658 11.0364C3.08236 11.0299 3.10657 11.0183 3.12779 11.0023C3.14901 10.9863 3.16681 10.9662 3.18013 10.9431C3.19345 10.9201 3.20203 10.8947 3.20536 10.8683C3.2087 10.8419 3.20671 10.8151 3.19952 10.7895C3.19234 10.7639 3.1801 10.74 3.16353 10.7192C3.14695 10.6984 3.12639 10.6812 3.10304 10.6685L1.52247 9.75596C1.4768 9.73009 1.42277 9.7233 1.37212 9.73706C1.32147 9.75082 1.27829 9.78401 1.25199 9.82943C1.22568 9.87485 1.21837 9.92882 1.23164 9.9796C1.24491 10.0304 1.27769 10.0739 1.32285 10.1006L1.32297 10.1006ZM1.30904 11.0829L2.8896 11.9954C2.9353 12.0218 2.98965 12.0291 3.04068 12.0155C3.09172 12.0019 3.13525 11.9685 3.16172 11.9228C3.18819 11.8771 3.19542 11.8228 3.18182 11.7717C3.16821 11.7207 3.1349 11.6772 3.08919 11.6507L1.50863 10.7382C1.46292 10.7117 1.40858 10.7045 1.35754 10.7181C1.30651 10.7317 1.26297 10.765 1.2365 10.8107C1.21004 10.8564 1.20281 10.9108 1.21641 10.9618C1.23001 11.0129 1.26333 11.0564 1.30904 11.0829ZM9.23963 2.29377L10.4394 2.98658L4.51554 6.4068L3.31554 5.71411L9.23963 2.29377ZM3.06316 6.02814V8.35596L3.53538 8.20449C3.57137 8.19292 3.6099 8.19185 3.64648 8.20139C3.68306 8.21093 3.71616 8.23069 3.74191 8.25836L4.26185 8.81461V6.72039L3.06316 6.02814ZM10.8377 3.21643L12.7999 4.34943L6.87591 7.76964L4.91369 6.63677L10.8377 3.21652V3.21643ZM4.66119 6.9508V9.31955H4.66075C4.66062 9.3595 4.6485 9.39848 4.62596 9.43146C4.60342 9.46444 4.57149 9.48988 4.53431 9.5045C4.49714 9.51912 4.45643 9.52225 4.41746 9.51346C4.37849 9.50468 4.34306 9.48439 4.31575 9.45524L3.53672 8.62199L2.93985 8.81346C2.90954 8.82609 2.87657 8.83103 2.84389 8.82784C2.81121 8.82466 2.77982 8.81344 2.75252 8.79519C2.72522 8.77694 2.70285 8.75223 2.68741 8.72325C2.67196 8.69427 2.66392 8.66192 2.664 8.62908V5.79783L0.753348 4.69471V11.5353L6.67641 14.955V8.11439L4.66132 6.95099L4.66119 6.9508ZM2.91744 5.48408L0.951879 4.34943L6.87591 0.929176L8.84135 2.06396L2.91744 5.48408Z" fill="#898384"/>
</svg>
