<svg width="19" height="19" viewBox="0 0 19 19" fill="none" xmlns="http://www.w3.org/2000/svg">
<g clip-path="url(#clip0_3295_2770)">
<path d="M17.107 2.9541H2.10699C1.28949 2.9841 0.636995 3.6366 0.606995 4.4541V14.9541C0.636995 15.7716 1.28949 16.4241 2.10699 16.4541H17.107C17.9245 16.4241 18.577 15.7716 18.607 14.9541V4.4541C18.5932 4.06067 18.4307 3.68711 18.1524 3.40874C17.874 3.13037 17.5004 2.96791 17.107 2.9541ZM17.107 14.9541H2.10699V4.4541H17.107V14.9541ZM11.107 13.4541V12.5166C11.107 11.2716 8.60199 10.6416 7.35699 10.6416C6.11199 10.6416 3.60699 11.2716 3.60699 12.5166V13.4541H11.107ZM7.35699 5.9541C6.85971 5.9541 6.3828 6.15165 6.03117 6.50328C5.67954 6.85491 5.48199 7.33182 5.48199 7.8291C5.48199 8.07533 5.53049 8.31915 5.62472 8.54663C5.71895 8.77412 5.85706 8.98082 6.03117 9.15493C6.3828 9.50656 6.85971 9.7041 7.35699 9.7041C7.60322 9.7041 7.84704 9.6556 8.07453 9.56138C8.30201 9.46715 8.50871 9.32904 8.68282 9.15493C8.85693 8.98082 8.99504 8.77412 9.08927 8.54663C9.1835 8.31915 9.23199 8.07533 9.23199 7.8291C9.23199 7.58287 9.1835 7.33906 9.08927 7.11157C8.99504 6.88408 8.85693 6.67739 8.68282 6.50328C8.50871 6.32917 8.30201 6.19105 8.07453 6.09683C7.84704 6.0026 7.60322 5.9541 7.35699 5.9541ZM11.107 5.9541V6.7041H15.607V5.9541H11.107ZM11.107 7.4541V8.2041H15.607V7.4541H11.107ZM11.107 8.9541V9.7041H14.107V8.9541H11.107Z" fill="#898384"/>
</g>
<defs>
<clipPath id="clip0_3295_2770">
<rect width="18" height="18" fill="white" transform="translate(0.606995 0.704102)"/>
</clipPath>
</defs>
</svg>
