<svg width="19" height="19" viewBox="0 0 19 19" fill="none" xmlns="http://www.w3.org/2000/svg">
<g clip-path="url(#clip0_3295_2747)">
<path d="M8.48199 14.2129V8.93066L2.85699 6.11816V13.8525L7.63824 16.252L7.36578 17.3682L1.73199 14.5557V4.85254L9.04449 1.20508L16.357 4.85254V7.22559C15.9468 7.29004 15.5718 7.42188 15.232 7.62109V6.11816L9.60699 8.93066V13.0879L8.48199 14.2129ZM7.23395 3.3584L12.3668 6.29395L14.5377 5.2041L9.04449 2.45312L7.23395 3.3584ZM9.04449 7.95508L11.1539 6.90039L6.02106 3.96484L3.55133 5.2041L9.04449 7.95508ZM16.8492 8.5791C17.0953 8.5791 17.3238 8.62305 17.5347 8.71094C17.7457 8.79883 17.9332 8.91895 18.0972 9.07129C18.2613 9.22363 18.3843 9.4082 18.4664 9.625C18.5484 9.8418 18.5953 10.0732 18.607 10.3193C18.607 10.5479 18.563 10.7705 18.4752 10.9873C18.3873 11.2041 18.2613 11.3945 18.0972 11.5586L11.7955 17.8604L8.48199 18.6865L9.30817 15.373L15.6099 9.08008C15.7798 8.91016 15.9703 8.78418 16.1812 8.70215C16.3922 8.62012 16.6148 8.5791 16.8492 8.5791ZM17.2974 10.7676C17.4205 10.6445 17.482 10.4951 17.482 10.3193C17.482 10.1377 17.4234 9.99121 17.3062 9.87988C17.189 9.76855 17.0367 9.70996 16.8492 9.7041C16.7672 9.7041 16.688 9.71582 16.6119 9.73926C16.5357 9.7627 16.4683 9.80664 16.4097 9.87109L10.3277 15.9531L10.0289 17.1396L11.2154 16.8408L17.2974 10.7676Z" fill="#898384"/>
</g>
<defs>
<clipPath id="clip0_3295_2747">
<rect width="18" height="18" fill="white" transform="translate(0.606995 0.704102)"/>
</clipPath>
</defs>
</svg>
