<svg width="61" height="60" viewBox="0 0 61 60" fill="none" xmlns="http://www.w3.org/2000/svg">
<g clip-path="url(#clip0_3295_2621)">
<path d="M39.875 0.0585938L60.5 10.3711V33.3691L56.75 31.4941V14.5605L41.75 22.0605V29.6191L38 31.4941V22.0605L23 14.5605V21.2109L19.25 19.3359V10.3711L39.875 0.0585938ZM39.875 18.8086L45.0605 16.2012L31.4961 8.4375L25.3145 11.543L39.875 18.8086ZM49.1035 14.209L54.4355 11.543L39.875 4.24805L35.5098 6.44531L49.1035 14.209ZM34.25 33.3691L30.5 35.2441V35.2148L19.25 40.8398V54.1699L30.5 48.5156V52.7344L17.375 59.2969L0.5 50.8301V31.0254L17.375 22.5879L34.25 31.0254V33.3691ZM15.5 54.1699V40.8398L4.25 35.2148V48.5156L15.5 54.1699ZM17.375 37.5879L28.1855 32.1973L17.375 26.7773L6.56445 32.1973L17.375 37.5879ZM34.25 37.5586L47.375 30.9961L60.5 37.5586V52.998L47.375 59.5605L34.25 52.998V37.5586ZM45.5 54.4336V45.498L38 41.748V50.6836L45.5 54.4336ZM56.75 50.6836V41.748L49.25 45.498V54.4336L56.75 50.6836ZM47.375 42.2461L54.4355 38.7012L47.375 35.1855L40.3145 38.7012L47.375 42.2461Z" fill="#898384"/>
</g>
<defs>
<clipPath id="clip0_3295_2621">
<rect width="60" height="60" fill="white" transform="translate(0.5)"/>
</clipPath>
</defs>
</svg>
