<svg width="14" height="14" viewBox="0 0 14 14" fill="none" xmlns="http://www.w3.org/2000/svg">
<path d="M13.5844 8.94697C13.1512 8.42635 12.5554 8.34629 11.7963 8.71685L10.1434 9.64129C10.2178 8.89404 9.64425 8.40841 9.02781 8.09341C7.38894 7.08104 5.09687 7.10335 3.62119 8.40535C3.56694 7.83354 3.08744 7.39647 2.51344 7.39472H1.22806C0.610312 7.39516 0.109812 7.8961 0.109375 8.51385V12.772C0.109812 13.3898 0.610312 13.8903 1.22806 13.8907H2.51344C3.04106 13.8898 3.49694 13.521 3.60719 13.0048C5.1205 12.8315 6.38531 13.9388 7.88812 13.8369C9.36906 13.8347 10.927 13.4593 11.9591 12.331L13.5179 10.7149C13.9882 10.2288 14.0171 9.46672 13.5844 8.94697ZM2.97412 12.7716C2.97369 13.0267 2.76675 13.2336 2.51169 13.234H1.22806C0.973 13.2336 0.766062 13.0267 0.765625 12.7716V8.51341C0.765625 8.25791 0.972562 8.05097 1.22806 8.05054H2.51344C2.76806 8.05185 2.97412 8.25879 2.97412 8.51341V12.7716ZM13.0436 10.259L11.4874 11.873C10.1907 13.2104 7.93056 13.5311 6.15431 12.8447C5.36331 12.4837 4.49881 12.3135 3.63037 12.3477V9.35166C4.788 7.80948 7.12862 7.67823 8.69312 8.65735C9.22687 8.91985 9.74531 9.35472 9.37212 9.97247C9.23431 10.186 8.99762 10.315 8.74344 10.315H7.34344C6.91512 10.3163 6.91381 10.9695 7.34344 10.9713C7.8085 10.9358 8.97487 11.0811 9.38219 10.8107C9.39269 10.8059 12.0982 9.29785 12.0982 9.29785C13.0112 8.78597 13.5314 9.69466 13.0436 10.259Z" fill="#726C6C"/>
<path d="M10.7051 7.39763C13.7733 7.30313 13.7729 2.84938 10.7051 2.75488C7.63605 2.85026 7.63867 7.30095 10.7051 7.39763ZM10.7051 3.41332V3.41157C11.6247 3.41157 12.3702 4.15707 12.3702 5.0767C12.3142 7.27338 9.09423 7.27207 9.03998 5.07582C9.04217 4.15751 9.7868 3.4142 10.7051 3.41332Z" fill="#726C6C"/>
<path d="M5.34068 5.19673C8.702 5.09523 8.70506 0.216227 5.34418 0.110352C1.982 0.212289 1.98112 5.08866 5.34068 5.19673ZM7.22937 2.65223C7.15412 5.14773 3.53206 5.1486 3.4555 2.65354C3.53468 0.161539 7.15018 0.159352 7.22937 2.65223Z" fill="#726C6C"/>
</svg>
