<svg width="23" height="19" viewBox="0 0 23 19" fill="none" xmlns="http://www.w3.org/2000/svg">
<path d="M11.4999 5.56017C11.8961 5.56017 12.2174 5.86845 12.2174 6.24873V11.7572C12.2174 12.1375 11.8961 12.4457 11.4999 12.4457C11.1036 12.4457 10.7824 12.1375 10.7824 11.7572V6.24873C10.7824 5.86845 11.1036 5.56017 11.4999 5.56017Z" fill="#2B2829"/>
<path d="M11.4999 14.9704C12.0282 14.9704 12.4565 14.5594 12.4565 14.0524C12.4565 13.5453 12.0282 13.1343 11.4999 13.1343C10.9716 13.1343 10.5433 13.5453 10.5433 14.0524C10.5433 14.5594 10.9716 14.9704 11.4999 14.9704Z" fill="#2B2829"/>
<path fill-rule="evenodd" clip-rule="evenodd" d="M10.0644 0.780026C10.7146 -0.260009 12.2852 -0.260009 12.9354 0.780026L22.7254 16.439C23.3949 17.5099 22.5912 18.8723 21.2899 18.8723H1.70989C0.408621 18.8723 -0.39514 17.5099 0.274361 16.439L10.0644 0.780026ZM11.705 1.48854C11.6121 1.33997 11.3877 1.33997 11.2948 1.48854L1.50482 17.1475C1.40918 17.3005 1.524 17.4951 1.70989 17.4951H21.2899C21.4758 17.4951 21.5906 17.3005 21.495 17.1475L11.705 1.48854Z" fill="#2B2829"/>
</svg>
