<svg width="16" height="16" viewBox="0 0 16 16" fill="none" xmlns="http://www.w3.org/2000/svg">
<g clip-path="url(#clip0_1210_858)">
<path d="M12.5426 10.9024L10.5251 10.1978V10.0963C10.525 10.0498 10.5121 10.0042 10.4876 9.96469C10.4631 9.92515 10.4281 9.89321 10.3865 9.87245L9.20356 9.28313V8.97708C9.34801 8.87356 9.48187 8.75604 9.60321 8.6262C10.5628 7.60268 10.9455 5.81185 10.9202 4.83078C11.6142 4.17273 11.831 2.80243 11.679 1.73828C11.6135 1.27958 11.4518 0.698277 11.0537 0.534277C10.7757 0.419777 10.5366 0.612152 10.2833 0.815977C9.84638 1.16728 9.24798 1.6477 8.06671 1.32133C6.83551 0.980527 4.88188 1.10575 4.39556 2.45133C4.25998 2.87292 4.25261 3.32527 4.37436 3.75106C4.49611 4.17685 4.74152 4.55692 5.07948 4.8431C5.05773 5.82683 5.44133 7.6071 6.39698 8.6263C6.51832 8.75614 6.65219 8.87366 6.79663 8.97718V9.28313L5.61346 9.87238C5.57185 9.89314 5.53685 9.92508 5.51238 9.96462C5.48791 10.0042 5.47493 10.0497 5.47491 10.0962V10.1977L3.46343 10.9004C3.34152 10.94 3.23172 11.0101 3.14437 11.1039C3.05702 11.1977 2.995 11.3122 2.96416 11.4367L2.25433 15.2035C2.24752 15.2397 2.24875 15.2768 2.25795 15.3124C2.26715 15.348 2.28409 15.3811 2.30755 15.4094C2.33102 15.4377 2.36043 15.4605 2.39371 15.4762C2.42698 15.4918 2.4633 15.4999 2.50006 15.4999H13.5001C13.5368 15.4999 13.5731 15.4918 13.6064 15.4762C13.6397 15.4605 13.6691 15.4377 13.6926 15.4094C13.716 15.3811 13.733 15.348 13.7422 15.3124C13.7514 15.2768 13.7526 15.2397 13.7458 15.2035L13.0314 11.4174C12.9992 11.2976 12.9376 11.1878 12.8523 11.0979C12.7669 11.008 12.6605 10.9408 12.5426 10.9024ZM10.0251 10.2511V10.6074L8.73006 11.1891L8.37091 10.7054L9.07488 10.3149C9.11388 10.2933 9.14637 10.2616 9.169 10.2232C9.19163 10.1848 9.20356 10.141 9.20356 10.0964V9.84168L10.0251 10.2511ZM8.00006 11.0447L8.37756 11.5527L8.18148 12.3127H7.81898L7.62291 11.5527L8.00006 11.0447ZM7.82693 12.8126H8.17318L8.64406 14.9999H7.35606L7.82693 12.8126ZM4.86578 2.62113C5.23943 1.58753 6.91728 1.52185 7.93328 1.80308C8.38983 1.95265 8.8783 1.97608 9.34707 1.87091C9.81584 1.76573 10.2475 1.53586 10.5964 1.20558C10.6832 1.12902 10.7776 1.06162 10.8782 1.00443C10.9677 1.06058 11.1124 1.30788 11.1839 1.8088C11.3214 2.77113 11.107 4.05153 10.5104 4.52828C8.79118 5.90218 7.12138 4.0188 7.05133 3.93775C7.0278 3.91076 6.99876 3.88913 6.96616 3.87431C6.93356 3.85948 6.89817 3.85182 6.86236 3.85183C6.8522 3.8518 6.84205 3.85237 6.83196 3.85353C6.79128 3.8585 6.75245 3.87339 6.71889 3.89689C6.68532 3.92039 6.65804 3.95178 6.63946 3.9883C6.58224 4.13232 6.49519 4.26259 6.38402 4.37055C6.27285 4.47852 6.14009 4.56172 5.99446 4.6147C5.90614 4.63572 5.8144 4.63802 5.72513 4.62145C5.63587 4.60489 5.55106 4.56983 5.47616 4.51853C5.19217 4.30299 4.98129 4.00536 4.87211 3.66597C4.76293 3.32657 4.76072 2.96182 4.86578 2.62113ZM5.58133 5.09718C5.75692 5.14074 5.94039 5.14151 6.11633 5.09943C6.44359 5.0068 6.72546 4.79728 6.90846 4.5106C7.42596 5.00373 8.25966 5.5256 9.18823 5.5256C9.61802 5.52477 10.0401 5.4115 10.4126 5.19705C10.3501 6.13955 9.96916 7.50503 9.23848 8.2842C9.08876 8.46817 8.89993 8.61647 8.68571 8.71832C8.4715 8.82018 8.23728 8.87302 8.00008 8.87302C7.76289 8.87302 7.52867 8.82018 7.31446 8.71832C7.10024 8.61647 6.91141 8.46817 6.76168 8.2842C6.00506 7.47738 5.62241 6.04048 5.58133 5.09718ZM8.00006 9.37298C8.24034 9.37299 8.47866 9.32966 8.70356 9.24508V9.9491L8.00006 10.3395L7.29656 9.9491V9.24508C7.52146 9.32966 7.75978 9.37299 8.00006 9.37298ZM5.97491 10.2511L6.79656 9.84168V10.0963C6.79656 10.1409 6.80849 10.1847 6.83112 10.2231C6.85374 10.2615 6.88624 10.2932 6.92523 10.3148L7.62921 10.7054L7.26983 11.1892L5.97483 10.6075L5.97491 10.2511ZM3.45111 11.5488C3.4626 11.5077 3.48433 11.4701 3.51425 11.4396C3.54418 11.4092 3.58134 11.3867 3.62226 11.3745L5.47491 10.7274V10.7692C5.47491 10.8174 5.48883 10.8646 5.515 10.905C5.54117 10.9455 5.57847 10.9775 5.62241 10.9973L7.13863 11.6782L7.36816 12.5677L6.84468 14.9999H5.50006V13.0626C5.50006 12.9963 5.47372 12.9327 5.42684 12.8858C5.37995 12.8389 5.31636 12.8126 5.25006 12.8126C5.18375 12.8126 5.12017 12.8389 5.07328 12.8858C5.0264 12.9327 5.00006 12.9963 5.00006 13.0626V14.9999H2.80146L3.45111 11.5488ZM11.0001 14.9999V13.0626C11.0001 12.9963 10.9737 12.9327 10.9268 12.8858C10.88 12.8389 10.8164 12.8126 10.7501 12.8126C10.6838 12.8126 10.6202 12.8389 10.5733 12.8858C10.5264 12.9327 10.5001 12.9963 10.5001 13.0626V14.9999H9.15543L8.63188 12.5677L8.86141 11.6782L10.3776 10.9974C10.4215 10.9776 10.4588 10.9456 10.485 10.9051C10.5111 10.8647 10.5251 10.8175 10.5251 10.7694V10.7274L12.3837 11.3764C12.4206 11.3876 12.4543 11.4073 12.4822 11.4338C12.5101 11.4604 12.5314 11.4932 12.5443 11.5295L13.1985 14.9999H11.0001Z" fill="#898384"/>
<path d="M8.96903 7.57042C8.99139 7.50921 8.98873 7.44165 8.96164 7.38238C8.93454 7.32311 8.88518 7.2769 8.82426 7.25377C8.76279 7.23071 8.69477 7.23243 8.63454 7.25854C8.5743 7.28466 8.52656 7.33314 8.50138 7.39377C8.45441 7.48352 8.38138 7.55696 8.29191 7.60445C8.20243 7.65194 8.10069 7.67126 8.00003 7.65987C7.89951 7.67111 7.79794 7.6518 7.70855 7.60446C7.61917 7.55712 7.54612 7.48396 7.49893 7.39449C7.47474 7.33362 7.42762 7.28467 7.36771 7.25818C7.3078 7.23168 7.23989 7.22976 7.17857 7.25283C7.11726 7.27589 7.06745 7.3221 7.03986 7.38151C7.01227 7.44093 7.0091 7.50879 7.03103 7.57052C7.11281 7.75612 7.24958 7.91215 7.42287 8.01755C7.59616 8.12294 7.79761 8.17262 8.00003 8.15987C8.20246 8.17261 8.40392 8.12292 8.57721 8.0175C8.7505 7.91209 8.88726 7.75604 8.96903 7.57042Z" fill="#898384"/>
<path d="M13.1094 5.70947C12.6366 5.70947 12.1743 5.84968 11.7812 6.11237C11.3881 6.37506 11.0817 6.74843 10.9007 7.18527C10.7198 7.6221 10.6724 8.10278 10.7647 8.56652C10.8569 9.03026 11.0846 9.45623 11.419 9.79056C11.7533 10.1249 12.1793 10.3526 12.643 10.4448C13.1068 10.537 13.5875 10.4897 14.0243 10.3087C14.4611 10.1278 14.8345 9.82133 15.0972 9.42818C15.3598 9.03504 15.5 8.57282 15.5 8.1C15.4993 7.4662 15.2471 6.85858 14.799 6.41043C14.3508 5.96228 13.7432 5.71019 13.1094 5.70947ZM13.1094 9.99072C12.7355 9.99072 12.3699 9.87984 12.059 9.6721C11.7481 9.46436 11.5058 9.16909 11.3627 8.82363C11.2196 8.47817 11.1821 8.09803 11.2551 7.73129C11.328 7.36455 11.5081 7.02767 11.7725 6.76326C12.0369 6.49885 12.3737 6.31877 12.7405 6.24581C13.1072 6.17285 13.4873 6.21028 13.8328 6.35336C14.1783 6.49644 14.4736 6.73875 14.6813 7.04965C14.8891 7.36055 15 7.72607 15 8.1C14.9995 8.60126 14.8001 9.08184 14.4456 9.4363C14.0912 9.79076 13.6106 9.99015 13.1094 9.99072Z" fill="#898384"/>
<path d="M13.1094 7.41112C13.1676 7.41118 13.2233 7.43433 13.2645 7.47548C13.3056 7.51663 13.3288 7.57242 13.3288 7.63062C13.3288 7.69692 13.3552 7.76051 13.4021 7.80739C13.4489 7.85428 13.5125 7.88062 13.5788 7.88062C13.6451 7.88062 13.7087 7.85428 13.7556 7.80739C13.8025 7.76051 13.8288 7.69692 13.8288 7.63062C13.8284 7.48408 13.7833 7.34117 13.6993 7.22104C13.6154 7.10091 13.4968 7.0093 13.3594 6.95849V6.80762C13.3594 6.74131 13.333 6.67772 13.2861 6.63084C13.2393 6.58396 13.1757 6.55762 13.1094 6.55762C13.0431 6.55762 12.9795 6.58396 12.9326 6.63084C12.8857 6.67772 12.8594 6.74131 12.8594 6.80762V6.95849C12.7011 7.01688 12.5685 7.1291 12.4848 7.27548C12.401 7.42186 12.3714 7.59305 12.4012 7.75905C12.4311 7.92504 12.5184 8.07525 12.6478 8.18332C12.7773 8.29139 12.9407 8.35043 13.1094 8.35009C13.1528 8.35009 13.1952 8.36296 13.2313 8.38707C13.2674 8.41119 13.2956 8.44547 13.3122 8.48558C13.3288 8.52569 13.3331 8.56983 13.3247 8.61241C13.3162 8.65499 13.2953 8.6941 13.2646 8.7248C13.2339 8.7555 13.1948 8.77641 13.1522 8.78488C13.1096 8.79334 13.0655 8.789 13.0254 8.77238C12.9853 8.75576 12.951 8.72762 12.9269 8.69152C12.9028 8.65542 12.8899 8.61298 12.8899 8.56957C12.8899 8.50326 12.8636 8.43967 12.8167 8.39279C12.7698 8.34591 12.7062 8.31957 12.6399 8.31957C12.5736 8.31957 12.51 8.34591 12.4631 8.39279C12.4162 8.43967 12.3899 8.50326 12.3899 8.56957C12.3903 8.7161 12.4355 8.85901 12.5194 8.97914C12.6033 9.09927 12.7219 9.19088 12.8594 9.24169V9.39249C12.8594 9.4588 12.8857 9.52239 12.9326 9.56927C12.9795 9.61615 13.0431 9.64249 13.1094 9.64249C13.1757 9.64249 13.2393 9.61615 13.2861 9.56927C13.333 9.52239 13.3594 9.4588 13.3594 9.39249V9.24162C13.5176 9.18323 13.6502 9.07101 13.734 8.92463C13.8177 8.77825 13.8473 8.60706 13.8175 8.44106C13.7877 8.27506 13.7004 8.12486 13.5709 8.01679C13.4414 7.90872 13.278 7.84968 13.1094 7.85002C13.0516 7.8494 12.9963 7.826 12.9557 7.78491C12.915 7.74381 12.8922 7.68834 12.8922 7.63053C12.8922 7.57272 12.915 7.51725 12.9557 7.47615C12.9963 7.43506 13.0516 7.41173 13.1094 7.41112Z" fill="#898384"/>
<path d="M4.7765 9.58398V6.61548C4.77633 6.46214 4.71534 6.31513 4.60691 6.2067C4.49848 6.09827 4.35147 6.03728 4.19812 6.03711H1.07837C0.925033 6.03728 0.778021 6.09827 0.669592 6.2067C0.561163 6.31513 0.500172 6.46214 0.5 6.61548V9.58398C0.500126 9.73736 0.561094 9.88443 0.669526 9.99291C0.777958 10.1014 0.924996 10.1624 1.07837 10.1626H4.19812C4.3515 10.1624 4.49854 10.1014 4.60697 9.99291C4.71541 9.88443 4.77637 9.73736 4.7765 9.58398ZM2.39563 6.53711H2.88085V7.11401L2.7174 7.05958C2.66605 7.04248 2.61055 7.04248 2.5592 7.05958L2.39563 7.11401V6.53711ZM1 9.58398V6.61548C1.00002 6.5947 1.00828 6.57478 1.02298 6.56009C1.03767 6.54539 1.05759 6.53713 1.07837 6.53711H1.89562V7.46093C1.89562 7.52724 1.92196 7.59083 1.96885 7.63771C2.01573 7.6846 2.07932 7.71093 2.14563 7.71093C2.17252 7.71099 2.19924 7.70662 2.22473 7.69801L2.6383 7.56006L3.05175 7.69801C3.08933 7.71058 3.12935 7.71403 3.16852 7.70808C3.20769 7.70213 3.24489 7.68695 3.27704 7.66379C3.30919 7.64063 3.33537 7.61016 3.35342 7.57488C3.37147 7.53961 3.38087 7.50056 3.38085 7.46093V6.53711H4.19812C4.2189 6.53714 4.23882 6.5454 4.25352 6.56009C4.26821 6.57479 4.27647 6.59471 4.2765 6.61548V9.58398C4.27652 9.6048 4.26828 9.62477 4.25358 9.63951C4.23889 9.65426 4.21894 9.66256 4.19812 9.66261H1.07837C1.05756 9.66257 1.03761 9.65426 1.02291 9.63952C1.00821 9.62478 0.999973 9.6048 1 9.58398Z" fill="#898384"/>
<path d="M2.23145 8.8584H1.60205C1.53575 8.8584 1.47216 8.88474 1.42527 8.93162C1.37839 8.97851 1.35205 9.04209 1.35205 9.1084C1.35205 9.1747 1.37839 9.23829 1.42527 9.28518C1.47216 9.33206 1.53575 9.3584 1.60205 9.3584H2.23145C2.29776 9.3584 2.36134 9.33206 2.40823 9.28518C2.45511 9.23829 2.48145 9.1747 2.48145 9.1084C2.48145 9.04209 2.45511 8.97851 2.40823 8.93162C2.36134 8.88474 2.29776 8.8584 2.23145 8.8584Z" fill="#898384"/>
</g>
<defs>
<clipPath id="clip0_1210_858">
<rect width="16" height="16" fill="white"/>
</clipPath>
</defs>
</svg>
