<svg width="50" height="49" viewBox="0 0 50 49" fill="none" xmlns="http://www.w3.org/2000/svg">
<path d="M25 0.75C28.283 0.75 31.5339 1.36431 34.5671 2.55786C37.6002 3.75141 40.3562 5.50082 42.6777 7.70621C44.9991 9.9116 46.8406 12.5298 48.097 15.4113C49.3534 18.2928 50 21.3811 50 24.5C50 30.7989 47.3661 36.8398 42.6777 41.2938C37.9893 45.7478 31.6304 48.25 25 48.25C21.717 48.25 18.4661 47.6357 15.4329 46.4421C12.3998 45.2486 9.64379 43.4992 7.32233 41.2938C2.63392 36.8398 0 30.7989 0 24.5C0 18.2011 2.63392 12.1602 7.32233 7.70621C12.0107 3.25222 18.3696 0.75 25 0.75ZM15 14.3112V22.2437L32.85 24.5L15 26.7563V34.6888L40 24.5L15 14.3112Z" fill="#6132CB"/>
</svg>
