<svg width="36" height="28" viewBox="0 0 36 28" fill="none" xmlns="http://www.w3.org/2000/svg">
<path d="M34.715 14.8372C34.8168 14.7453 34.8987 14.6335 34.9555 14.5087C35.0123 14.3839 35.0428 14.2487 35.0452 14.1116C35.0475 13.9745 35.0216 13.8383 34.9691 13.7116C34.9166 13.5849 34.8386 13.4704 34.74 13.3751L21.455 0.535152C21.3138 0.398699 21.1356 0.306809 20.9426 0.270961C20.7495 0.235113 20.5502 0.256882 20.3695 0.333553C20.1887 0.410223 20.0345 0.538406 19.9261 0.702113C19.8178 0.86582 19.76 1.05781 19.76 1.25415V6.61415C15.6884 6.40108 11.6593 7.52981 8.29096 9.82714C5.7408 11.7034 3.76192 14.2511 2.57496 17.1862C1.64316 19.3899 1.10176 21.7389 0.974964 24.1282C0.926321 24.8038 0.974134 25.483 1.11696 26.1452C1.14792 26.2615 1.19362 26.3734 1.25296 26.4782C1.33583 26.626 1.46993 26.7384 1.62996 26.7941C1.73064 26.8249 1.83756 26.8293 1.94039 26.8067C2.04322 26.7841 2.13848 26.7353 2.21696 26.6651C2.31675 26.5746 2.39764 26.4651 2.45496 26.3432L2.46196 26.3302L2.46696 26.3172L2.47696 26.2951C2.48696 26.2741 2.50296 26.2411 2.52596 26.1951C2.57096 26.1061 2.64296 25.9721 2.74596 25.8041C3.04143 25.325 3.37911 24.8732 3.75496 24.4541C5.11535 22.9617 6.80609 21.8083 8.69196 21.0862C10.6096 20.4934 12.6092 20.2092 14.616 20.2442C16.3361 20.1848 18.0579 20.2964 19.756 20.5772V26.0942C19.756 26.2876 19.8122 26.4768 19.9176 26.6389C20.023 26.801 20.1732 26.9291 20.3499 27.0076C20.5267 27.0862 20.7224 27.1117 20.9134 27.0813C21.1043 27.0509 21.2824 26.9657 21.426 26.8362L34.715 14.8372Z" fill="#FBFBFB"/>
<path d="M30.621 13.409C31.581 12.294 30.621 10.703 30.621 10.703L28.965 7.80304L21.453 0.539046C21.3118 0.402594 21.1336 0.310719 20.9406 0.274871C20.7476 0.239022 20.5483 0.260777 20.3675 0.337447C20.1868 0.414117 20.0326 0.542301 19.9242 0.706008C19.8158 0.869715 19.758 1.06171 19.758 1.25804V6.61804C15.6864 6.40498 11.6573 7.5337 8.28901 9.83104C5.73885 11.7073 3.75996 14.255 2.57301 17.19C1.64121 19.3938 1.09981 21.7428 0.973011 24.132C0.924368 24.8077 0.972182 25.4869 1.11501 26.149C1.14596 26.2654 1.19167 26.3773 1.25101 26.4821C1.33388 26.6299 1.46798 26.7423 1.62801 26.798C1.72869 26.8288 1.83561 26.8332 1.93844 26.8106C2.04127 26.788 2.13653 26.7392 2.21501 26.669C2.3148 26.5784 2.39569 26.469 2.45301 26.347L2.46001 26.334L2.46501 26.321L2.47501 26.299C2.48501 26.278 2.50101 26.245 2.52401 26.199C2.56901 26.11 2.64101 25.976 2.74401 25.808C3.03948 25.3289 3.37715 24.8771 3.75301 24.458C6.59664 22.0165 9.69875 19.8932 13.004 18.126C15.1429 17.0188 17.4099 16.1792 19.754 15.626V21.626C19.7541 21.8194 19.8102 22.0087 19.9156 22.1708C20.0211 22.3329 20.1712 22.461 20.348 22.5395C20.5247 22.6181 20.7204 22.6437 20.9114 22.6132C21.1024 22.5828 21.2804 22.4976 21.424 22.368L30.621 13.409Z" fill="white"/>
</svg>
