<svg width="20" height="21" viewBox="0 0 20 21" fill="none" xmlns="http://www.w3.org/2000/svg">
<path d="M2.72917 13.2468C2.02084 12.3268 1.66667 11.866 1.66667 10.5002C1.66667 9.1335 2.02084 8.67433 2.72917 7.7535C4.14334 5.91683 6.515 3.8335 10 3.8335C13.485 3.8335 15.8567 5.91683 17.2708 7.7535C17.9792 8.67516 18.3333 9.13433 18.3333 10.5002C18.3333 11.8668 17.9792 12.326 17.2708 13.2468C15.8567 15.0835 13.485 17.1668 10 17.1668C6.515 17.1668 4.14334 15.0835 2.72917 13.2468Z" stroke="white" stroke-width="1.5"/>
<path d="M12.5 10.5C12.5 11.163 12.2366 11.7989 11.7678 12.2678C11.2989 12.7366 10.663 13 10 13C9.33696 13 8.70107 12.7366 8.23223 12.2678C7.76339 11.7989 7.5 11.163 7.5 10.5C7.5 9.83696 7.76339 9.20107 8.23223 8.73223C8.70107 8.26339 9.33696 8 10 8C10.663 8 11.2989 8.26339 11.7678 8.73223C12.2366 9.20107 12.5 9.83696 12.5 10.5Z" stroke="white" stroke-width="1.5"/>
</svg>
