<svg width="765" height="478" viewBox="0 0 765 478" fill="none" xmlns="http://www.w3.org/2000/svg">
<path opacity="0.6" d="M763.036 222.537C763.036 222.505 763.026 222.477 763.02 222.445C763.013 222.392 763.004 222.343 762.979 222.297C762.972 222.287 762.979 222.276 762.969 222.266C762.957 222.248 762.935 222.241 762.922 222.227C762.9 222.202 762.887 222.171 762.862 222.153L655.304 148.973C655.345 148.747 655.368 148.512 655.368 148.272C655.368 146.354 653.976 144.801 652.257 144.801C651.881 144.801 651.528 144.886 651.194 145.023L566.575 4.91061C566.972 4.38962 567.222 3.72432 567.222 2.98508C567.222 1.33766 566.023 0 564.546 0C563.07 0 561.871 1.33766 561.871 2.98508C561.871 3.32302 561.931 3.64335 562.026 3.94608L405.761 85.6769C405.007 84.4836 403.767 83.6986 402.36 83.6986C400.06 83.6986 398.195 85.779 398.195 88.3452C398.195 88.7359 398.252 89.1055 398.331 89.4681L287.477 145.544C287.006 144.256 285.877 143.348 284.552 143.348C282.807 143.348 281.391 144.925 281.391 146.875C281.391 147.364 281.479 147.829 281.64 148.251L239.315 166.38C238.703 164.93 237.39 163.919 235.857 163.919C233.898 163.919 232.302 165.563 232.075 167.679L31.9637 165.049H31.9606C31.9606 165.049 31.9353 165.063 31.9196 165.067C31.8943 165.067 31.8691 165.067 31.8407 165.067C31.8407 165.067 31.8344 165.074 31.8281 165.077C31.8028 165.088 31.7839 165.109 31.765 165.123C31.746 165.137 31.7303 165.144 31.7113 165.162C31.6924 165.183 31.6766 165.204 31.664 165.225C31.6577 165.236 31.6482 165.236 31.6419 165.246C31.6356 165.26 31.6419 165.278 31.6325 165.292C31.6198 165.32 31.6009 165.341 31.5946 165.373L0.0084551 329.391C-0.0199384 329.539 0.0242277 329.69 0.125182 329.789C0.194588 329.859 0.282917 329.894 0.374407 329.894C0.412265 329.894 0.453295 329.887 0.491153 329.873L139.575 278.289C140.222 280.598 142.134 282.284 144.414 282.284C145.105 282.284 145.762 282.126 146.361 281.851L181.771 377.283C180.105 378.42 178.979 380.451 178.979 382.788C178.979 386.361 181.575 389.258 184.777 389.258C186.718 389.258 188.424 388.184 189.478 386.551L323.685 466.972C323.224 467.944 322.937 469.035 322.937 470.214C322.937 474.066 325.735 477.191 329.19 477.191C332.644 477.191 335.443 474.069 335.443 470.214C335.443 469.225 335.253 468.289 334.919 467.434L409.354 430.824C410.263 433.035 412.253 434.58 414.575 434.58C417.752 434.58 420.33 431.704 420.33 428.159C420.33 425.706 419.08 423.597 417.266 422.516L459.828 333.284C460.456 333.615 461.15 333.812 461.891 333.812C462.917 333.812 463.866 333.453 464.652 332.848L488.035 368.017C487.272 368.722 486.773 369.774 486.773 370.964C486.773 373.083 488.313 374.797 490.209 374.797C492.105 374.797 493.645 373.079 493.645 370.964C493.645 370.876 493.626 370.795 493.623 370.71L572.989 364.811C573.342 367.588 575.459 369.728 578.046 369.728C580.879 369.728 583.176 367.166 583.176 364.005C583.176 362.178 582.393 360.569 581.197 359.52L617.166 285.195C617.585 285.375 618.036 285.484 618.513 285.484C620.286 285.484 621.762 284.104 622.147 282.256L674.271 294.76C674.205 295.101 674.17 295.453 674.17 295.816C674.17 298.614 676.202 300.885 678.71 300.885C681.218 300.885 683.25 298.618 683.25 295.816C683.25 295.319 683.165 294.851 683.048 294.397L722.237 281.418C722.31 281.394 722.37 281.344 722.417 281.278C722.417 281.274 722.423 281.278 722.427 281.27L764.572 223.484C764.572 223.484 762.969 222.72 762.976 222.709C763.004 222.656 763.032 222.604 763.036 222.544C763.036 222.537 763.032 222.533 763.036 222.526V222.533V222.537ZM722.061 280.45L708.725 269.242L688.465 252.215C688.5 252.053 688.553 251.895 688.553 251.722C688.553 251.55 688.5 251.384 688.462 251.219L761.61 223.353L762.364 227.134L722.061 280.45ZM614.774 281.327C614.774 281.482 614.799 281.63 614.815 281.781L466.368 326.269C465.873 324.973 464.942 323.935 463.781 323.389L564.341 5.94905C564.411 5.95609 564.477 5.97369 564.546 5.97369C564.739 5.97369 564.928 5.94905 565.111 5.90329L617.655 277.279C616.005 277.712 614.774 279.355 614.774 281.327ZM329.493 463.276L329.183 433.703L328.527 371.006C329.918 370.739 330.982 369.397 330.982 367.768C330.982 367.746 330.975 367.729 330.975 367.708L457.232 329.87C457.396 330.514 457.658 331.109 458.008 331.63L333.215 464.924C332.199 463.959 330.915 463.354 329.493 463.276ZM285.76 150.131L306.73 197.706C306.238 197.987 305.822 198.406 305.532 198.927L287.754 190.82C287.865 190.5 287.931 190.155 287.931 189.789C287.931 188.296 286.921 187.078 285.625 186.902L285.322 150.279C285.47 150.236 285.618 150.191 285.76 150.127V150.131ZM306.314 203.436L278.621 247.474C278.025 247.139 277.359 246.935 276.643 246.935C276.403 246.935 276.173 246.974 275.942 247.012L269.172 218.879C271.406 218.499 273.119 216.366 273.119 213.768C273.119 213.089 272.996 212.445 272.781 211.853L305.333 202.099C305.551 202.637 305.888 203.095 306.311 203.44L306.314 203.436ZM253.739 231.65C254.114 230.943 254.344 230.13 254.344 229.246C254.344 228.116 253.975 227.092 253.379 226.279L262.522 217.982L264.415 216.264C265.2 217.844 266.686 218.929 268.418 218.95L275.223 247.213C274.602 247.449 274.04 247.818 273.576 248.315L258.01 235.237L253.739 231.647V231.65ZM272.441 211.089C272.037 210.347 271.475 209.734 270.803 209.298L284.06 192.337C284.435 192.566 284.858 192.711 285.315 192.711C286.164 192.711 286.912 192.253 287.388 191.552L305.226 199.687C305.134 200.011 305.068 200.353 305.068 200.712C305.068 200.913 305.09 201.106 305.121 201.296L272.441 211.089ZM238.144 171.604L265.02 210.311C264.282 211.23 263.818 212.43 263.818 213.765C263.818 214.37 263.929 214.94 264.099 215.479L252.859 225.677C252.117 224.966 251.164 224.519 250.108 224.519C249.827 224.519 249.552 224.554 249.287 224.61L237.482 172.051C237.719 171.928 237.939 171.776 238.144 171.604ZM215.761 240.525C215.77 240.402 215.796 240.282 215.796 240.155C215.796 239.958 215.767 239.771 215.745 239.581L246.044 230.503C246.539 232.499 248.164 233.974 250.111 233.974C251.392 233.974 252.527 233.326 253.303 232.323L273.091 248.945C272.829 249.339 272.624 249.779 272.472 250.254L239.744 244.636L215.761 240.521V240.525ZM281.041 252.419C281.056 252.243 281.088 252.071 281.088 251.888C281.088 250.247 280.366 248.804 279.264 247.903L281.889 243.728L306.967 203.848C307.317 204.007 307.702 204.098 308.103 204.098C308.371 204.098 308.626 204.045 308.873 203.975L322.823 261.938C321.306 262.346 320.075 263.554 319.507 265.145L295.654 257.253L281.038 252.416H281.041V252.419ZM563.464 5.71672C563.508 5.73784 563.556 5.75544 563.603 5.77304L483.363 259.076L463.068 323.143C462.689 323.037 462.301 322.967 461.894 322.967C459.38 322.967 457.336 325.103 457.08 327.835L344.667 332.802C344.623 331.584 344.134 330.507 343.374 329.746L462.33 154.615L563.467 5.71672H563.464ZM323.953 272.463C324.426 272.463 324.871 272.364 325.303 272.22L339.004 329.134C338.02 329.708 337.285 330.722 337.02 331.957L228.797 299.677C228.863 299.223 228.923 298.762 228.923 298.287C228.923 297.622 228.841 296.981 228.712 296.361L319.526 269.147C320.243 271.094 321.952 272.463 323.956 272.463H323.953ZM228.633 300.494L336.916 332.791C336.916 332.851 336.9 332.908 336.9 332.971C336.9 334.573 337.689 335.956 338.847 336.709L328.953 364.652C328.66 364.543 328.354 364.469 328.029 364.469C326.997 364.469 326.092 365.061 325.562 365.958L228.235 301.796C228.402 301.381 228.525 300.941 228.633 300.494ZM330.859 366.877C330.663 366.095 330.224 365.434 329.631 365.001L339.525 337.054C339.922 337.209 340.345 337.308 340.79 337.308C342.733 337.308 344.33 335.713 344.62 333.633L457.052 328.666C457.058 328.796 457.074 328.923 457.086 329.049L340.159 364.089L330.859 366.877ZM561.489 7.24799L416.537 220.646L342.768 329.25C342.188 328.863 341.516 328.627 340.79 328.627C340.408 328.627 340.049 328.708 339.702 328.821L326.006 271.928C327.619 271.069 328.745 269.246 328.745 267.119C328.745 265.986 328.426 264.94 327.887 264.078L467.904 110.135L561.486 7.24799H561.489ZM276.646 256.844C278.675 256.844 280.369 255.316 280.899 253.243L316.315 264.962L319.287 265.944C319.211 266.324 319.16 266.715 319.16 267.119C319.16 267.545 319.217 267.954 319.299 268.352L228.484 295.566C228.27 294.851 227.999 294.165 227.629 293.545L273.122 254.88C273.933 256.066 275.201 256.844 276.643 256.844H276.646ZM327.407 263.43C326.536 262.413 325.312 261.772 323.953 261.772C323.823 261.772 323.7 261.804 323.571 261.815L309.573 203.658C310.504 203.081 311.141 201.983 311.141 200.708C311.141 200.23 311.049 199.775 310.889 199.364L561.578 5.97721L327.407 263.43ZM282.729 189.447C282.716 189.56 282.697 189.673 282.697 189.789C282.697 190.588 282.987 191.313 283.454 191.841L270.106 208.921C269.595 208.706 269.049 208.576 268.472 208.576C267.368 208.576 266.364 209.023 265.569 209.741L238.7 171.041C238.952 170.727 239.163 170.379 239.324 169.992L246.719 173.307L282.729 189.447ZM235.192 172.392C235.409 172.435 235.63 172.466 235.86 172.466C236.179 172.466 236.482 172.41 236.775 172.329L237.605 176.022L248.574 224.846C246.994 225.532 245.874 227.236 245.874 229.243C245.874 229.391 245.902 229.531 245.912 229.676L215.562 238.772C215.218 237.754 214.512 236.934 213.609 236.526L230.863 185.262L235.195 172.389H235.192V172.392ZM208.827 239.441C208.789 239.673 208.76 239.912 208.76 240.155C208.76 240.595 208.839 241.011 208.959 241.408L148.614 273.399C147.695 271.903 146.156 270.921 144.408 270.921C143.212 270.921 142.124 271.4 141.256 272.171L33.7241 166.647L208.827 239.441ZM149.197 274.716C149.134 274.515 149.062 274.322 148.98 274.132L209.275 242.169C209.89 243.309 211 244.084 212.278 244.084C213.846 244.084 215.162 242.929 215.613 241.345L272.28 251.071C272.245 251.307 272.22 251.546 272.213 251.793L258.594 254.331L149.194 274.719H149.197V274.716ZM226.361 304.641C226.964 304.032 227.472 303.321 227.879 302.529L238.198 309.33L325.243 366.712C325.142 367.042 325.076 367.394 325.076 367.764C325.076 369.489 326.268 370.89 327.783 371.031L328.224 413.079L328.751 463.29C327.802 463.364 326.915 463.674 326.129 464.17L230.948 311.977L226.361 304.641ZM621.75 279.282C621.355 278.507 620.759 277.884 620.024 277.518L651.424 151.602C651.689 151.683 651.963 151.743 652.254 151.743C652.566 151.743 652.859 151.676 653.143 151.581L663.163 181.604L685.906 249.744C685.206 250.064 684.711 250.825 684.711 251.722C684.711 251.772 684.733 251.814 684.736 251.863L640.48 271.125L621.746 279.282H621.75ZM234.469 172.167L212.884 236.301C212.685 236.262 212.486 236.234 212.278 236.234C210.817 236.234 209.568 237.226 209.035 238.638L34.0995 165.912L232.056 168.513C232.169 170.185 233.128 171.583 234.469 172.167ZM149.475 276.958C149.481 276.839 149.506 276.726 149.506 276.603C149.506 276.23 149.468 275.871 149.409 275.519L177.02 270.372L272.27 252.62C272.346 253.173 272.501 253.69 272.725 254.169L265.497 260.311L227.162 292.891C225.752 290.958 223.629 289.698 221.219 289.698C217.89 289.698 215.083 292.07 214.01 295.369L164.372 281.207L149.475 276.958ZM761.792 222.403L759.543 223.258L688.143 250.459C687.796 249.945 687.275 249.593 686.654 249.586L653.831 151.25C654.358 150.902 654.781 150.395 655.046 149.775L761.789 222.4H761.792V222.403ZM650.73 151.282L619.314 277.258C619.055 277.194 618.787 277.155 618.51 277.155C618.472 277.155 618.434 277.166 618.396 277.169L590.223 131.664L565.815 5.60056C565.881 5.55832 565.953 5.52663 566.016 5.47735L650.518 145.396C649.692 146.019 649.146 147.075 649.146 148.276C649.146 149.571 649.79 150.687 650.73 151.282ZM561.019 5.39639L311.141 198.16L400.107 92.249C400.757 92.7172 401.53 92.9953 402.36 92.9953C404.66 92.9953 406.524 90.9149 406.524 88.3487C406.524 87.6517 406.376 86.997 406.13 86.4056L561.016 5.39639H561.019ZM398.574 90.2637C398.801 90.8198 399.123 91.3162 399.52 91.7316L310.103 198.177C309.567 197.653 308.876 197.322 308.106 197.322C307.876 197.322 307.652 197.357 307.437 197.41L286.41 149.712C287.196 149.071 287.713 148.043 287.713 146.871C287.713 146.695 287.688 146.53 287.666 146.361L398.574 90.2637ZM282.028 148.98C282.605 149.839 283.514 150.402 284.552 150.402H284.577L284.88 186.923C283.994 187.089 283.259 187.744 282.915 188.638L239.57 169.203C239.643 168.876 239.69 168.541 239.69 168.193C239.69 167.844 239.64 167.496 239.567 167.165L282.031 148.98H282.028ZM0.876033 328.859L32.1909 166.25L140.701 272.734C139.849 273.751 139.319 275.107 139.319 276.606C139.319 276.905 139.357 277.194 139.398 277.483L0.876033 328.859ZM147.023 281.464C148.213 280.665 149.093 279.359 149.393 277.796L193.254 290.31L213.792 296.171C213.638 296.854 213.527 297.555 213.527 298.29C213.527 301.67 215.294 304.567 217.837 305.968L186.639 376.695C186.052 376.473 185.434 376.325 184.781 376.325C183.941 376.325 183.153 376.533 182.433 376.888L147.027 281.464H147.023ZM189.863 385.84C190.305 384.928 190.576 383.9 190.576 382.792C190.576 380.247 189.245 378.064 187.33 377.008L216.786 310.231L218.521 306.299C219.364 306.654 220.269 306.872 221.225 306.872C222.938 306.872 224.506 306.225 225.787 305.169L325.495 464.614C324.94 465.072 324.451 465.614 324.057 466.247L189.866 385.836L189.863 385.84ZM416.588 422.171C415.96 421.907 415.285 421.746 414.575 421.746C411.398 421.746 408.821 424.621 408.821 428.166C408.821 428.825 408.934 429.448 409.102 430.046L334.562 466.705C334.332 466.268 334.07 465.864 333.764 465.494L458.494 332.267C458.705 332.496 458.929 332.71 459.175 332.893L416.591 422.171H416.588ZM490.209 367.141C489.647 367.141 489.127 367.306 488.66 367.57L465.226 332.327C465.844 331.672 466.295 330.838 466.541 329.898L573.061 362.709C572.973 363.124 572.919 363.55 572.916 363.994L493.49 369.897C493.07 368.31 491.767 367.141 490.209 367.141ZM580.576 359.066C579.828 358.587 578.97 358.295 578.046 358.295C575.882 358.295 574.039 359.794 573.285 361.914L466.693 329.078C466.718 328.852 466.756 328.627 466.756 328.395C466.756 327.934 466.69 327.494 466.592 327.068L614.97 282.601C615.238 283.53 615.778 284.319 616.5 284.833L580.576 359.066ZM622.239 281.439C622.239 281.401 622.248 281.365 622.248 281.327C622.248 280.876 622.169 280.454 622.049 280.045L684.935 252.673C685.162 253.176 685.556 253.553 686.042 253.729L679.177 290.81C679.019 290.792 678.868 290.757 678.707 290.757C676.786 290.757 675.155 292.091 674.489 293.971L622.239 281.439ZM682.783 293.626C682.218 292.331 681.18 291.352 679.915 290.961L686.79 253.827C687.348 253.775 687.821 253.461 688.143 252.986L703.87 266.201L721.316 280.862L682.783 293.623V293.626Z" fill="white" fill-opacity="0.48"/>
</svg>
