<svg width="32" height="32" viewBox="0 0 32 32" fill="none" xmlns="http://www.w3.org/2000/svg">
<path d="M17.0125 1.8075L20.3775 9.4825C20.5041 9.7713 20.7059 10.0208 20.9618 10.2051C21.2177 10.3893 21.5184 10.5015 21.8325 10.53L30.03 11.265C30.9575 11.4 31.3275 12.5375 30.655 13.1925L24.48 18.38C23.98 18.8 23.7525 19.46 23.89 20.0975L25.685 28.5C25.8425 29.4225 24.875 30.1275 24.045 29.69L16.89 25.5C16.6201 25.3415 16.3129 25.258 16 25.258C15.687 25.258 15.3798 25.3415 15.11 25.5L7.95496 29.6875C7.12746 30.1225 6.15746 29.42 6.31496 28.4975L8.10996 20.095C8.24496 19.4575 8.01996 18.7975 7.51996 18.3775L1.34246 13.195C0.672462 12.5425 1.04246 11.4025 1.96746 11.2675L10.165 10.5325C10.479 10.504 10.7797 10.3918 11.0356 10.2076C11.2915 10.0233 11.4933 9.7738 11.62 9.485L14.985 1.81C15.4025 0.97 16.5975 0.97 17.0125 1.8075Z" fill="#FDD835"/>
<path d="M16.7675 9.94262L16.1975 4.28762C16.175 3.97262 16.11 3.43262 16.615 3.43262C17.015 3.43262 17.2325 4.26512 17.2325 4.26512L18.9425 8.80512C19.5875 10.5326 19.3225 11.1251 18.7 11.4751C17.985 11.8751 16.93 11.5626 16.7675 9.94262Z" fill="#FFFF8D"/>
<path d="M23.8199 17.8772L28.7249 14.0497C28.9674 13.8472 29.4049 13.5247 29.0549 13.1572C28.7774 12.8672 28.0274 13.2847 28.0274 13.2847L23.7349 14.9622C22.4549 15.4047 21.6049 16.0597 21.5299 16.8847C21.4324 17.9847 22.4199 18.8322 23.8199 17.8772Z" fill="#F4B400"/>
</svg>
