<svg width="16" height="16" viewBox="0 0 16 16" fill="none" xmlns="http://www.w3.org/2000/svg">
<g clip-path="url(#clip0_649_1098)">
<path d="M4.48438 10.1953C4.35494 10.1953 4.25 10.3002 4.25 10.4297V10.8516C4.25 10.981 4.35494 11.0859 4.48438 11.0859C4.61381 11.0859 4.71875 10.981 4.71875 10.8516V10.4297C4.71875 10.3002 4.61381 10.1953 4.48438 10.1953Z" fill="#898384"/>
<path d="M15.2598 13.3079H14.8803V6.80516C15.5089 6.69391 15.9879 6.14407 15.9879 5.48404V4.58166C15.9879 4.57707 15.9875 4.57257 15.9873 4.56804C15.9871 4.56551 15.9871 4.56298 15.9869 4.56045C15.986 4.5512 15.9847 4.5421 15.9829 4.53323C15.9828 4.5327 15.9826 4.5322 15.9825 4.5317C15.9806 4.52316 15.9782 4.51485 15.9755 4.5067C15.9748 4.50463 15.974 4.50257 15.9732 4.50054C15.9706 4.49354 15.9677 4.48673 15.9645 4.48007C15.9639 4.47885 15.9636 4.47757 15.963 4.47638L14.9267 2.41548V1.33754C14.9267 1.05935 14.7003 0.833008 14.4221 0.833008H3.76425C3.63481 0.833008 3.52988 0.937945 3.52988 1.06738C3.52988 1.19682 3.63481 1.30176 3.76425 1.30176H14.4221C14.4418 1.30176 14.4579 1.31782 14.4579 1.33754V2.23891H1.54209V1.33754C1.54209 1.31782 1.55816 1.30176 1.57788 1.30176H2.67375C2.80319 1.30176 2.90812 1.19682 2.90812 1.06738C2.90812 0.937945 2.80319 0.833008 2.67375 0.833008H1.57788C1.29969 0.833008 1.07334 1.05935 1.07334 1.33754V2.41548L0.0370625 4.47638C0.0364687 4.4776 0.0360625 4.47888 0.0355 4.48007C0.0322812 4.48673 0.0294062 4.49354 0.0268125 4.50054C0.0260625 4.5026 0.02525 4.50463 0.0245625 4.5067C0.0218125 4.51485 0.0194062 4.52316 0.0175625 4.5317C0.0174375 4.5322 0.0172813 4.5327 0.0171563 4.53323C0.0152813 4.54213 0.0139687 4.5512 0.0131563 4.56045C0.0129375 4.56298 0.0129375 4.56551 0.0127813 4.56804C0.0125313 4.57257 0.0120937 4.57707 0.0120937 4.58166V5.48404C0.0120937 6.14404 0.491156 6.69391 1.11975 6.80516V13.3079H0.74025C0.332062 13.3079 0 13.64 0 14.0482V14.7895C0 14.9979 0.169469 15.1673 0.377781 15.1673H15.6222C15.8305 15.1673 16 14.9979 16 14.7895V14.0482C16 13.64 15.6679 13.3079 15.2598 13.3079ZM15.5192 5.48407C15.5192 5.9656 15.1274 6.35735 14.6459 6.35735C14.1643 6.35735 13.7726 5.9656 13.7726 5.48407V4.81607H15.5192V5.48407ZM14.5489 2.70766L15.3733 4.34729H13.7031L13.1142 2.70766H14.5489ZM12.6161 2.70766L13.205 4.34729H11.5122L11.1588 2.70766H12.6161ZM13.3039 4.81604V5.48404C13.3039 5.96557 12.9121 6.35732 12.4306 6.35732C11.9491 6.35732 11.5573 5.96557 11.5573 5.48404V4.81604H13.3039ZM10.6793 2.70766L11.0327 4.34729H9.32581L9.20803 2.70766H10.6793ZM11.0886 4.81604V5.48404C11.0886 5.96557 10.6968 6.35732 10.2153 6.35732C9.73381 6.35732 9.34203 5.96557 9.34203 5.48404V4.81604H11.0886ZM7.26194 2.70766H8.73803L8.85581 4.34729H7.14416L7.26194 2.70766ZM7.12672 4.81604H8.87328V5.48404C8.87328 5.96557 8.48153 6.35732 8 6.35732C7.51847 6.35732 7.12672 5.96557 7.12672 5.48404V4.81604ZM8 6.82607C8.4595 6.82607 8.86566 6.59385 9.10766 6.2407C9.34966 6.59385 9.75581 6.82607 10.2153 6.82607C10.6748 6.82607 11.081 6.59385 11.3229 6.2407C11.5649 6.59385 11.9711 6.82607 12.4306 6.82607C12.8901 6.82607 13.2963 6.59385 13.5382 6.2407C13.7381 6.53238 14.0501 6.7412 14.4115 6.80516V13.3079H5.58862V8.0997C5.58862 7.85932 5.39306 7.66376 5.15269 7.66376H2.44303C2.20266 7.66376 2.00709 7.85932 2.00709 8.0997V13.3079H1.5885V6.80516C1.94994 6.7412 2.26191 6.53238 2.46178 6.2407C2.70378 6.59385 3.10994 6.82607 3.56944 6.82607C4.02894 6.82607 4.43509 6.59385 4.67709 6.2407C4.91909 6.59385 5.32525 6.82607 5.78472 6.82607C6.24419 6.82607 6.65037 6.59385 6.89237 6.2407C7.13434 6.59385 7.5405 6.82607 8 6.82607ZM5.11987 8.13251V13.3079H2.47584V8.13251H5.11987ZM2.69613 5.48407V4.81607H4.44269V5.48407C4.44269 5.9656 4.05094 6.35735 3.56941 6.35735C3.08787 6.35735 2.69613 5.96557 2.69613 5.48407ZM5.32066 2.70766H6.79197L6.67419 4.34729H4.96731L5.32066 2.70766ZM4.91144 4.81604H6.65797V5.48404C6.65797 5.96557 6.26622 6.35732 5.78469 6.35732C5.30316 6.35732 4.91144 5.96557 4.91144 5.48404V4.81604ZM4.84113 2.70766L4.48778 4.34729H2.79497L3.38384 2.70766H4.84113ZM1.45109 2.70766H2.88578L2.29691 4.34729H0.626656L1.45109 2.70766ZM0.480844 5.48407V4.81607H2.22741V5.48407C2.22741 5.9656 1.83566 6.35735 1.35413 6.35735C0.872594 6.35735 0.480844 5.96557 0.480844 5.48407ZM0.46875 14.6986V14.0482C0.46875 13.8985 0.590531 13.7767 0.74025 13.7767H15.2597C15.4094 13.7767 15.5312 13.8985 15.5312 14.0482V14.6986H0.46875Z" fill="#898384"/>
<path d="M13.3367 7.66406H10.4706C10.3412 7.66406 10.2363 7.769 10.2363 7.89844C10.2363 8.02788 10.3412 8.13281 10.4706 8.13281H13.3039V11.8214H6.54688V8.13281H9.36719C9.49663 8.13281 9.60156 8.02788 9.60156 7.89844C9.60156 7.769 9.49663 7.66406 9.36719 7.66406H6.51406C6.27369 7.66406 6.07812 7.85959 6.07812 8.1V11.8543C6.07812 12.0946 6.27369 12.2902 6.51406 12.2902H13.3367C13.577 12.2902 13.7726 12.0946 13.7726 11.8543V8.1C13.7726 7.85962 13.577 7.66406 13.3367 7.66406Z" fill="#898384"/>
</g>
<defs>
<clipPath id="clip0_649_1098">
<rect width="16" height="16" fill="white"/>
</clipPath>
</defs>
</svg>
