<svg width="20" height="20" viewBox="0 0 20 20" fill="none" xmlns="http://www.w3.org/2000/svg">
<path d="M2.83081 9.073V12.828C2.83081 15.1872 2.83081 16.3672 3.56331 17.1005C4.29498 17.8338 5.47414 17.8338 7.83081 17.8338H12.8308C15.1875 17.8338 16.3666 17.8338 17.0983 17.1005C17.83 16.3672 17.8308 15.1872 17.8308 12.8272V9.073" stroke="#726C6C" stroke-linecap="round" stroke-linejoin="round"/>
<path d="M12.8308 14.0646C12.2608 14.5705 11.3533 14.898 10.3308 14.898C9.30827 14.898 8.40077 14.5705 7.83077 14.0646M15.1608 2.00295L5.45577 2.02712C4.00743 1.95212 3.63577 3.06879 3.63577 3.61545C3.63577 4.10379 3.57327 4.81545 2.68577 6.15295C1.79743 7.49045 1.8641 7.88795 2.36493 8.81462C2.77993 9.58295 3.8366 9.88295 4.38827 9.93379C6.13827 9.97379 6.98993 8.46045 6.98993 7.39629C7.85827 10.0688 10.3274 10.0688 11.4274 9.76295C12.5291 9.45712 13.4741 8.36129 13.6966 7.39629C13.8266 8.59629 14.2216 9.29545 15.3858 9.77629C16.5933 10.2738 17.6308 9.51295 18.1516 9.02462C18.6724 8.53712 19.0066 7.45379 18.0783 6.26295C17.4383 5.44212 17.1708 4.66879 17.0833 3.86712C17.0333 3.40212 16.9883 2.90295 16.6616 2.58545C16.1849 2.12129 15.4999 1.98129 15.1608 2.00295Z" stroke="#726C6C" stroke-linecap="round" stroke-linejoin="round"/>
</svg>
