<svg width="24" height="24" viewBox="0 0 24 24" fill="none" xmlns="http://www.w3.org/2000/svg">
<g clip-path="url(#clip0_3267_2685)">
<path d="M0.351807 5.44789V3.44823C0.351807 2.54214 1.08633 1.80762 1.99242 1.80762H3.99166" stroke="#6132CB" stroke-miterlimit="10" stroke-linecap="round" stroke-linejoin="round"/>
<path d="M13.6987 1.80762H10.301" stroke="#6132CB" stroke-miterlimit="10" stroke-linecap="round" stroke-linejoin="round"/>
<path d="M20.0082 1.80762H22.0079C22.9135 1.80762 23.6485 2.54214 23.6485 3.44823V5.44789" stroke="#6132CB" stroke-miterlimit="10" stroke-linecap="round" stroke-linejoin="round"/>
<path d="M18.5522 1.80762H15.1545" stroke="#6132CB" stroke-miterlimit="10" stroke-linecap="round" stroke-linejoin="round"/>
<path d="M8.84516 1.80762H5.44751" stroke="#6132CB" stroke-miterlimit="10" stroke-linecap="round" stroke-linejoin="round"/>
<path d="M4.97902 3.9919H4.46044C4.20156 3.9919 3.9917 3.78204 3.9917 3.52315V0.820552C3.9917 0.561664 4.20156 0.351807 4.46044 0.351807H4.97897C5.23786 0.351807 5.44772 0.561664 5.44772 0.820552V3.52315C5.44776 3.78204 5.23791 3.9919 4.97902 3.9919Z" stroke="#6132CB" stroke-miterlimit="10" stroke-linecap="round" stroke-linejoin="round"/>
<path d="M9.83236 3.9919H9.31384C9.05495 3.9919 8.84509 3.78204 8.84509 3.52315V0.820552C8.84509 0.561664 9.05495 0.351807 9.31384 0.351807H9.83236C10.0913 0.351807 10.3011 0.561664 10.3011 0.820552V3.52315C10.3011 3.78204 10.0913 3.9919 9.83236 3.9919Z" stroke="#6132CB" stroke-miterlimit="10" stroke-linecap="round" stroke-linejoin="round"/>
<path d="M14.6859 3.9919H14.1674C13.9085 3.9919 13.6986 3.78204 13.6986 3.52315V0.820552C13.6986 0.561664 13.9085 0.351807 14.1674 0.351807H14.6859C14.9448 0.351807 15.1546 0.561664 15.1546 0.820552V3.52315C15.1546 3.78204 14.9448 3.9919 14.6859 3.9919Z" stroke="#6132CB" stroke-miterlimit="10" stroke-linecap="round" stroke-linejoin="round"/>
<path d="M19.5394 3.9919H19.0209C18.762 3.9919 18.5521 3.78204 18.5521 3.52315V0.820552C18.5521 0.561664 18.762 0.351807 19.0209 0.351807H19.5394C19.7983 0.351807 20.0081 0.561664 20.0081 0.820552V3.52315C20.0081 3.78204 19.7983 3.9919 19.5394 3.9919Z" stroke="#6132CB" stroke-miterlimit="10" stroke-linecap="round" stroke-linejoin="round"/>
<path d="M7.99695 11.5416C8.04724 9.37384 9.82018 7.63208 11.9999 7.63208C14.2113 7.63208 16.0041 9.4248 16.0041 11.6362C16.0041 13.8476 14.2113 15.6403 11.9999 15.6403C10.3651 15.6403 8.95914 14.6606 8.33712 13.2563" stroke="#6132CB" stroke-miterlimit="10" stroke-linecap="round" stroke-linejoin="round"/>
<path d="M12.7885 9.88773C12.7885 9.88773 12.3397 9.47378 11.6479 9.68219C11.0126 9.87353 10.8549 10.7427 11.2866 11.0813C11.5344 11.2757 11.9074 11.4355 12.41 11.6132C13.535 12.0109 13.1191 13.5974 11.9748 13.605C11.5282 13.608 11.3194 13.5797 10.9271 13.323" stroke="#6132CB" stroke-miterlimit="10" stroke-linecap="round" stroke-linejoin="round"/>
<path d="M11.9747 13.6519V14.1841" stroke="#6132CB" stroke-miterlimit="10" stroke-linecap="round" stroke-linejoin="round"/>
<path d="M11.9747 9.08813V9.5768" stroke="#6132CB" stroke-miterlimit="10" stroke-linecap="round" stroke-linejoin="round"/>
<path d="M7.36902 10.8193L7.99578 11.6362L8.81261 11.0094" stroke="#6132CB" stroke-miterlimit="10" stroke-linecap="round" stroke-linejoin="round"/>
<path d="M2.86587 5.448H0.351562V20.5519C0.351562 21.458 1.08609 22.1925 1.99217 22.1925H13.1374" stroke="#6132CB" stroke-miterlimit="10" stroke-linecap="round" stroke-linejoin="round"/>
<path d="M23.6482 10.903V5.448H4.50647" stroke="#6132CB" stroke-miterlimit="10" stroke-linecap="round" stroke-linejoin="round"/>
<path d="M17.9485 22.1923H22.0075C22.9136 22.1923 23.6481 21.4578 23.6481 20.5517V12.5435" stroke="#6132CB" stroke-miterlimit="10" stroke-linecap="round" stroke-linejoin="round"/>
<path d="M9.52082 17.0962H8.82849C8.5696 17.0962 8.35974 17.306 8.35974 17.5649V20.2675C8.35974 20.5264 8.5696 20.7363 8.82849 20.7363H12.4053" stroke="#6132CB" stroke-miterlimit="10" stroke-linecap="round" stroke-linejoin="round"/>
<path d="M15.64 19.3228V17.5649C15.64 17.306 15.4301 17.0962 15.1712 17.0962H11.2084" stroke="#6132CB" stroke-miterlimit="10" stroke-linecap="round" stroke-linejoin="round"/>
<path d="M15.4072 19.4501L13.9524 20.1775L12.5292 18.7543C12.252 18.4771 11.8005 18.4516 11.5106 18.7154C11.201 18.9972 11.1925 19.4767 11.4851 19.7693L13.7082 21.9924C13.7821 22.0663 13.7298 22.1925 13.6254 22.1925H13.1375C12.6197 22.1925 12.2 22.6122 12.2 23.13V23.4141C12.2 23.5436 12.3049 23.6485 12.4344 23.6485H16.1806V23.6474C16.6254 23.6323 17.0656 23.4549 17.4051 23.1155C18.1159 22.4047 18.1159 21.2523 17.4051 20.5415L16.4893 19.6257C16.204 19.3403 15.7681 19.2696 15.4072 19.4501Z" stroke="#6132CB" stroke-miterlimit="10" stroke-linecap="round" stroke-linejoin="round"/>
<path d="M14.7687 20.9938L13.9524 20.1775" stroke="#6132CB" stroke-miterlimit="10" stroke-linecap="round" stroke-linejoin="round"/>
</g>
<defs>
<clipPath id="clip0_3267_2685">
<rect width="24" height="24" fill="white"/>
</clipPath>
</defs>
</svg>
