<svg width="24" height="24" viewBox="0 0 24 24" fill="none" xmlns="http://www.w3.org/2000/svg">
<g clip-path="url(#clip0_656_1445)">
<path d="M14.9065 17.8608L14.329 17.4987C14.3586 17.349 14.3744 17.1944 14.3744 17.036C14.3744 16.8777 14.3586 16.7231 14.329 16.5734L14.9065 16.2113C15.1179 16.0787 15.1818 15.7999 15.0493 15.5884L14.6313 14.9219C14.4988 14.7105 14.2199 14.6465 14.0085 14.7791L13.4307 15.1414C13.2533 15.0072 13.0565 14.8977 12.8452 14.8171V14.1355C12.8452 13.8859 12.6429 13.6836 12.3933 13.6836H11.6066C11.3571 13.6836 11.1547 13.8859 11.1547 14.1355V14.8171C10.9435 14.8977 10.7466 15.0072 10.5692 15.1414L9.9915 14.7791C9.78005 14.6465 9.50119 14.7105 9.36862 14.9219L8.95069 15.5884C8.81812 15.7998 8.88206 16.0787 9.09347 16.2113L9.67097 16.5734C9.64139 16.7231 9.62555 16.8777 9.62555 17.036C9.62555 17.1944 9.64139 17.349 9.67097 17.4987L9.09347 17.8608C8.88201 17.9934 8.81812 18.2722 8.95069 18.4837L9.36862 19.1502C9.50119 19.3616 9.78005 19.4255 9.9915 19.293L10.5692 18.9307C10.7466 19.0649 10.9435 19.1744 11.1547 19.255V19.9366C11.1547 20.1862 11.3571 20.3885 11.6066 20.3885H12.3933C12.6429 20.3885 12.8452 20.1862 12.8452 19.9366V19.255C13.0565 19.1744 13.2533 19.0649 13.4307 18.9307L14.0085 19.293C14.2199 19.4255 14.4988 19.3616 14.6313 19.1502L15.0493 18.4837C15.1819 18.2722 15.1179 17.9934 14.9065 17.8608Z" stroke="#5A5555" stroke-miterlimit="10" stroke-linecap="round" stroke-linejoin="round"/>
<path d="M12.0001 17.8538C12.4516 17.8538 12.8176 17.4877 12.8176 17.0363C12.8176 16.5848 12.4516 16.2188 12.0001 16.2188C11.5486 16.2188 11.1826 16.5848 11.1826 17.0363C11.1826 17.4877 11.5486 17.8538 12.0001 17.8538Z" stroke="#5A5555" stroke-miterlimit="10" stroke-linecap="round" stroke-linejoin="round"/>
<path d="M7.27688 8.55097L7.21454 7.49394C7.19344 7.14003 7.46344 6.83628 7.81735 6.81566L8.78344 6.75847C8.84907 6.55175 8.93485 6.34831 9.04266 6.15144C9.15047 5.95409 9.2761 5.77222 9.41485 5.60581L8.94235 4.76113C8.76985 4.45175 8.88 4.06081 9.18938 3.88784L10.1648 3.34269C10.4742 3.16972 10.8652 3.28034 11.0381 3.58972L11.5106 4.43488C11.8228 4.38894 12.143 4.38659 12.4608 4.43066L12.9258 3.58175C13.0959 3.27097 13.4859 3.15659 13.7972 3.32722L14.7769 3.86347C15.0877 4.03409 15.2016 4.42409 15.0314 4.73488L14.5664 5.58378C14.7745 5.828 14.9452 6.09894 15.0745 6.38722L16.0411 6.33003C16.395 6.30894 16.6988 6.57894 16.7194 6.93284L16.7855 8.048C16.7981 8.26081 16.7053 8.45581 16.552 8.58144" stroke="#5A5555" stroke-miterlimit="10" stroke-linecap="round" stroke-linejoin="round"/>
<path d="M9.39283 9.9082C9.40549 9.92508 9.41955 9.94148 9.43361 9.95789L8.96861 10.8068C8.79846 11.1176 8.91236 11.5076 9.22314 11.6777L10.2028 12.2145C10.5141 12.3846 10.9041 12.2707 11.0742 11.9599L11.5392 11.111C11.8571 11.1546 12.1772 11.1527 12.4894 11.1068L12.9619 11.952C13.1349 12.2613 13.5258 12.372 13.8352 12.199L14.8106 11.6538C15.1196 11.4809 15.2302 11.0899 15.0577 10.7805L14.5852 9.93586C14.5927 9.92695 14.6002 9.91758 14.6077 9.90867" stroke="#5A5555" stroke-miterlimit="10" stroke-linecap="round" stroke-linejoin="round"/>
<path d="M12.0001 8.93226C12.6412 8.93226 13.161 8.41248 13.161 7.7713C13.161 7.13013 12.6412 6.61035 12.0001 6.61035C11.3589 6.61035 10.8391 7.13013 10.8391 7.7713C10.8391 8.41248 11.3589 8.93226 12.0001 8.93226Z" stroke="#5A5555" stroke-miterlimit="10" stroke-linecap="round" stroke-linejoin="round"/>
<path d="M3.18124 1.81152L2.93369 3.20516C2.85438 3.65179 3.15213 4.07812 3.59871 4.15743L3.43113 5.10084L4.69905 5.32602L4.86663 4.38262C5.31325 4.46193 5.73958 4.16418 5.81889 3.7176L5.95783 2.93521" stroke="#5A5555" stroke-miterlimit="10" stroke-linecap="round" stroke-linejoin="round"/>
<path d="M5.17265 8.17792L5.49421 6.36807C5.57999 5.88573 5.25796 5.42541 4.77561 5.33963L3.47718 5.10901L3.41624 5.09823L3.40921 5.09682C2.72343 4.97495 2.06905 5.43198 1.94718 6.11776L1.00171 11.4414L4.48312 12.0596L4.89093 9.76416" stroke="#5A5555" stroke-miterlimit="10" stroke-linecap="round" stroke-linejoin="round"/>
<path d="M6.13486 20.2644L6.20002 16.78C6.20602 16.4646 6.1478 16.1513 6.02897 15.8591L4.48341 12.0597L1.00195 11.4414C1.00195 12.693 1.07578 13.3516 1.80727 14.2342L4.13461 16.8932L4.23867 22.3996C4.23867 22.804 4.56652 23.1319 4.97095 23.1319H6.80803L6.10388 21.921" stroke="#5A5555" stroke-miterlimit="10" stroke-linecap="round" stroke-linejoin="round"/>
<path d="M4.81311 7.36039L5.14311 8.17273L8.17639 8.71133L8.90717 8.53461C9.16686 8.47133 9.42842 8.63023 9.49264 8.88945L9.61357 9.37648C9.67732 9.63289 9.52404 9.89305 9.26904 9.96242L8.71639 10.112C8.53686 10.1607 8.34935 10.1743 8.16467 10.1523L4.87217 9.7618C4.20654 9.68305 3.63795 9.24477 3.39232 8.62133L3.19545 8.12211L2.47545 6.29633C2.43373 6.19039 2.41357 6.0807 2.41357 5.97289C2.41357 5.62695 2.61842 5.2993 2.95639 5.1582" stroke="#5A5555" stroke-miterlimit="10" stroke-linecap="round" stroke-linejoin="round"/>
<path d="M1.08469 12.7676L1.35141 17.0295L0.351562 22.399C0.351562 22.8035 0.679219 23.1312 1.08375 23.1312H3.10828L2.40422 21.9204L3.59438 16.2757" stroke="#5A5555" stroke-miterlimit="10" stroke-linecap="round" stroke-linejoin="round"/>
<path d="M20.4013 4.15726L20.5686 5.10039L19.3007 5.32586L19.1333 4.38226C19.0846 4.3907 19.0363 4.39492 18.989 4.39492C18.598 4.39492 18.2521 4.11508 18.1808 3.71711L17.9333 2.32351C17.8457 1.83039 18.1747 1.35929 18.6679 1.27164L19.7666 1.07664C20.2602 0.988982 20.7313 1.31804 20.8185 1.81117L21.066 3.20476C21.1457 3.65148 20.848 4.07758 20.4013 4.15726Z" stroke="#5A5555" stroke-miterlimit="10" stroke-linecap="round" stroke-linejoin="round"/>
<path d="M22.9983 11.4409L19.5169 12.0591L19.1091 9.76367" stroke="#5A5555" stroke-miterlimit="10" stroke-linecap="round" stroke-linejoin="round"/>
<path d="M18.8273 8.17792L18.5058 6.36807C18.42 5.88573 18.742 5.42541 19.2244 5.33963L20.5228 5.10901L20.5837 5.09823L20.5908 5.09682C21.2766 4.97495 21.9309 5.43198 22.0528 6.11776L22.7086 9.81127" stroke="#5A5555" stroke-miterlimit="10" stroke-linecap="round" stroke-linejoin="round"/>
<path d="M20.5268 5.10784C20.6944 5.07348 20.8737 5.08731 21.0434 5.15813C21.3814 5.29923 21.5863 5.62688 21.5863 5.97282C21.5863 6.08063 21.5661 6.19032 21.5244 6.29626L20.6075 8.62126C20.3619 9.2447 19.7933 9.68298 19.1277 9.76173L15.8352 10.1522C15.8314 10.1527 15.8272 10.1531 15.8234 10.1536C15.6425 10.1738 15.4592 10.1597 15.2834 10.1119L14.7308 9.96235C14.4758 9.89298 14.3225 9.63282 14.3863 9.37642L14.5072 8.88938C14.5714 8.63017 14.833 8.47126 15.0927 8.53454L15.8234 8.71126L18.8567 8.17267L19.5554 6.45282" stroke="#5A5555" stroke-miterlimit="10" stroke-linecap="round" stroke-linejoin="round"/>
<path d="M4.48329 6.54854L4.81311 7.36032L3.19545 8.12204L2.47545 6.29626C2.43373 6.19032 2.41357 6.08063 2.41357 5.97282C2.41357 5.62688 2.61842 5.29923 2.95639 5.15813C3.12617 5.08731 3.30546 5.07348 3.473 5.10784" stroke="#5A5555" stroke-miterlimit="10" stroke-linecap="round" stroke-linejoin="round"/>
<path d="M15.8237 8.71112V10.1535C15.6428 10.1736 15.4595 10.1596 15.2837 10.1117L14.731 9.96221C14.476 9.89284 14.3228 9.63268 14.3865 9.37627L14.5074 8.88924C14.5717 8.63002 14.8332 8.47112 15.0929 8.5344L15.8237 8.71112Z" stroke="#5A5555" stroke-miterlimit="10" stroke-linecap="round" stroke-linejoin="round"/>
<path d="M3.13452 2.07399L6.44722 3.08401C6.64255 3.14359 6.84758 3.0257 6.89441 2.8269L7.12963 1.82842C7.17543 1.63388 7.05107 1.4401 6.85513 1.40078L4.29754 0.887306C3.79119 0.785634 3.3006 1.12131 3.21191 1.63009L3.13452 2.07399Z" stroke="#5A5555" stroke-miterlimit="10" stroke-linecap="round" stroke-linejoin="round"/>
<path d="M21.066 3.20476C19.3105 3.37679 17.9333 2.32351 17.9333 2.32351C17.8457 1.83039 18.1747 1.35929 18.6679 1.27164L19.7666 1.07664C20.2602 0.988982 20.7313 1.31804 20.8185 1.81117L21.066 3.20476Z" stroke="#5A5555" stroke-miterlimit="10" stroke-linecap="round" stroke-linejoin="round"/>
<path d="M19.5169 12.0596L17.971 15.8588C17.8524 16.1508 17.7942 16.4644 17.7999 16.7799L17.8964 21.9207L17.1919 23.1314H19.0289C19.4335 23.1314 19.7616 22.8038 19.7616 22.3993L19.8656 16.8929L20.4056 16.276" stroke="#5A5555" stroke-miterlimit="10" stroke-linecap="round" stroke-linejoin="round"/>
<path d="M22.9981 11.4404L22.6483 17.0288L23.6484 22.3986C23.6484 22.8031 23.3206 23.1309 22.9161 23.1309H20.8915L21.5957 21.92L19.5166 12.0588L22.9981 11.4404Z" stroke="#5A5555" stroke-miterlimit="10" stroke-linecap="round" stroke-linejoin="round"/>
</g>
<defs>
<clipPath id="clip0_656_1445">
<rect width="24" height="24" fill="white"/>
</clipPath>
</defs>
</svg>
