<svg width="24" height="24" viewBox="0 0 24 24" fill="none" xmlns="http://www.w3.org/2000/svg">
<g clip-path="url(#clip0_3964_87275)">
<path d="M18.0765 17.6692C18.4598 17.6685 18.7709 17.9786 18.7717 18.3619V18.3674H19.7346C19.7305 17.4561 18.9919 16.7191 18.0809 16.7168C17.1698 16.7144 16.4275 17.4475 16.4185 18.3587V18.3803V19.6903C16.416 20.6023 17.1533 21.3439 18.0654 21.3463H18.0765C18.9962 21.3463 19.7346 20.6303 19.7346 19.6673H18.7717C18.7717 20.1007 18.4649 20.3834 18.0765 20.3834C17.6968 20.3875 17.3856 20.083 17.3814 19.7033C17.3814 19.6989 17.3814 19.6946 17.3814 19.6903V18.3803C17.3769 17.9921 17.688 17.6737 18.0762 17.6692H18.0765Z" fill="#5A5555"/>
<path d="M21.0602 12.2521H19.9316L19.8546 12.0355C21.206 11.3377 22.054 9.94311 22.0517 8.42213V5.31887H22.4531C22.7198 5.31699 22.9349 5.09995 22.9346 4.83326C22.9333 3.21561 21.6235 1.90415 20.0058 1.90039H17.4866C16.9413 1.89945 16.4288 2.15975 16.108 2.60041C14.6 2.72661 14.0156 4.04033 13.9169 4.75897C13.9146 4.78022 13.914 4.80166 13.9148 4.82291V8.42194C13.9157 9.99784 14.8264 11.4315 16.2526 12.1018L16.1994 12.2521H15.0741C13.4531 12.2521 12.1343 13.6003 12.1343 15.1891H13.0972C13.0972 14.1299 13.984 13.2151 15.0741 13.2151H16.3822L17.7638 14.346C17.9421 14.4884 18.196 14.4859 18.3716 14.34L19.7433 13.2151H21.0602C22.1503 13.2151 23.0371 14.1299 23.0371 15.1891H24C24 13.6003 22.6812 12.2521 21.0602 12.2521ZM17.4866 2.86334H20.0058C20.9092 2.86222 21.6965 3.47854 21.9122 4.35592H17.4866C17.0743 4.35592 16.7403 4.02171 16.7403 3.60963C16.7403 3.19737 17.0743 2.86334 17.4866 2.86334ZM15.785 3.64969C15.8025 4.21524 16.0991 4.73527 16.577 5.03826C16.1091 5.47121 15.5123 5.73922 14.8777 5.80129V4.86053C14.8777 4.69897 15.0743 3.92729 15.785 3.64969ZM14.8777 8.42213V6.7648C15.5518 6.72493 16.6801 6.47441 17.6468 5.31887H21.0888V8.42213C21.0888 10.1372 19.6983 11.5277 17.9833 11.5277C16.2682 11.5277 14.8777 10.1372 14.8777 8.42213ZM18.0662 13.3614L17.1102 12.5858L17.1633 12.4184C17.7572 12.541 18.3713 12.5297 18.9603 12.3853L19.0192 12.5829L18.0662 13.3614Z" fill="#5A5555"/>
<path d="M17.0927 6.67969C16.8267 6.67969 16.6112 6.89541 16.6112 7.16116V7.31482C16.6048 7.38968 16.542 7.44742 16.4668 7.44742C16.3915 7.44742 16.3287 7.38968 16.3223 7.31482V7.16116C16.3223 6.89541 16.1068 6.67969 15.8409 6.67969C15.5749 6.67969 15.3594 6.89541 15.3594 7.16116V7.31482C15.3594 7.92645 15.8551 8.42222 16.4668 8.42222C17.0784 8.42222 17.5742 7.92645 17.5742 7.31482V7.16116C17.5742 6.89541 17.3586 6.67969 17.0927 6.67969Z" fill="#5A5555"/>
<path d="M19.524 8.41037C20.124 8.40867 20.609 7.92099 20.6074 7.32103V7.16116C20.6074 6.89541 20.3918 6.67969 20.1259 6.67969C19.8599 6.67969 19.6444 6.89541 19.6444 7.16116V7.31482C19.6489 7.36052 19.6271 7.40491 19.588 7.42936C19.5489 7.45362 19.4994 7.45362 19.4603 7.42936C19.4212 7.40491 19.3992 7.36052 19.4037 7.31482V7.16116C19.4037 6.89541 19.1881 6.67969 18.9222 6.67969C18.6562 6.67969 18.4407 6.89541 18.4407 7.16116V7.31482C18.4356 7.91479 18.9179 8.40529 19.5178 8.41037H19.524Z" fill="#5A5555"/>
<path d="M14.3272 16.0818C14.1379 15.8998 13.8377 15.9028 13.6522 16.0888C13.4668 16.2748 13.4647 16.5752 13.6475 16.7638L13.9998 17.1153H8.66483C8.39889 17.1153 8.18335 17.3309 8.18335 17.5968C8.18335 17.8627 8.39889 18.0783 8.66483 18.0783H13.9998L13.6475 18.4294C13.4568 18.6149 13.4525 18.9195 13.6378 19.1102C13.8232 19.301 14.1279 19.3053 14.3186 19.12C14.3214 19.1172 14.3244 19.1144 14.3272 19.1114L15.505 17.9378C15.6932 17.7501 15.6938 17.4452 15.5061 17.2567L15.505 17.2556L14.3272 16.0818Z" fill="#5A5555"/>
<path d="M15.1652 20.004H9.83003L10.1825 19.6467C10.3721 19.459 10.3736 19.1531 10.1859 18.9636C9.99817 18.774 9.69236 18.7723 9.50278 18.9602L8.32504 20.133C8.13678 20.3203 8.13603 20.6248 8.32335 20.8129L8.32504 20.8146L9.50278 21.9882C9.69104 22.1759 9.99591 22.1753 10.1836 21.9871C10.3696 21.8028 10.3709 21.5024 10.1866 21.3164L10.1825 21.3123L9.83003 20.967H15.1652C15.4311 20.967 15.6467 20.7514 15.6467 20.4855C15.6467 20.2195 15.4311 20.004 15.1652 20.004Z" fill="#5A5555"/>
<path d="M5.75927 17.6534C6.04797 17.6517 6.28344 17.8843 6.28513 18.173V18.1742H7.24808C7.24244 17.3532 6.57345 16.6918 5.7525 16.6953C4.93154 16.6991 4.26839 17.3668 4.27027 18.1877C4.27215 19.0087 4.93813 19.6731 5.75927 19.6731C6.04928 19.6735 6.28438 19.909 6.284 20.1992C6.28363 20.4894 6.04815 20.7243 5.75795 20.7239C5.46794 20.7237 5.23284 20.4883 5.23322 20.1981V20.1964H4.27027C4.26914 21.0186 4.93493 21.6861 5.7572 21.6873C6.57947 21.6884 7.24695 21.0226 7.24808 20.2003C7.24921 19.378 6.58342 18.7106 5.76115 18.7094H5.75927C5.46963 18.7066 5.23623 18.4711 5.23623 18.1815C5.23623 17.8919 5.46963 17.6562 5.75927 17.6534Z" fill="#5A5555"/>
<path d="M11.6038 14.7095V9.12698C12.0852 8.90316 12.4704 8.39837 12.4704 7.81251V7.31053C12.4685 7.13205 12.4191 6.95733 12.3269 6.80423L11.2887 5.04496C11.1088 4.74047 10.7826 4.55239 10.429 4.54901H9.62972V3.75852C9.63612 3.51026 9.43995 3.30356 9.19169 3.29717C9.18304 3.29717 9.17439 3.29717 9.16592 3.29717H3.27217C3.01658 3.28814 2.80217 3.48788 2.79314 3.74329C2.79295 3.74836 2.79276 3.75344 2.79276 3.75852V4.54901H2.21198C1.88586 4.55164 1.58118 4.71282 1.39554 4.98121L0.168345 6.7589C0.0547469 6.92817 -0.00393299 7.1281 0.000204689 7.33197V7.81251C-0.00242838 8.37016 0.316173 8.87928 0.818714 9.12077V14.7095C0.819466 14.9754 1.03557 15.1904 1.30151 15.1896H11.1221C11.3875 15.1902 11.6032 14.9756 11.6038 14.7102V14.7095ZM3.75572 4.26012H8.66677V6.42676H3.75572V4.26012ZM0.963156 7.33197C0.963156 7.3252 0.954129 7.31881 0.95789 7.31335L2.19092 5.53227C2.19713 5.52362 2.20145 5.51196 2.21217 5.51196H2.79276V6.89451C2.7907 7.1627 3.00397 7.38294 3.27217 7.38971H9.16574C9.43168 7.38971 9.62972 7.16045 9.62972 6.89451V5.51196H10.429C10.4405 5.51196 10.4512 5.52456 10.4571 5.53434L11.4979 7.29079C11.5024 7.29662 11.5056 7.30339 11.5075 7.31053V7.81251C11.5054 8.05362 11.3241 8.25581 11.0845 8.28402C10.8449 8.31242 10.6216 8.15838 10.5631 7.92423L10.5462 7.7653C10.5208 7.50971 10.2996 7.319 10.0431 7.3316C9.78658 7.34401 9.58496 7.5556 9.58458 7.81232C9.58458 7.89376 9.59135 7.97501 9.60508 8.05532C9.58853 8.49353 9.22366 8.83753 8.78526 8.82831C8.34666 8.81891 7.99684 8.45968 7.9991 8.02109C7.99947 7.75402 7.7845 7.53679 7.51762 7.53416H7.49656C7.22949 7.53679 7.01471 7.75402 7.01508 8.02109C7.01922 8.30884 6.86913 8.57704 6.62144 8.72374C6.37374 8.87044 6.06661 8.87345 5.81609 8.73164C5.56558 8.58983 5.41022 8.32483 5.40872 8.03688C5.40872 8.03294 5.40872 8.02899 5.40872 8.02522C5.40853 7.75928 5.19262 7.54394 4.92668 7.54412C4.66093 7.5445 4.44558 7.76022 4.44577 8.02616C4.44708 8.46777 4.09143 8.82756 3.64983 8.83151C3.20823 8.83546 2.84637 8.48206 2.8396 8.04065L2.84317 7.98723C2.85013 7.92912 2.8537 7.87081 2.8537 7.81232C2.8537 7.55259 2.64776 7.33968 2.38821 7.33103C2.12867 7.32257 1.90899 7.52118 1.89188 7.78035L1.88454 7.88887C1.85088 8.13224 1.63271 8.30696 1.38764 8.28665C1.14277 8.26634 0.956385 8.05814 0.963156 7.81251V7.33197ZM7.65567 14.2267H4.76681V11.9637H7.65567V14.2267ZM8.61862 14.2267V11.4913C8.61636 11.2223 8.3997 11.0045 8.13075 11.0008H4.29286C4.02372 11.0045 3.80687 11.2221 3.80386 11.4913V14.2267H1.78166V9.20183C1.92479 9.16422 2.06115 9.10478 2.18622 9.0256C2.48808 9.46627 2.97332 9.74631 3.50595 9.7875C4.03839 9.82869 4.56087 9.62632 4.92706 9.23738C5.59435 9.94699 6.71059 9.98122 7.4202 9.31374C7.4501 9.28571 7.47888 9.25637 7.50671 9.22609C7.87083 9.61992 8.39406 9.82681 8.92876 9.78844C9.46365 9.75007 9.95208 9.4704 10.256 9.0288C10.3745 9.10516 10.5045 9.16233 10.6408 9.19807V14.2267H8.61862Z" fill="#5A5555"/>
</g>
<defs>
<clipPath id="clip0_3964_87275">
<rect width="24" height="24" fill="white"/>
</clipPath>
</defs>
</svg>
