<svg width="19" height="18" viewBox="0 0 19 18" fill="none" xmlns="http://www.w3.org/2000/svg">
<path d="M9.37186 8.67068C10.563 8.67068 11.5944 8.24345 12.4373 7.40053C13.28 6.55774 13.7073 5.52654 13.7073 4.33521C13.7073 3.14429 13.2801 2.11295 12.4372 1.26988C11.5943 0.427231 10.5629 0 9.37186 0C8.18053 0 7.14932 0.427231 6.30653 1.27002C5.46375 2.11281 5.03638 3.14415 5.03638 4.33521C5.03638 5.52654 5.46375 6.55788 6.30653 7.40067C7.1496 8.24332 8.18094 8.67068 9.37186 8.67068ZM7.05251 2.01585C7.69919 1.36917 8.45779 1.05482 9.37186 1.05482C10.2858 1.05482 11.0445 1.36917 11.6913 2.01585C12.338 2.66267 12.6525 3.42142 12.6525 4.33521C12.6525 5.24927 12.338 6.00787 11.6913 6.65469C11.0445 7.30151 10.2858 7.61586 9.37186 7.61586C8.45807 7.61586 7.69946 7.30138 7.05251 6.65469C6.40569 6.00801 6.0912 5.24927 6.0912 4.33521C6.0912 3.42142 6.40569 2.66267 7.05251 2.01585Z" fill="#726C6C"/>
<path d="M16.9577 13.841C16.9333 13.4902 16.8842 13.1077 16.8118 12.7036C16.7388 12.2966 16.6447 11.9118 16.5321 11.5601C16.4156 11.1966 16.2576 10.8376 16.0619 10.4936C15.859 10.1365 15.6206 9.82562 15.3531 9.56978C15.0734 9.30212 14.7309 9.08693 14.3348 8.92996C13.9401 8.77382 13.5027 8.69472 13.0349 8.69472C12.8511 8.69472 12.6734 8.77011 12.3302 8.99355C12.119 9.13129 11.8719 9.29059 11.5962 9.46678C11.3604 9.61702 11.041 9.75778 10.6464 9.88522C10.2615 10.0098 9.87065 10.073 9.48476 10.073C9.09914 10.073 8.7083 10.0098 8.32309 9.88522C7.92896 9.75792 7.60939 9.61716 7.37401 9.46692C7.10086 9.29237 6.85367 9.13307 6.6393 8.99341C6.29639 8.76997 6.11868 8.69458 5.93494 8.69458C5.46692 8.69458 5.02966 8.77382 4.63512 8.9301C4.23933 9.08679 3.8967 9.30199 3.61668 9.56992C3.34917 9.8259 3.11076 10.1367 2.90807 10.4936C2.71265 10.8376 2.55444 11.1964 2.43799 11.5602C2.32552 11.9119 2.23145 12.2966 2.15839 12.7036C2.08588 13.1071 2.03685 13.4898 2.01254 13.8414C1.98865 14.1851 1.97656 14.5429 1.97656 14.9043C1.97656 15.8439 2.27525 16.6046 2.86426 17.1656C3.44598 17.7192 4.21558 17.9999 5.15175 17.9999H13.8189C14.7548 17.9999 15.5244 17.7192 16.1062 17.1656C16.6954 16.605 16.994 15.8441 16.994 14.9042C16.9939 14.5415 16.9817 14.1838 16.9577 13.841ZM15.3789 16.4014C14.9945 16.7672 14.4842 16.945 13.8187 16.945H5.15175C4.48611 16.945 3.9758 16.7672 3.59155 16.4015C3.21458 16.0426 3.03139 15.5528 3.03139 14.9043C3.03139 14.567 3.04251 14.234 3.06476 13.9143C3.08646 13.6007 3.13081 13.2561 3.19659 12.89C3.26155 12.5284 3.34422 12.1891 3.44255 11.8819C3.5369 11.5873 3.66557 11.2956 3.82515 11.0146C3.97745 10.7468 4.15268 10.5171 4.34604 10.332C4.5269 10.1588 4.75487 10.0171 5.02348 9.91077C5.27191 9.81244 5.5511 9.75861 5.85419 9.7505C5.89113 9.77014 5.95691 9.80763 6.06348 9.87712C6.28032 10.0184 6.53026 10.1797 6.80656 10.3561C7.11803 10.5547 7.5193 10.7341 7.99872 10.8888C8.48885 11.0473 8.98872 11.1278 9.48489 11.1278C9.98106 11.1278 10.4811 11.0473 10.9709 10.889C11.4508 10.7339 11.8519 10.5547 12.1638 10.3559C12.4465 10.1751 12.6895 10.0186 12.9063 9.87712C13.0129 9.80777 13.0787 9.77014 13.1156 9.7505C13.4188 9.75861 13.698 9.81244 13.9466 9.91077C14.2151 10.0171 14.443 10.1589 14.6239 10.332C14.8172 10.5169 14.9925 10.7467 15.1448 11.0148C15.3045 11.2956 15.4333 11.5874 15.5275 11.8817C15.626 12.1893 15.7088 12.5285 15.7736 12.8898C15.8392 13.2567 15.8837 13.6013 15.9054 13.9145V13.9147C15.9278 14.2332 15.9391 14.5661 15.9392 14.9043C15.9391 15.5529 15.7559 16.0426 15.3789 16.4014Z" fill="#726C6C"/>
</svg>
