<svg width="18" height="19" viewBox="0 0 18 19" fill="none" xmlns="http://www.w3.org/2000/svg">
<path d="M11.5 6.70419C11.5 8.0849 10.3807 9.20419 9 9.20419C7.61929 9.20419 6.5 8.0849 6.5 6.70419C6.5 5.32348 7.61929 4.20419 9 4.20419C10.3807 4.20419 11.5 5.32348 11.5 6.70419Z" stroke="#B5B3B3" stroke-linecap="round"/>
<path d="M3.81966 12.8343C4.3031 11.4802 5.71197 10.8292 7.14973 10.8292H10.8503C12.288 10.8292 13.6969 11.4802 14.1803 12.8343C14.3767 13.3842 14.5394 14.0273 14.5998 14.7378C14.6275 15.0633 14.3601 15.3292 14.0334 15.3292H3.96661C3.63987 15.3292 3.37254 15.0633 3.40022 14.7378C3.46063 14.0273 3.62331 13.3842 3.81966 12.8343Z" stroke="#898384" stroke-linecap="round"/>
</svg>
