<svg width="24" height="22" viewBox="0 0 24 22" fill="none" xmlns="http://www.w3.org/2000/svg">
<path d="M0.333252 10.62V9.38797C0.333252 8.51064 0.333252 7.7973 0.375919 7.21197C0.419919 6.60664 0.513252 6.07064 0.734585 5.5533C1.08822 4.72403 1.65949 4.0058 2.38792 3.47464C2.84125 3.14397 3.34258 2.93197 3.92392 2.7533C4.48392 2.57997 5.17725 2.41997 6.03325 2.22264L10.6493 1.15597C11.9479 0.857303 12.9879 0.617303 13.8333 0.498636C14.6959 0.378636 15.4679 0.365303 16.2039 0.60397C17.3566 0.976155 18.335 1.75411 18.9573 2.7933C19.1399 3.09997 19.2719 3.42264 19.3693 3.76664C20.5385 4.2877 21.4633 5.23736 21.9533 6.41997C22.1639 6.9293 22.2519 7.46797 22.2932 8.07597C22.3333 8.65197 22.3333 9.35597 22.3333 10.224C22.7328 10.4129 23.0705 10.7115 23.307 11.085C23.5435 11.4584 23.669 11.8913 23.669 12.3333C23.669 12.7753 23.5435 13.2082 23.307 13.5817C23.0705 13.9551 22.7328 14.2537 22.3333 14.4426C22.3333 15.3093 22.3333 16.0146 22.2932 16.5893C22.2519 17.1986 22.1639 17.736 21.9533 18.2466C21.702 18.8535 21.3336 19.4048 20.8692 19.8692C20.4048 20.3337 19.8534 20.702 19.2466 20.9533C18.7372 21.164 18.1986 21.252 17.5906 21.2933C16.9973 21.3333 16.2706 21.3333 15.3693 21.3333H7.68925C6.60659 21.3333 5.73192 21.3333 5.02525 21.276C4.29592 21.216 3.65592 21.0893 3.06392 20.788C2.12248 20.3088 1.35699 19.5438 0.877252 18.6026C0.575919 18.0106 0.450585 17.3706 0.390585 16.6426C0.333252 15.9346 0.333252 15.06 0.333252 13.976V10.62ZM11.0533 3.1173L10.1133 3.3333H15.3853C15.9519 3.3333 16.4479 3.3333 16.8866 3.34397C16.5346 2.95644 16.0873 2.66777 15.5893 2.50664C15.2719 2.40397 14.8493 2.37597 14.1093 2.47997C13.3626 2.58397 12.4093 2.80397 11.0519 3.1173M14.9746 5.3333H7.73325C6.59725 5.3333 5.80392 5.3333 5.18658 5.38397C4.58258 5.4333 4.23459 5.52664 3.97192 5.65997C3.37241 5.96455 2.89322 6.46252 2.61192 7.0733C2.50392 7.32664 2.42792 7.65864 2.38525 8.18797L2.36792 8.42797C2.33325 9.00797 2.33325 9.73864 2.33325 10.7333V13.9333C2.33325 15.0706 2.33325 15.8626 2.38392 16.48C2.43325 17.084 2.52659 17.432 2.65992 17.696C2.94792 18.26 3.40659 18.7186 3.97192 19.0066C4.23459 19.14 4.58258 19.2333 5.18792 19.2826C5.80392 19.332 6.59725 19.3333 7.73325 19.3333H15.3333C16.2799 19.3333 16.9386 19.3333 17.4533 19.2973C17.9599 19.2626 18.2559 19.1986 18.4813 19.1053C18.8453 18.9545 19.1762 18.7335 19.4548 18.4549C19.7335 18.1762 19.9545 17.8454 20.1053 17.4813C20.1986 17.256 20.2626 16.9613 20.2973 16.4546C20.3279 16.0013 20.3333 15.4373 20.3333 14.6666H18.6666C18.0477 14.6666 17.4543 14.4208 17.0167 13.9832C16.5791 13.5456 16.3333 12.9521 16.3333 12.3333C16.3333 11.7145 16.5791 11.121 17.0167 10.6834C17.4543 10.2458 18.0477 9.99997 18.6666 9.99997H20.3333C20.3333 9.2293 20.3279 8.66664 20.2973 8.2133C20.2626 7.70664 20.1986 7.41064 20.1053 7.1853C19.9528 6.81727 19.7285 6.48329 19.4456 6.20286C19.1626 5.92243 18.8266 5.70116 18.4573 5.55197L18.2693 5.50397C17.6386 5.34264 16.7426 5.3333 14.9759 5.3333M18.3333 12.3333C18.3333 12.5173 18.4826 12.6666 18.6666 12.6666H21.3333C21.4217 12.6666 21.5064 12.6315 21.569 12.569C21.6315 12.5065 21.6666 12.4217 21.6666 12.3333C21.6666 12.2449 21.6315 12.1601 21.569 12.0976C21.5064 12.0351 21.4217 12 21.3333 12H18.6666C18.5782 12 18.4934 12.0351 18.4309 12.0976C18.3684 12.1601 18.3333 12.2449 18.3333 12.3333Z" fill="white"/>
</svg>
