<svg width="18" height="16" viewBox="0 0 18 16" fill="none" xmlns="http://www.w3.org/2000/svg">
<path d="M0.25 7.71461V6.79061C0.25 6.13261 0.25 5.59761 0.282 5.15861C0.315 4.70461 0.385 4.30261 0.551 3.91461C0.816227 3.29266 1.24468 2.75399 1.791 2.35561C2.131 2.10761 2.507 1.94861 2.943 1.81461C3.363 1.68461 3.883 1.56461 4.525 1.41661L7.987 0.616611C8.961 0.392611 9.741 0.212611 10.375 0.123611C11.022 0.0336111 11.601 0.0236111 12.153 0.202611C13.0175 0.48175 13.7513 1.06522 14.218 1.84461C14.355 2.07461 14.454 2.31661 14.527 2.57461C15.4039 2.96541 16.0976 3.67765 16.465 4.56461C16.623 4.94661 16.689 5.35061 16.72 5.80661C16.75 6.23861 16.75 6.76661 16.75 7.41761C17.0497 7.55934 17.3029 7.78328 17.4803 8.06335C17.6577 8.34342 17.7518 8.66811 17.7518 8.99961C17.7518 9.33112 17.6577 9.6558 17.4803 9.93587C17.3029 10.2159 17.0497 10.4399 16.75 10.5816C16.75 11.2316 16.75 11.7606 16.72 12.1916C16.689 12.6486 16.623 13.0516 16.465 13.4346C16.2765 13.8897 16.0003 14.3032 15.652 14.6516C15.3036 14.9999 14.8901 15.2762 14.435 15.4646C14.053 15.6226 13.649 15.6886 13.193 15.7196C12.748 15.7496 12.203 15.7496 11.527 15.7496H5.767C4.955 15.7496 4.299 15.7496 3.769 15.7066C3.222 15.6616 2.742 15.5666 2.298 15.3406C1.59192 14.9812 1.0178 14.4075 0.658 13.7016C0.432 13.2576 0.338 12.7776 0.293 12.2316C0.25 11.7006 0.25 11.0446 0.25 10.2316V7.71461ZM8.29 2.08761L7.585 2.24961H11.539C11.964 2.24961 12.336 2.24961 12.665 2.25761C12.401 1.96697 12.0656 1.75046 11.692 1.62961C11.454 1.55261 11.137 1.53161 10.582 1.60961C10.022 1.68761 9.307 1.85261 8.289 2.08761M11.231 3.74961H5.8C4.948 3.74961 4.353 3.74961 3.89 3.78761C3.437 3.82461 3.176 3.89461 2.979 3.99461C2.52937 4.22304 2.16998 4.59653 1.959 5.05461C1.878 5.24461 1.821 5.49361 1.789 5.89061L1.776 6.07061C1.75 6.50561 1.75 7.05361 1.75 7.79961V10.1996C1.75 11.0526 1.75 11.6466 1.788 12.1096C1.825 12.5626 1.895 12.8236 1.995 13.0216C2.211 13.4446 2.555 13.7886 2.979 14.0046C3.176 14.1046 3.437 14.1746 3.891 14.2116C4.353 14.2486 4.948 14.2496 5.8 14.2496H11.5C12.21 14.2496 12.704 14.2496 13.09 14.2226C13.47 14.1966 13.692 14.1486 13.861 14.0786C14.1341 13.9655 14.3822 13.7998 14.5912 13.5908C14.8002 13.3818 14.9659 13.1337 15.079 12.8606C15.149 12.6916 15.197 12.4706 15.223 12.0906C15.246 11.7506 15.25 11.3276 15.25 10.7496H14C13.5359 10.7496 13.0908 10.5652 12.7626 10.237C12.4344 9.90886 12.25 9.46374 12.25 8.99961C12.25 8.53548 12.4344 8.09036 12.7626 7.76217C13.0908 7.43398 13.5359 7.24961 14 7.24961H15.25C15.25 6.67161 15.246 6.24961 15.223 5.90961C15.197 5.52961 15.149 5.30761 15.079 5.13861C14.9646 4.86259 14.7964 4.6121 14.5842 4.40178C14.372 4.19146 14.12 4.02551 13.843 3.91361L13.702 3.87761C13.229 3.75661 12.557 3.74961 11.232 3.74961M13.75 8.99961C13.75 9.13761 13.862 9.24961 14 9.24961H16C16.0663 9.24961 16.1299 9.22327 16.1768 9.17639C16.2237 9.1295 16.25 9.06592 16.25 8.99961C16.25 8.93331 16.2237 8.86972 16.1768 8.82283C16.1299 8.77595 16.0663 8.74961 16 8.74961H14C13.9337 8.74961 13.8701 8.77595 13.8232 8.82283C13.7763 8.86972 13.75 8.93331 13.75 8.99961Z" fill="#5A5555"/>
</svg>
